<?xml version="1.0" encoding="UTF-8"?>
<svg width="220px" viewBox="0 0 560 127" version="1.1" xmlns="http://www.w3.org/2000/svg" xmlns:xlink="http://www.w3.org/1999/xlink">
  <path fill="#262626" d="M179.2891,103.1429 L172.6251,96.4959 L172.6211,77.6829 L183.5091,77.6499 L183.5351,86.5349 C183.6301,90.4409 185.1931,92.3399 188.2991,92.3399 C191.5561,92.3349 193.0271,90.4409 193.0271,86.5349 L193.0271,73.0359 L172.3241,61.4269 L172.3191,33.1369 L178.7561,26.6839 L196.7751,26.6739 L203.8401,33.7159 L203.8491,50.3269 L193.2611,50.3499 L193.2351,42.9909 C193.3281,39.3079 191.7441,37.3849 188.5311,37.2849 L188.5061,37.2849 C186.7501,37.2849 185.5891,37.6909 184.8231,38.4809 C183.8961,39.4259 183.4751,40.9039 183.5351,42.9909 L183.5351,53.3869 L204.1361,65.3919 L204.1501,96.0829 L197.0901,103.1429 L179.2891,103.1429 Z M218.2057,103.1426 L218.1797,26.6996 L241.4317,26.6746 L249.6017,34.8276 L249.6107,63.2006 L241.4497,71.3586 L229.0647,71.3676 L229.0947,103.1426 L218.2057,103.1426 Z M229.0947,60.8866 C229.0947,60.8866 234.4227,60.8606 234.4357,60.8606 C235.9327,60.8606 236.8497,60.5466 237.4437,59.9186 C238.0537,59.2906 238.3417,58.3246 238.2857,57.0646 L238.2857,40.5706 C238.3417,39.4516 238.0747,38.5776 237.5007,37.9876 C236.8657,37.3206 235.8197,36.9796 234.3977,36.9796 L229.0947,36.9796 L229.0947,60.8866 Z M279.6516,103.143 L278.7246,92.965 L270.7016,92.993 L269.8296,103.12 L258.5376,103.143 L266.6626,26.7 L281.3666,26.674 L290.5476,103.143 L279.6516,103.143 Z M271.4336,82.514 L277.5376,82.482 L274.2216,48.765 L271.4336,82.514 Z M324.9118,103.1427 L319.9558,71.0437 L315.6558,71.0627 L315.6748,103.1207 L304.5938,103.1427 L304.5748,26.6997 L327.5258,26.6737 L335.5858,34.7257 L335.5958,63.0037 L330.5548,68.0507 L335.8088,103.1427 L324.9118,103.1427 Z M315.6748,60.4857 C315.6748,60.4857 321.0028,60.4637 321.0118,60.4637 C323.5778,60.4637 324.7828,59.2517 324.8758,56.8657 L324.8758,40.3757 C324.7828,38.0497 323.5698,36.8757 321.2708,36.8757 L315.6748,36.8777 L315.6748,60.4857 Z M372.3789,103.1429 L362.8999,71.2469 L362.9559,103.1209 L351.8659,103.1429 L351.8379,26.6999 L362.9289,26.6739 L362.9559,61.3889 L372.3419,26.6899 L383.4229,26.6739 L373.7129,66.2259 L383.7669,103.1429 L372.3789,103.1429 Z M396.4136,103.143 L396.3846,26.7 L419.7436,26.674 L428.0086,34.925 L428.0086,59.68 L422.9776,64.725 L428.0086,69.709 L428.0086,95.074 L419.9556,103.143 L396.4136,103.143 Z M407.3926,59.784 L412.1276,59.754 C413.8416,59.754 414.9436,59.369 415.6586,58.614 C416.4546,57.774 416.8066,56.446 416.7046,54.656 L416.7046,41.483 C416.7416,40.222 416.4356,39.247 415.7956,38.578 C415.0916,37.848 413.9616,37.48 412.4336,37.48 L407.3926,37.485 L407.3926,59.784 Z M412.0996,92.53 C412.3686,92.558 412.6276,92.567 412.8696,92.567 C415.3146,92.567 416.6126,91.215 416.7046,88.536 L416.7046,74.161 C416.7046,71.534 415.2956,70.256 412.4136,70.256 L407.3926,70.266 L407.3926,92.558 L412.0996,92.53 Z M450.5235,103.1428 L442.5555,95.1948 L442.5555,34.5408 L450.4025,26.6838 L465.8015,26.6738 L474.2795,35.1268 L474.2795,94.3688 L465.5135,103.1428 L450.5235,103.1428 Z M458.5645,36.8778 C455.0625,37.1838 453.3585,38.8538 453.3585,41.9808 L453.3585,87.3328 C453.3125,88.9308 453.7105,90.1808 454.5435,91.0568 C455.4055,91.9828 456.7675,92.4788 458.5645,92.5298 C462.1775,92.3358 463.9665,90.5848 463.8755,87.3328 L463.8755,41.9808 C463.5775,38.9018 461.7805,37.1838 458.5645,36.8778 Z M484.5264,26.7 L495.7834,26.7 L502.7234,46.509 L508.5434,26.7 L519.2074,26.7 L508.3484,62.894 L519.5124,103.12 L508.5434,103.12 L502.4184,81.199 L495.8854,103.12 L484.9244,103.12 L497.2944,63.004 L484.5264,26.7 Z" />
  <path fill="#262626" d="M121.3712,0.0002 C123.9802,0.0002 126.1152,2.1352 126.1152,4.7442 L126.1152,121.3722 C126.1152,123.9812 123.9802,126.1162 121.3712,126.1162 L4.7432,126.1162 C2.1352,126.1162 0.0002,123.9812 0.0002,121.3722 L0.0002,4.7442 C0.0002,2.1352 2.1352,0.0002 4.7432,0.0002 L121.3712,0.0002 Z M102.2412,61.6082 C102.4562,61.4972 102.5992,61.2742 102.5992,61.0152 C102.5992,60.6472 102.3032,60.3482 101.9322,60.3482 L94.5552,60.3482 L35.3752,60.3482 L76.9512,32.3042 L64.2922,53.7882 C64.2452,53.8832 64.2112,53.9892 64.2112,54.1082 C64.2112,54.4752 64.5102,54.7732 64.8802,54.7732 L64.8802,54.7752 L69.9092,54.7752 L69.9092,54.7702 L81.8522,54.7702 C81.9242,54.7732 81.9892,54.7752 82.0562,54.7752 C88.4702,54.7752 93.6682,49.5742 93.6682,43.1632 C93.6682,37.2542 89.2512,32.3742 83.5412,31.6462 L92.0242,17.2382 C92.1022,17.1272 92.1432,17.0002 92.1432,16.8632 C92.1432,16.4952 91.8452,16.1962 91.4772,16.1962 C91.3352,16.1962 91.2052,16.2402 91.0992,16.3162 L91.0992,16.3142 L83.2582,21.6032 L83.2542,21.6142 L68.5032,31.5582 L34.7702,31.5582 C34.4162,31.5582 34.1242,31.8382 34.1082,32.1922 L34.1082,32.2222 L34.1082,36.8992 L34.1082,54.7612 L19.7332,64.4572 C19.5332,64.5752 19.3972,64.7882 19.3972,65.0342 C19.3972,65.4002 19.6982,65.6962 20.0692,65.6962 L20.0742,65.6962 L27.4392,65.6962 L27.4552,65.6872 L86.6382,65.6872 L48.2172,91.6022 L59.5712,72.3212 C59.6462,72.2012 59.6992,72.0802 59.6992,71.9322 C59.6992,71.5702 59.4162,71.2742 59.0572,71.2652 L34.7732,71.2652 C34.4072,71.2652 34.1082,71.5612 34.1082,71.9322 L34.1082,93.8162 C34.1082,94.1772 34.3992,94.4692 34.7612,94.4742 L40.3232,94.4742 L33.1492,106.6632 C33.0772,106.7692 33.0352,106.8902 33.0352,107.0342 C33.0352,107.3992 33.3372,107.7012 33.7022,107.7012 C33.8482,107.7012 33.9782,107.6502 34.0892,107.5752 L53.4952,94.4842 L82.0562,94.4842 C88.4702,94.4842 93.6682,89.2862 93.6682,82.8752 C93.6682,78.0652 90.7452,73.9332 86.5732,72.1732 L102.2412,61.6082 Z M82.0562,76.6107 C85.5192,76.6107 88.3242,79.4137 88.3242,82.8747 C88.3242,86.3307 85.5192,89.1377 82.0562,89.1377 L61.4242,89.1377 L79.9972,76.6107 L82.0562,76.6107 Z M39.4497,76.6068 L50.8527,76.6068 L43.4707,89.1378 L39.4497,89.1378 L39.4497,76.6068 Z M81.9941,49.4286 L73.0551,49.4306 L80.4441,36.9026 L81.9941,36.9026 C82.0121,36.9026 82.0401,36.8996 82.0561,36.8996 C85.5191,36.8996 88.3241,39.7016 88.3241,43.1636 C88.3241,46.6256 85.5191,49.4306 82.0561,49.4306 C82.0401,49.4306 82.0121,49.4286 81.9941,49.4286 Z M39.4497,36.8993 L60.5907,36.8993 L39.4497,51.1543 L39.4497,36.8993 Z" />
</svg>
