<?xml version="1.0" encoding="utf-8"?>
<!-- Generator: Adobe Illustrator 18.1.0, SVG Export Plug-In . SVG Version: 6.00 Build 0)  -->
<svg version="1.1" id="Layer_1" xmlns="http://www.w3.org/2000/svg" xmlns:xlink="http://www.w3.org/1999/xlink" x="0px" y="0px"
	 viewBox="0 0 150.2 57.2" enable-background="new 0 0 150.2 57.2" xml:space="preserve">
<g>
	<circle cx="80.2" cy="19.5" r="10.9"/>
	<path d="M80.2,19.5v-8.6c4.8,0,8.6,3.9,8.6,8.6H80.2v8.6c-4.8,0-8.6-3.9-8.6-8.6H80.2z"/>
</g>
<path d="M55.3,17.3C58.1,7.5,67,0,77.5,0c13.6,0,23.3,9,23.3,21.8c0,5.7-4,10.5-5.6,12.2c-0.4,0.4-1,0.7-1.6,0.7l-17.6,0.1
	c-0.9,0-1.7,0.5-2,1.3L70.6,47c-0.2,0.6-0.7,1-1.3,1.2c-3,1-13.7,6.7-13.7-0.1c0-0.7-1.3-10.5-1.3-12.3h-2.2c-1.5,0-2.5-1.5-2-2.9
	l5.7-9.2c0.3-0.6,0.4-1.3,0.2-1.9C55.5,20.7,54.7,19.3,55.3,17.3z"/>
<path d="M91.5,50.4H73.9c0.2-0.2,0.3-0.4,0.5-0.6l0,0.1l2.7-3.6h14.5c0.3,0,0.5,0.2,0.5,0.5v3.1C92,50.2,91.8,50.4,91.5,50.4z"/>
<path d="M92,53.5v3.1c0,0.3-0.2,0.5-0.5,0.5H72.4c-0.3,0-0.5-0.2-0.5-0.5v-3.1c0-0.3,0.2-0.5,0.5-0.5h19.1C91.8,53,92,53.2,92,53.5z
	"/>
<path d="M91.5,43.6H79l3.1-4.2h9.5c0.3,0,0.5,0.2,0.5,0.5v3.1C92,43.4,91.8,43.6,91.5,43.6z"/>
<path d="M0,45.2c0-0.6,0.5-1,1-1H18v-26H1c-0.6,0-1-0.5-1-1s0.5-1,1-1h49.3c0.2,0,0.4,0.2,0.3,0.4c-0.1,0.5-0.2,0.9-0.2,1.3
	c0,0.2-0.2,0.3-0.3,0.3H20.1v26h30.2c0.2,0,0.3,0.1,0.3,0.3c0.1,0.5,0.1,1.2,0.2,1.6c0,0,0,0.2-0.2,0.2S1,46.2,1,46.2
	C0.5,46.2,0,45.8,0,45.2z"/>
<path d="M41.9,26.6l-7.2,10.2c-0.2,0.3-0.5,0.4-0.8,0.4c0,0,0,0,0,0c-0.3,0-0.6-0.1-0.8-0.4l-4.6-5.5c-0.4-0.4-0.3-1.1,0.1-1.5
	c0.4-0.4,1.1-0.3,1.5,0.1l3.7,4.5l6.4-9.1c0.3-0.5,1-0.6,1.4-0.3C42.1,25.5,42.2,26.1,41.9,26.6z"/>
<path d="M132.2,18.1v26h17c0.6,0,1,0.5,1,1c0,0.6-0.5,1-1,1H97.8c-0.2,0-0.3-0.2-0.3-0.3v-1.4c0-0.2,0.2-0.3,0.3-0.3h32.3v-26h-24.7
	c-0.2,0-0.3-0.1-0.3-0.3c-0.1-0.6-0.2-1-0.3-1.6c0,0,0-0.2,0.2-0.2s44.2,0,44.2,0c0.6,0,1,0.5,1,1s-0.5,1-1,1H132.2z"/>
<path d="M109.1,26.8c-0.4-0.4-0.4-1.1,0-1.5c0.4-0.4,1.1-0.4,1.5,0l4.5,4.5l4.5-4.5c0.4-0.4,1.1-0.4,1.5,0c0.4,0.4,0.4,1.1,0,1.5
	l-4.5,4.5l4.5,4.5c0.4,0.4,0.4,1.1,0,1.5c-0.2,0.2-0.5,0.3-0.7,0.3c-0.3,0-0.5-0.1-0.7-0.3l-4.5-4.5l-4.5,4.5
	c-0.2,0.2-0.5,0.3-0.7,0.3s-0.5-0.1-0.7-0.3c-0.4-0.4-0.4-1.1,0-1.5l4.5-4.5L109.1,26.8z"/>
</svg>
