<svg xmlns="http://www.w3.org/2000/svg" xmlns:xlink="http://www.w3.org/1999/xlink" viewBox="0 0 1500 1500" enable-background="new 0 0 1500 1500"><defs><rect id="a" width="1500" height="1500"/></defs><clipPath id="b"><use xlink:href="#a" overflow="visible"/></clipPath><g clip-path="url(#b)"><rect x="1" y="-1" width="1500" height="1500" fill="none"/><rect y="-1" fill="#232325" width="1500" height="1500"/><g fill="#544427"><path d="M717.301 156.802c-1.83-1.954-3.328-1.362-3.328 1.315v52.33c0 2.677-2.19 4.868-4.868 4.868h-41.714c-2.677 0-4.868-2.191-4.868-4.868v-53.277c0-2.677-1.541-3.311-3.426-1.409 0 0-38.67 20.218-38.67 67.161 0 36.81 29.84 57.877 66.651 57.877s66.651-21.067 66.651-57.877c.002-46.943-36.428-66.12-36.428-66.12z"/><path d="M722.578 719.96c-2.54-2.54-5.292-4.735-8.188-6.617v-487.668h-54.618v487.665c-2.897 1.882-5.65 4.078-8.191 6.619-19.605 19.606-19.605 51.392 0 70.997 19.606 19.605 51.392 19.605 70.997 0 19.605-19.604 19.605-51.391 0-70.996zm-45.234-342.616c0-5.377 4.359-9.736 9.736-9.736 5.377 0 9.736 4.359 9.736 9.736v210.939c0 5.377-4.359 9.736-9.736 9.736-5.377 0-9.736-4.359-9.736-9.736v-210.939zm28.199 396.578c-10.197 10.197-26.729 10.197-36.926 0-10.197-10.197-10.197-26.729 0-36.926 10.197-10.197 26.729-10.197 36.926 0 10.197 10.196 10.197 26.729 0 36.926z"/></g><g fill="#773233"><path d="M1296.959 84.249c.695-.651.484-1.183-.468-1.183h-18.607c-.952 0-1.731-.779-1.731-1.731v-14.833c0-.952.779-1.731 1.731-1.731h18.944c.952 0 1.177-.548.501-1.218 0 0-7.189-13.75-23.88-13.75-13.088 0-20.579 10.61-20.579 23.699s7.491 23.699 20.579 23.699c16.692.001 23.51-12.952 23.51-12.952z"/><path d="M1096.718 86.125c.903-.903 1.684-1.882 2.353-2.911h173.4v-19.421h-173.399c-.669-1.03-1.45-2.009-2.354-2.913-6.971-6.971-18.273-6.971-25.245 0-6.971 6.971-6.971 18.273 0 25.245 6.971 6.971 18.274 6.971 25.245 0zm121.824-16.084c1.912 0 3.462 1.55 3.462 3.462 0 1.912-1.55 3.462-3.462 3.462h-75.003c-1.912 0-3.462-1.55-3.462-3.462 0-1.912 1.55-3.462 3.462-3.462h75.003zm-141.011 10.027c-3.626-3.626-3.626-9.504 0-13.13 3.626-3.626 9.504-3.626 13.13 0 3.626 3.626 3.626 9.504 0 13.13-3.626 3.625-9.505 3.625-13.13 0z"/></g><g fill="#773233"><path d="M281.596 584.276c.434-.406.302-.739-.292-.739h-11.614c-.594 0-1.08-.486-1.08-1.08v-9.258c0-.594.486-1.08 1.08-1.08h11.824c.594 0 .735-.342.313-.76 0 0-4.487-8.582-14.905-8.582-8.169 0-12.845 6.623-12.845 14.792s4.676 14.792 12.845 14.792c10.418 0 14.674-8.085 14.674-8.085z"/><path d="M156.611 585.447c.564-.564 1.051-1.174 1.469-1.817h108.23v-12.122h-108.23c-.418-.643-.905-1.254-1.469-1.818-4.351-4.351-11.406-4.351-15.757 0-4.351 4.351-4.351 11.406 0 15.757 4.352 4.351 11.406 4.351 15.757 0zm76.039-10.039c1.193 0 2.161.967 2.161 2.161 0 1.193-.967 2.161-2.161 2.161h-46.815c-1.193 0-2.161-.967-2.161-2.161 0-1.193.967-2.161 2.161-2.161h46.815zm-88.015 6.258c-2.263-2.263-2.263-5.932 0-8.195s5.932-2.263 8.195 0 2.263 5.932 0 8.195c-2.262 2.263-5.932 2.263-8.195 0z"/></g><g fill="#363637"><path d="M788.718 1261.259c.841.897 1.528.626 1.528-.604v-24.033c0-1.23 1.006-2.236 2.236-2.236h19.157c1.23 0 2.236 1.006 2.236 2.236v24.468c0 1.23.708 1.521 1.573.647 0 0 17.759-9.285 17.759-30.844 0-16.905-13.704-26.58-30.61-26.58s-30.61 9.675-30.61 26.58c.001 21.56 16.731 30.366 16.731 30.366z"/><path d="M786.295 1002.629c1.167 1.167 2.43 2.175 3.76 3.039v223.962h25.083v-223.961c1.331-.864 2.595-1.873 3.762-3.04 9.004-9.004 9.004-23.602 0-32.606-9.004-9.004-23.602-9.004-32.606 0-9.003 9.004-9.003 23.602.001 32.606zm20.774 157.346c0 2.469-2.002 4.471-4.471 4.471-2.469 0-4.471-2.002-4.471-4.471v-96.874c0-2.469 2.002-4.471 4.471-4.471 2.469 0 4.471 2.002 4.471 4.471v96.874zm-12.951-182.128c4.683-4.683 12.276-4.683 16.958 0 4.683 4.683 4.683 12.275 0 16.958-4.683 4.683-12.275 4.683-16.958 0-4.683-4.683-4.683-12.276 0-16.958z"/></g><g fill="#363637"><path d="M1125.664 1305.485c-.845.792-.589 1.44.569 1.44h22.642c1.158 0 2.106.948 2.106 2.106v18.049c0 1.158-.948 2.106-2.106 2.106h-23.052c-1.158 0-1.433.667-.61 1.482 0 0 8.748 16.732 29.059 16.732 15.927 0 25.042-12.911 25.042-28.839 0-15.927-9.115-28.839-25.042-28.839-20.31.001-28.608 15.763-28.608 15.763z"/><path d="M1369.329 1303.202c-1.099 1.099-2.049 2.29-2.863 3.543h-211.002v23.632h211.001c.814 1.254 1.764 2.445 2.864 3.544 8.483 8.483 22.236 8.483 30.719 0s8.483-22.236 0-30.719-22.236-8.483-30.719 0zm-148.242 19.571c-2.326 0-4.212-1.886-4.212-4.212s1.886-4.212 4.212-4.212h91.268c2.327 0 4.212 1.886 4.212 4.212s-1.886 4.212-4.212 4.212h-91.268zm171.59-12.2c4.412 4.412 4.412 11.565 0 15.977-4.412 4.412-11.565 4.412-15.977 0-4.412-4.412-4.412-11.565 0-15.977 4.412-4.412 11.565-4.412 15.977 0z"/></g><g fill="#363637"><path d="M38.19 995.021c-.501.469-.349.854.337.854h13.423c.687 0 1.249.562 1.249 1.249v10.699c0 .687-.562 1.249-1.249 1.249h-13.666c-.687 0-.849.395-.361.879 0 0 5.186 9.919 17.227 9.919 9.442 0 14.845-7.654 14.845-17.096s-5.404-17.096-14.845-17.096c-12.041-.002-16.96 9.343-16.96 9.343z"/><path d="M182.637 993.667c-.652.651-1.215 1.357-1.697 2.1h-125.084v14.009h125.084c.483.743 1.046 1.449 1.698 2.101 5.029 5.029 13.182 5.029 18.211 0 5.029-5.029 5.029-13.182 0-18.211-5.03-5.028-13.183-5.028-18.212.001zm-87.879 11.602c-1.379 0-2.497-1.118-2.497-2.497s1.118-2.497 2.497-2.497h54.105c1.379 0 2.497 1.118 2.497 2.497s-1.118 2.497-2.497 2.497h-54.105zm101.72-7.233c2.616 2.615 2.616 6.856 0 9.471-2.615 2.615-6.856 2.615-9.471 0s-2.615-6.856 0-9.471 6.856-2.615 9.471 0z"/></g><path fill="#454435" d="M1042.692 705.526c-2.02-.909-5.485-1.652-7.701-1.652h-15.341c-2.216 0-5.673.028-7.682.062-2.01.034-3.654.062-3.604.216l-.002.154c0 10.255-8.312 18.571-18.569 18.569-10.255 0-18.569-8.314-18.569-18.569.002-.154-.723-.216-1.608-.292l-5.688-.139-.041.002h-.006c-.001-.001-1.815-.002-4.03-.002h-64.276c-2.216 0-5.738.203-7.827.45l-.341.052c-1.763.276-10.022 2.037-13.448 2.777s-11.099 3.164-13.086 3.906c-1.988.742-8.994 3.544-10.969 4.828-1.973 1.285-8.831 5.835-10.821 7.236-1.992 1.403-5.885 4.605-8.653 7.119-2.768 2.514-6.97 7.275-6.97 7.275-1.466 1.661-3.581 4.586-4.698 6.499l-2.052 3.512c-1.118 1.913-2.818 5.113-3.778 7.11 0 0-4.107 8.542-4.836 10.66-.731 2.116-2.325 9.709-2.68 11.788-.355 2.08-1.371 12.571-.981 14.483.392 1.913 1.021 7.107 1.064 7.613.043.506 3.404.738 3.404.738 2.211.153 5.816.302 8.012.332s5.789-.195 7.983-.499c0 0 3.477-.482 3.627-1.869.149-1.385 1.241-7.398 1.642-10.011.399-2.612 1.972-7.339 2.414-8.368.442-1.026 1.948-4.716 2.939-5.9.991-1.184 6.25-8.393 8.68-10.36 2.43-1.964 6.06-4.522 8.068-5.681 2.008-1.162 6.989-4.101 8.458-4.489 1.466-.388 6.24-1.758 7.516-2.143 1.276-.385 5.625-1.2 6.798-1.377l.403-.06c1.421-.171 3.244 1.378 4.051 3.441l23.474 60.111c.827 2.056 2.705 5.095 4.174 6.755l3.693 2.55c2.072.785 5.58 1.477 7.795 1.536l17.297.467c2.215.06 5.749-.458 7.854-1.151l3.653-2.346c1.506-1.625 3.441-4.626 4.299-6.669 0 0 15.69-37.353 19.491-45.97 3.801-8.616 8.314-18.569 18.569-18.569 10.257-.002 16.923 14.892 16.923 14.892.905 2.022 1.646 3.688 1.647 3.702 0 .013.738.046 1.639.071.901.026 7.49.047 9.706.047h15.284c2.216 0 5.681-.744 7.701-1.652 2.02-.909 3.673-7.506 3.673-9.722v-41.739c0-2.218-1.654-8.815-3.674-9.724z"/><path fill="#454435" d="M949.128 818.297c-.109-4.039-3.503-7.343-7.543-7.343h-29.43c-4.04 0-7.434 3.304-7.543 7.343l-11.269 418.546c-.109 4.038 3.108 7.343 7.148 7.343h52.759c4.04 0 7.256-3.304 7.148-7.343l-11.27-418.546zm-14.2 381.006c0 4.45-3.608 8.058-8.058 8.058-4.45 0-8.058-3.608-8.058-8.058v-174.582c0-4.45 3.608-8.058 8.058-8.058 4.45 0 8.058 3.608 8.058 8.058v174.582z"/><path fill="#454435" d="M939.83 237.516c-.454-1.01-.826-2.742-.826-3.85v-7.671c0-1.108.014-2.837.031-3.841.017-1.005.031-1.827.108-1.802l.077-.001c5.128 0 9.286-4.156 9.285-9.285 0-5.128-4.157-9.285-9.285-9.285-.077.001-.108-.361-.146-.804-.038-.443-.069-2.833-.069-2.844l.001-.022v-.002l-.001-2.015v-32.139c0-1.108.101-2.869.225-3.913l.026-.17c.138-.881 1.018-5.011 1.389-6.724s1.582-5.549 1.953-6.543c.371-.994 1.772-4.497 2.414-5.484.643-.987 2.917-4.415 3.618-5.411.701-.996 2.302-2.943 3.559-4.327 1.257-1.384 3.637-3.485 3.637-3.485.831-.733 2.293-1.79 3.25-2.349l1.756-1.026c.957-.559 2.556-1.409 3.555-1.889 0 0 4.271-2.053 5.33-2.418 1.058-.365 4.854-1.163 5.894-1.34 1.04-.178 6.286-.686 7.242-.491.957.196 3.554.51 3.807.532l.369 1.702c.076 1.105.151 2.908.166 4.006s-.098 2.894-.25 3.992c0 0-.241 1.738-.934 1.814-.693.074-3.699.621-5.006.821-1.306.2-3.67.986-4.184 1.207-.513.221-2.358.974-2.95 1.469s-4.197 3.125-5.18 4.34c-.982 1.215-2.261 3.03-2.841 4.034-.581 1.004-2.05 3.494-2.245 4.229-.194.733-.879 3.12-1.072 3.758-.193.638-.6 2.813-.689 3.399l-.03.201c-.085.711.689 1.622 1.721 2.026l30.056 11.737c1.028.414 2.548 1.353 3.377 2.087l1.275 1.847c.393 1.036.738 2.79.768 3.897l.234 8.649c.03 1.108-.229 2.875-.575 3.927l-1.173 1.827c-.813.753-2.313 1.72-3.335 2.149 0 0-18.677 7.845-22.985 9.746s-9.285 4.157-9.285 9.285c-.001 5.129 7.446 8.462 7.446 8.462 1.011.453 1.844.823 1.851.823.007 0 .023.369.036.82.013.451.023 3.745.023 4.853v7.642c0 1.108-.372 2.841-.826 3.85-.454 1.01-3.753 1.837-4.861 1.837h-20.87c-1.108 0-4.406-.827-4.861-1.837z"/><path fill="#454435" d="M1205.494 196.368c2.019.054 3.671-1.554 3.671-3.574v-26.38c0-2.02-1.652-3.628-3.671-3.574l-209.277 5.635c-2.019.054-3.671 1.752-3.671 3.772v14.715c0 2.02 1.652 3.717 3.671 3.772l209.277 5.634zm-106.063-12.735c-2.225 0-4.029-1.804-4.029-4.029 0-2.225 1.804-4.029 4.029-4.029h87.293c2.225 0 4.029 1.804 4.029 4.029 0 2.225-1.804 4.029-4.029 4.029h-87.293z"/><path fill="#454435" d="M618.756 1283.808c.808-.364 2.194-.661 3.081-.661h6.138c.887 0 2.27.011 3.074.025.804.014 1.462.025 1.442.086l.001.062c0 4.103 3.325 7.43 7.429 7.429 4.103 0 7.429-3.326 7.429-7.429-.001-.062.289-.087.643-.117l2.276-.055.018.001h.001l1.612-.001h25.715c.886 0 2.296.081 3.131.18l.136.021c.705.11 4.01.815 5.38 1.111 1.37.296 4.44 1.266 5.236 1.562s3.598 1.418 4.388 1.932c.789.514 3.533 2.334 4.329 2.895.797.561 2.355 1.842 3.462 2.848 1.107 1.006 2.788 2.91 2.788 2.91.587.665 1.432 1.835 1.88 2.6l.821 1.405c.447.765 1.127 2.045 1.511 2.844 0 0 1.643 3.418 1.935 4.265.292.847.93 3.884 1.072 4.716.142.832.549 5.029.393 5.794-.157.765-.408 2.844-.426 3.046-.017.202-1.362.295-1.362.295-.884.061-2.327.121-3.205.133-.879.012-2.316-.078-3.194-.2 0 0-1.391-.193-1.451-.748-.06-.554-.497-2.959-.657-4.005-.16-1.045-.789-2.936-.966-3.348-.177-.41-.779-1.887-1.176-2.36-.396-.474-2.5-3.358-3.473-4.145-.972-.786-2.424-1.809-3.228-2.273-.803-.465-2.796-1.641-3.384-1.796-.587-.155-2.497-.703-3.007-.857-.51-.154-2.251-.48-2.72-.551l-.161-.024c-.568-.068-1.298.551-1.621 1.377l-9.391 24.049c-.331.822-1.082 2.039-1.67 2.702l-1.477 1.02c-.829.314-2.232.591-3.118.615l-6.92.187c-.886.024-2.3-.183-3.142-.46l-1.462-.939c-.603-.65-1.377-1.851-1.72-2.668 0 0-6.277-14.944-7.798-18.391-1.521-3.447-3.326-7.429-7.429-7.429-4.104-.001-6.771 5.958-6.771 5.958l-.659 1.481-.656.029c-.36.01-2.996.019-3.883.019h-6.115c-.886 0-2.273-.297-3.081-.661-.808-.364-1.47-3.003-1.47-3.889v-16.699c.002-.888.664-3.527 1.472-3.891z"/><path fill="#454435" d="M651.68 1496.374c-.043 1.616 1.243 2.938 2.86 2.938h21.107c1.616 0 2.903-1.322 2.86-2.938l-4.508-167.449c-.043-1.616-1.402-2.938-3.018-2.938h-11.774c-1.616 0-2.974 1.322-3.018 2.938l-4.509 167.449zm10.19-84.864c0-1.78 1.443-3.224 3.224-3.224 1.78 0 3.224 1.443 3.224 3.224v69.845c0 1.78-1.443 3.224-3.224 3.224-1.78 0-3.224-1.443-3.224-3.224v-69.845z"/><path fill="#773233" d="M36.631 172.173c.453-.204 1.229-.37 1.726-.37h3.438c.497 0 1.271.006 1.721.014.45.008.819.014.808.048v.034c0 2.298 1.863 4.161 4.161 4.161 2.298 0 4.161-1.863 4.161-4.161 0-.034.162-.048.36-.066.198-.017 1.27-.031 1.275-.031h15.317c.497 0 1.286.045 1.754.101l.076.012c.395.062 2.246.456 3.013.622.768.166 2.487.709 2.932.875.445.166 2.015.794 2.458 1.082.442.288 1.979 1.307 2.425 1.621.446.314 1.319 1.032 1.939 1.595l1.562 1.63c.329.372.802 1.028 1.053 1.456l.46.787c.25.429.631 1.146.847 1.593 0 0 .92 1.914 1.084 2.389.164.474.521 2.175.601 2.641.08.466.307 2.817.22 3.245-.088.429-.229 1.593-.238 1.706-.01.113-.763.165-.763.165-.495.034-1.303.068-1.795.074-.492.007-1.297-.044-1.789-.112 0 0-.779-.108-.813-.419-.033-.31-.278-1.658-.368-2.243-.09-.585-.442-1.644-.541-1.875-.099-.23-.437-1.057-.659-1.322-.222-.265-1.4-1.881-1.945-2.321-.544-.44-1.358-1.013-1.808-1.273-.45-.26-1.566-.919-1.895-1.006-.329-.087-1.398-.394-1.684-.48-.286-.086-1.261-.269-1.523-.309l-.09-.014c-.318-.038-.727.309-.908.771l-5.26 13.469c-.185.461-.606 1.142-.935 1.514l-.828.571c-.464.176-1.25.331-1.747.344l-3.876.105c-.496.013-1.288-.103-1.76-.258l-.819-.526c-.338-.364-.771-1.037-.963-1.494 0 0-3.516-8.37-4.368-10.301-.852-1.931-1.863-4.161-4.161-4.161-2.298 0-3.792 3.337-3.792 3.337l-.369.829-.367.016c-.202.006-1.678.01-2.175.01h-3.425c-.497 0-1.273-.167-1.726-.37-.453-.204-.823-1.682-.823-2.178v-9.353c-.001-.492.369-1.97.822-2.174z"/><path fill="#773233" d="M55.071 291.229c-.024.905.696 1.645 1.602 1.645h11.822c.905 0 1.626-.74 1.602-1.645l-2.525-93.786c-.024-.905-.785-1.645-1.69-1.645h-6.595c-.905 0-1.666.74-1.69 1.645l-2.526 93.786zm5.707-47.532c0-.997.808-1.806 1.806-1.806.997 0 1.806.808 1.806 1.806v39.12c0 .997-.808 1.806-1.806 1.806-.997 0-1.806-.808-1.806-1.806v-39.12z"/><path fill="#363637" d="M478.734 531.375c.407-.904.739-2.454.739-3.446v-6.864c0-.991-.012-2.538-.028-3.437-.015-.899-.028-1.635-.096-1.613l-.069-.001c-4.589 0-8.309-3.719-8.309-8.309 0-4.589 3.72-8.309 8.309-8.309.069.001.097-.323.131-.72.034-.396.062-2.535.062-2.545l-.001-.02v-.001l.001-1.802v-28.761c0-.991-.091-2.567-.201-3.502l-.023-.152c-.123-.789-.911-4.484-1.243-6.017-.331-1.533-1.416-4.966-1.748-5.855-.332-.889-1.586-4.024-2.16-4.908-.575-.883-2.611-3.951-3.238-4.842-.628-.892-2.06-2.633-3.185-3.872-1.125-1.238-3.255-3.118-3.255-3.118-.743-.656-2.052-1.602-2.908-2.102l-1.572-.918c-.856-.5-2.288-1.261-3.181-1.69 0 0-3.822-1.837-4.77-2.164-.947-.327-4.344-1.04-5.275-1.199-.931-.159-5.625-.613-6.48-.439-.856.175-3.18.457-3.406.476-.226.019-.33 1.523-.33 1.523-.068.989-.135 2.602-.148 3.585-.013.983.087 2.59.223 3.572 0 0 .216 1.556.836 1.623.62.067 3.31.555 4.479.735 1.169.179 3.284.882 3.744 1.08.459.198 2.11.872 2.64 1.315s3.755 2.796 4.636 3.884c.879 1.087 2.023 2.711 2.542 3.61.52.899 1.835 3.127 2.009 3.784.174.656.787 2.792.959 3.363.172.571.537 2.517.616 3.042l.027.18c.076.636-.616 1.452-1.54 1.813l-26.896 10.503c-.92.37-2.28 1.211-3.022 1.868l-1.141 1.652c-.351.927-.661 2.497-.687 3.488l-.209 7.739c-.027.991.205 2.573.515 3.514l1.05 1.635c.727.674 2.07 1.539 2.984 1.923 0 0 16.713 7.02 20.569 8.721 3.855 1.701 8.309 3.72 8.309 8.309.001 4.589-6.663 7.572-6.663 7.572-.905.405-1.65.737-1.656.737-.006 0-.02.33-.032.733-.012.403-.021 3.351-.021 4.343v6.839c0 .991.333 2.542.739 3.446.407.904 3.358 1.644 4.35 1.644h18.676c.99-.001 3.941-.741 4.348-1.645z"/><path fill="#363637" d="M428.276 489.511c1.807-.049 3.285-1.567 3.285-3.375v-13.168c0-1.808-1.478-3.326-3.285-3.375l-187.274-5.042c-1.807-.049-3.285 1.391-3.285 3.198v23.607c0 1.808 1.478 3.247 3.285 3.198l187.274-5.043zm-170.478-6.354c-1.991 0-3.605-1.614-3.605-3.605 0-1.991 1.614-3.605 3.605-3.605h78.115c1.991 0 3.605 1.614 3.605 3.605 0 1.991-1.614 3.605-3.605 3.605h-78.115z"/><path fill="#773233" d="M48.629 59.424l-65.423 65.421c18.312 14.123 44.68 12.833 61.468-3.954 16.787-16.787 18.077-43.156 3.955-61.467zm-69.988-4.566c-16.787 16.787-18.077 43.155-3.955 61.467l65.423-65.421c-18.312-14.123-44.68-12.833-61.468 3.954z"/><path fill="#454435" d="M994.107 1307.056l-51.755 51.754c14.486 11.173 35.346 10.152 48.627-3.128 13.28-13.281 14.301-34.14 3.128-48.626zm-55.366-3.612c-13.28 13.28-14.301 34.14-3.129 48.626l51.755-51.754c-14.486-11.173-35.346-10.152-48.626 3.128z"/><path fill="#773233" d="M1548.628 59.424l-65.423 65.421c18.312 14.123 44.681 12.833 61.468-3.954 16.788-16.787 18.078-43.156 3.955-61.467zm-69.987-4.566c-16.787 16.787-18.077 43.155-3.955 61.467l65.423-65.421c-18.312-14.123-44.681-12.833-61.468 3.954z"/><path fill="#363637" d="M1005.447 12.103l-41.561 41.56c11.633 8.972 28.384 8.152 39.049-2.512 10.664-10.664 11.484-27.415 2.512-39.048zm-44.461-2.9c-10.664 10.664-11.484 27.415-2.512 39.048l41.561-41.56c-11.633-8.972-28.384-8.153-39.049 2.512z"/><path fill="#773233" d="M1162.14 1044.282l-118.42-118.423c-25.565 33.146-23.229 80.877 7.158 111.264s78.117 32.722 111.262 7.159zm8.265-126.686c-30.387-30.387-78.116-32.722-111.262-7.158l118.42 118.422c25.564-33.146 23.229-80.876-7.158-111.264z"/><path fill="#454435" d="M791.881 510.951l55.342-55.341c-15.49-11.947-37.796-10.856-51.996 3.345-14.201 14.201-15.292 36.506-3.346 51.996zm59.204 3.862c14.201-14.2 15.292-36.506 3.345-51.996l-55.342 55.34c15.49 11.948 37.796 10.857 51.997-3.344z"/><path fill="#363637" d="M226.319 707.851l-56.586-46.775c-9.784 15.525-6.787 36.258 7.733 48.261 14.52 12.001 35.447 11.043 48.853-1.486zm-1.642-55.63c-14.52-12.002-35.447-11.044-48.853 1.486l56.586 46.775c9.784-15.525 6.788-36.258-7.733-48.261z"/><path fill="#454435" d="M1458.385 223.808c-9.495 0-17.192 7.697-17.192 17.192 0 9.495 7.697 17.192 17.192 17.192 9.495 0 17.192-7.697 17.192-17.192 0-9.495-7.697-17.192-17.192-17.192zm11.785 19.188c0 .122-.1.222-.222.222h-9.123c-.122 0-.222.1-.222.222v9.123c0 .122-.1.222-.222.222h-3.993c-.122 0-.222-.1-.222-.222v-9.123c0-.122-.1-.222-.222-.222h-9.123c-.122 0-.222-.1-.222-.222v-3.993c0-.122.1-.222.222-.222h9.123c.122 0 .222-.1.222-.222v-9.123c0-.122.1-.222.222-.222h3.993c.122 0 .222.1.222.222v9.123c0 .122.1.222.222.222h9.123c.122 0 .222.1.222.222v3.993z"/><path fill="#773233" d="M1072.623 342.457c-14.465 0-26.191 11.726-26.191 26.191 0 14.465 11.726 26.191 26.191 26.191 14.465 0 26.191-11.726 26.191-26.191 0-14.465-11.726-26.191-26.191-26.191zm17.953 29.232c0 .186-.152.338-.338.338h-13.898c-.186 0-.338.152-.338.338v13.898c0 .186-.152.338-.338.338h-6.083c-.186 0-.338-.152-.338-.338v-13.898c0-.186-.152-.338-.338-.338h-13.898c-.186 0-.338-.152-.338-.338v-6.083c0-.186.152-.338.338-.338h13.898c.186 0 .338-.152.338-.338v-13.898c0-.186.152-.338.338-.338h6.083c.186 0 .338.152.338.338v13.898c0 .186.152.338.338.338h13.898c.186 0 .338.152.338.338v6.083z"/><path fill="#544427" d="M1155.619 1183.415c-13.637 0-24.691 11.055-24.691 24.691 0 13.637 11.055 24.691 24.691 24.691 13.637 0 24.691-11.055 24.691-24.691 0-13.637-11.055-24.691-24.691-24.691zm16.925 27.558c0 .175-.143.319-.319.319h-13.102c-.175 0-.319.143-.319.319v13.102c0 .175-.143.319-.318.319h-5.735c-.175 0-.319-.143-.319-.319v-13.102c0-.175-.143-.319-.319-.319h-13.102c-.175 0-.318-.143-.318-.319v-5.735c0-.175.143-.319.318-.319h13.102c.175 0 .319-.143.319-.319v-13.102c0-.175.143-.319.319-.319h5.735c.175 0 .318.144.318.319v13.102c0 .175.144.319.319.319h13.102c.175 0 .319.143.319.319v5.735z"/><path fill="#544427" d="M1208.34 635.996c-20.318-20.318-53.259-20.318-73.577 0-20.318 20.318-20.318 53.259 0 73.576 20.318 20.318 53.259 20.318 73.576 0 20.318-20.317 20.319-53.258.001-73.576zm-15.843 66.278c-.261.261-.688.261-.949 0l-19.521-19.521c-.261-.261-.688-.261-.949 0l-19.521 19.521c-.261.261-.688.261-.949 0l-8.544-8.544c-.261-.261-.261-.688 0-.949l19.521-19.521c.261-.261.261-.688 0-.949l-19.522-19.522c-.261-.261-.261-.688 0-.949l8.544-8.544c.261-.261.689-.261.949 0l19.522 19.522c.261.261.688.261.949 0l19.521-19.521c.261-.261.688-.261.949 0l8.544 8.544c.261.261.261.688 0 .949l-19.521 19.521c-.261.261-.261.688 0 .949l19.521 19.521c.261.261.261.688 0 .949l-8.544 8.544z"/><path fill="#544427" d="M536.009 1445.745c0-14.594-11.831-26.425-26.425-26.425-14.594 0-26.425 11.831-26.425 26.425 0 14.594 11.831 26.425 26.425 26.425 14.594 0 26.425-11.831 26.425-26.425zm-29.494 18.114c-.188 0-.341-.153-.341-.341v-14.022c0-.188-.153-.341-.341-.341h-14.022c-.188 0-.341-.153-.341-.341v-6.137c0-.188.154-.341.341-.341h14.022c.188 0 .341-.153.341-.341v-14.022c0-.188.154-.341.341-.341h6.137c.188 0 .341.153.341.341v14.022c0 .188.153.341.341.341h14.022c.188 0 .341.153.341.341v6.137c0 .188-.154.341-.341.341h-14.022c-.188 0-.341.154-.341.341v14.022c0 .188-.154.341-.341.341h-6.137z"/><path fill="#363637" d="M771.497 1382.749c0-11.28-9.145-20.425-20.425-20.425-11.28 0-20.425 9.145-20.425 20.425 0 11.281 9.145 20.425 20.425 20.425 11.28 0 20.425-9.145 20.425-20.425zm-22.797 14.001c-.145 0-.264-.119-.264-.264v-10.838c0-.145-.119-.264-.263-.264h-10.838c-.145 0-.264-.119-.264-.264v-4.744c0-.145.119-.264.264-.264h10.838c.145 0 .263-.119.263-.264v-10.839c0-.145.119-.264.264-.264h4.744c.145 0 .264.119.264.264v10.839c0 .145.119.264.263.264h10.839c.145 0 .264.119.264.264v4.744c0 .145-.119.264-.264.264h-10.839c-.145 0-.263.119-.263.264v10.838c0 .145-.119.264-.264.264h-4.744z"/><path fill="#773233" d="M503.983 147.687c-22.707 0-41.114 18.407-41.114 41.114 0 22.707 18.407 41.114 41.114 41.114 22.707 0 41.114-18.407 41.114-41.114 0-22.707-18.407-41.114-41.114-41.114zm28.183 45.888c0 .292-.239.531-.53.531h-21.817c-.292 0-.531.239-.531.53v21.817c0 .292-.239.531-.53.531h-9.549c-.292 0-.53-.239-.53-.531v-21.817c0-.292-.239-.53-.53-.53h-21.819c-.292 0-.53-.239-.53-.531v-9.549c0-.292.239-.531.53-.531h21.817c.292 0 .53-.239.53-.53v-21.817c0-.292.239-.531.53-.531h9.549c.292 0 .53.239.53.531v21.817c0 .292.239.53.531.53h21.817c.292 0 .53.239.53.531v9.549z"/><path fill="#544427" d="M516.722 574.485c-37.727 0-68.312 30.584-68.312 68.312 0 37.727 30.584 68.312 68.312 68.312 37.728 0 68.312-30.584 68.312-68.312 0-37.728-30.584-68.312-68.312-68.312zm46.826 76.244c0 .485-.397.882-.881.882h-36.249c-.485 0-.882.397-.882.881v36.249c0 .485-.397.882-.881.882h-15.866c-.485 0-.881-.397-.881-.882v-36.249c0-.485-.397-.881-.881-.881h-36.249c-.484 0-.881-.397-.881-.882v-15.866c0-.485.397-.882.881-.882h36.249c.485 0 .881-.396.881-.881v-36.249c0-.485.397-.882.881-.882h15.866c.485 0 .881.397.881.882v36.249c0 .485.397.881.882.881h36.249c.485 0 .881.397.881.882v15.866z"/><path fill="#363637" d="M1420.677 1002.463c-23.645 0-42.813 19.168-42.813 42.813 0 23.645 19.168 42.813 42.813 42.813 23.645 0 42.813-19.168 42.813-42.813 0-23.645-19.168-42.813-42.813-42.813zm29.347 47.784c0 .304-.248.553-.552.553h-22.718c-.304 0-.553.249-.553.552v22.718c0 .304-.249.553-.552.553h-9.944c-.304 0-.552-.249-.552-.553v-22.718c0-.304-.249-.552-.552-.552h-22.719c-.304 0-.552-.249-.552-.553v-9.943c0-.304.249-.553.552-.553h22.719c.304 0 .552-.248.552-.552v-22.718c0-.304.249-.553.552-.553h9.944c.304 0 .552.249.552.553v22.718c0 .304.249.552.553.552h22.718c.304 0 .552.249.552.553v9.943z"/><path fill="#773233" d="M383.558-74.07c-35.532-35.532-93.14-35.532-128.672 0s-35.532 93.14 0 128.672 93.14 35.532 128.672 0c35.531-35.531 35.532-93.14 0-128.672zm-27.706 115.909c-.457.457-1.204.457-1.66 0l-34.14-34.139c-.457-.457-1.204-.457-1.66 0l-34.139 34.139c-.457.457-1.204.457-1.66 0l-14.943-14.943c-.457-.457-.456-1.204 0-1.66l34.139-34.139c.457-.457.457-1.204 0-1.66l-34.14-34.14c-.456-.456-.456-1.204 0-1.66l14.942-14.942c.457-.457 1.204-.457 1.66 0l34.14 34.14c.457.457 1.204.457 1.66 0l34.139-34.139c.457-.457 1.204-.457 1.66 0l14.943 14.943c.457.457.456 1.204 0 1.66l-34.139 34.139c-.457.457-.456 1.204 0 1.66l34.139 34.139c.457.457.456 1.204 0 1.66l-14.941 14.942z"/><path fill="#544427" d="M679.751 1000.404c-.997 0-2.22-.706-2.718-1.57l-14.213-24.618c-.498-.863-.498-2.276 0-3.139l14.213-24.618c.498-.863 1.722-1.57 2.718-1.57h28.426c.997 0 2.22.706 2.718 1.57l14.213 24.618c.498.863.498 2.276 0 3.139l-14.213 24.618c-.498.863-1.722 1.57-2.718 1.57h-28.426z"/><path fill="#454435" d="M369.32 1214.583c0-.957.678-2.132 1.507-2.611l23.644-13.651c.829-.479 2.186-.479 3.015 0l23.644 13.651c.829.479 1.507 1.654 1.507 2.611v27.302c0 .957-.678 2.132-1.507 2.611l-23.644 13.651c-.829.479-2.186.479-3.015 0l-23.644-13.651c-.829-.479-1.507-1.654-1.507-2.611v-27.302z"/><path fill="#363637" d="M1272.819 194.16c-.534 0-1.19-.378-1.457-.841l-7.617-13.192c-.267-.463-.267-1.22 0-1.682l7.617-13.192c.267-.463.923-.841 1.457-.841h15.233c.534 0 1.19.378 1.457.841l7.617 13.192c.267.463.267 1.22 0 1.682l-7.617 13.192c-.267.463-.923.841-1.457.841h-15.233z"/><path fill="#544427" d="M132.405 236.317c0-2.302 1.883-4.185 4.185-4.185h62.008c2.302 0 4.185 1.883 4.185 4.185v8.915c0 2.302-1.883 4.185-4.185 4.185h-62.008c-2.302 0-4.185-1.883-4.185-4.185v-8.915z"/><path fill="#544427" d="M176.237 149.406h-17.286v7.41h17.286v-7.41zm-13.101 91.986h8.915c2.302 0 4.185-1.883 4.185-4.185v-50.759h-17.286v50.759c.001 2.302 1.884 4.185 4.186 4.185zm13.101-79.639h-17.286v7.41h17.286v-7.41zm0-223.001c0-2.302-.927-5.825-2.059-7.83l-3.905-6.911c-1.132-2.004-3.088-2.066-4.346-.138l-4.689 7.188c-1.258 1.928-2.287 5.389-2.287 7.691v205.718h17.286v-205.718zm0 235.348h-17.286v7.41h17.286v-7.41z"/><path fill="#363637" d="M557.622 1379.569c-2.302 0-4.185-1.883-4.185-4.185v-62.008c0-2.302 1.883-4.185 4.185-4.185h8.915c2.302 0 4.185 1.883 4.185 4.185v62.008c0 2.302-1.883 4.185-4.185 4.185h-8.915z"/><path fill="#363637" d="M470.711 1335.737v17.286h7.41v-17.286h-7.41zm91.985 13.101v-8.915c0-2.302-1.883-4.185-4.185-4.185h-50.759v17.286h50.759c2.302-.001 4.185-1.884 4.185-4.186zm-79.638-13.101v17.286h7.41v-17.286h-7.41zm-223.001 0c-2.302 0-5.825.927-7.83 2.059l-6.911 3.905c-2.004 1.132-2.066 3.088-.138 4.346l7.188 4.689c1.928 1.258 5.389 2.287 7.691 2.287h205.718v-17.286h-205.718zm235.348 0v17.286h7.41v-17.286h-7.41z"/><path fill="#773233" d="M32.91 822.512c0-2.755 2.254-5.009 5.009-5.009h74.202c2.755 0 5.009 2.254 5.009 5.009v10.668c0 2.755-2.254 5.009-5.009 5.009h-74.202c-2.755 0-5.009-2.254-5.009-5.009v-10.668z"/><path fill="#773233" d="M85.362 718.509h-20.686v8.867h20.685v-8.867zm-15.677 110.075h10.668c2.755 0 5.009-2.254 5.009-5.009v-60.742h-20.686v60.742c0 2.755 2.254 5.009 5.009 5.009zm15.677-95.3h-20.686v8.867h20.685v-8.867zm0-266.855c0-2.755-1.109-6.971-2.464-9.369l-4.673-8.27c-1.355-2.398-3.695-2.473-5.2-.166l-5.612 8.601c-1.505 2.307-2.736 6.449-2.736 9.204v246.173h20.685v-246.173zm0 281.63h-20.686v8.868h20.685v-8.868z"/><path fill="#363637" d="M1220.839 852.938c-1.434 0-2.607-1.173-2.607-2.607v-38.619c0-1.434 1.173-2.607 2.607-2.607h5.552c1.434 0 2.607 1.173 2.607 2.607v38.619c0 1.434-1.173 2.607-2.607 2.607h-5.552z"/><path fill="#363637" d="M1166.711 825.639v10.766h4.615v-10.766h-4.615zm57.288 8.16v-5.552c0-1.434-1.173-2.607-2.607-2.607h-31.613v10.766h31.613c1.434-.001 2.607-1.174 2.607-2.607zm-49.599-8.16v10.766h4.615v-10.766h-4.615zm-138.885 0c-1.434 0-3.628.577-4.876 1.282l-4.304 2.432c-1.248.705-1.287 1.923-.086 2.707l4.476 2.921c1.201.783 3.356 1.424 4.79 1.424h128.122v-10.766h-128.122zm146.575 0v10.766h4.615v-10.766h-4.615z"/><path fill="#773233" d="M1088.731 1133.497c0 1.814-1.484 3.298-3.298 3.298h-48.862c-1.814 0-3.298-1.484-3.298-3.298v-7.025c0-1.814 1.484-3.298 3.298-3.298h48.862c1.814 0 3.298 1.484 3.298 3.298v7.025z"/><path fill="#773233" d="M1054.191 1201.983h13.622v-5.839h-13.622v5.839zm10.324-72.485h-7.025c-1.814 0-3.298 1.484-3.298 3.298v39.999h13.622v-39.999c-.001-1.814-1.485-3.298-3.299-3.298zm-10.324 62.756h13.622v-5.839h-13.622v5.839zm0 175.726c0 1.814.73 4.59 1.623 6.17l3.077 5.446c.892 1.579 2.433 1.628 3.425.109l3.695-5.664c.991-1.519 1.802-4.246 1.802-6.061v-162.106h-13.622v162.106zm0-185.455h13.622v-5.839h-13.622v5.839z"/><path fill="#773233" d="M777.062 587.487c2.116 0 3.847 1.731 3.847 3.847v56.996c0 2.116-1.731 3.847-3.847 3.847h-8.195c-2.116 0-3.847-1.731-3.847-3.847v-56.996c0-2.116 1.731-3.847 3.847-3.847h8.195z"/><path fill="#773233" d="M856.949 627.777v-15.889h-6.811v15.889h6.811zm-84.552-12.042v8.195c0 2.116 1.731 3.847 3.847 3.847h46.657v-15.889h-46.657c-2.116 0-3.847 1.731-3.847 3.847zm73.203 12.042v-15.889h-6.811v15.889h6.811zm204.979 0c2.116 0 5.355-.852 7.197-1.893l6.352-3.59c1.842-1.041 1.899-2.839.127-3.995l-6.607-4.31c-1.772-1.156-4.953-2.102-7.07-2.102h-189.092v15.889h189.093zm-216.328 0v-15.889h-6.811v15.889h6.811z"/><path fill="#363637" d="M579.455 285.725c0 .424-.326.889-.724 1.033l-19.732 7.175c-.398.145-1.07.263-1.494.263h-12.899c-.424 0-1.092-.129-1.485-.286l-17.825-7.13c-.393-.157-.715-.633-.715-1.056v-8.087c0-.424.347-.77.77-.77h53.335c.424 0 .77.347.77.77v8.088z"/><path fill="#363637" d="M567.903 337.519"/><path fill="#363637" d="M545.279 390.376l13.478-8.169v-6.089l-13.478 8.168v6.09zm0-10.59l13.478-8.168v-6.088l-13.478 8.168v6.088zm0-10.589l13.478-8.168v-6.089l-13.478 8.169v6.088zm0 31.769l13.478-8.168v-6.089l-13.478 8.169v6.088zm0 21.179l13.478-8.168v-6.088l-13.478 8.168v6.088zm0-10.589l13.478-8.168v-6.088l-13.478 8.168v6.088zm0 105.9l13.478-8.168v-6.088l-13.478 8.17v6.086zm0-190.619l13.478-8.169v-6.089l-13.478 8.168v6.09zm0 31.77l13.478-8.169v-6.089l-13.478 8.168v6.09zm0-10.591l13.478-8.168v-6.088l-13.478 8.168v6.088zm0-10.589l13.478-8.168v-6.089l-13.478 8.169v6.088zm0 169.436l13.478-8.17v-6.086l-13.478 8.168v6.088zm0-52.946l13.478-8.168v-6.088l-13.478 8.17v6.086zm0 10.589l13.478-8.168v-6.088l-13.478 8.168v6.088zm12.708-181.38h-11.938c-.424 0-.77.346-.77.77v32.35l13.478-8.168v-24.182c0-.423-.346-.77-.77-.77zm-12.708 149.608l13.478-8.168v-6.088l-13.478 8.168v6.088zm0 89.339c0 .424.17 1.072.379 1.441l5.498 9.73c.208.369.568.38.8.026l6.381-9.781c.231-.355.421-.992.421-1.415v-8.283l-13.478 8.168v.114zm0-78.75l13.478-8.17v-6.086l-13.478 8.168v6.088zm0 52.95l13.478-8.168v-6.088l-13.478 8.168v6.088zm0-10.589l13.478-8.168v-6.088l-13.478 8.168v6.088zm0-10.589l13.478-8.168v-6.088l-13.478 8.168v6.088z"/><path fill="#773233" d="M851.889 907.358c-.362 0-.759-.278-.882-.618l-6.127-16.849c-.124-.34-.225-.914-.225-1.276v-11.015c0-.362.11-.932.244-1.268l6.088-15.221c.134-.336.54-.611.902-.611h6.905c.362 0 .658.296.658.658v45.542c0 .362-.296.658-.658.658h-6.905z"/><path fill="#773233" d="M807.662 897.493"/><path fill="#773233" d="M762.527 878.175l6.975 11.509h5.199l-6.975-11.509h-5.199zm9.044 0l6.974 11.509h5.199l-6.975-11.509h-5.198zm9.042 0l6.974 11.509h5.2l-6.975-11.509h-5.199zm-27.128 0l6.974 11.509h5.2l-6.975-11.509h-5.199zm-18.085 0l6.974 11.509h5.199l-6.975-11.509h-5.198zm9.043 0l6.974 11.509h5.199l-6.975-11.509h-5.198zm-90.429 0l6.974 11.509h5.199l-6.976-11.509h-5.197zm162.77 0l6.975 11.509h5.199l-6.975-11.509h-5.199zm-27.128 0l6.975 11.509h5.199l-6.975-11.509h-5.199zm9.043 0l6.974 11.509h5.199l-6.975-11.509h-5.198zm9.042 0l6.974 11.509h5.2l-6.975-11.509h-5.199zm-144.681 0l6.976 11.509h5.197l-6.975-11.509h-5.198zm45.21 0l6.974 11.509h5.199l-6.976-11.509h-5.197zm-9.042 0l6.974 11.509h5.198l-6.975-11.509h-5.197zm154.88 10.851v-10.193c0-.362-.296-.658-.658-.658h-27.624l6.974 11.509h20.649c.363 0 .659-.296.659-.658zm-127.75-10.851l6.974 11.509h5.199l-6.975-11.509h-5.198zm-76.286 0c-.362 0-.915.146-1.23.324l-8.308 4.695c-.315.178-.325.485-.022.683l8.352 5.449c.303.198.847.359 1.208.359h7.073l-6.975-11.509h-.098zm67.244 0l6.976 11.509h5.197l-6.975-11.509h-5.198zm-45.214 0l6.974 11.509h5.199l-6.975-11.509h-5.198zm9.042 0l6.974 11.509h5.199l-6.975-11.509h-5.198zm9.042 0l6.974 11.509h5.198l-6.975-11.509h-5.197z"/><path fill="#544427" d="M504.082 1200.999c.382 0 .802.294.932.653l6.472 17.798c.131.359.237.965.237 1.348v11.635c0 .382-.116.985-.258 1.34l-6.431 16.078c-.142.355-.571.645-.953.645h-7.294c-.382 0-.695-.313-.695-.695v-48.107c0-.382.313-.695.695-.695h7.295z"/><path fill="#544427" d="M550.799 1211.42"/><path fill="#544427" d="M598.476 1231.826l-7.368-12.157h-5.492l7.367 12.157h5.493zm-9.553 0l-7.367-12.157h-5.491l7.367 12.157h5.491zm-9.551 0l-7.367-12.157h-5.492l7.368 12.157h5.491zm28.656 0l-7.367-12.157h-5.492l7.368 12.157h5.491zm19.102 0l-7.367-12.157h-5.491l7.367 12.157h5.491zm-9.551 0l-7.367-12.157h-5.491l7.367 12.157h5.491zm95.521 0l-7.367-12.157h-5.492l7.369 12.157h5.49zm-171.936 0l-7.368-12.157h-5.492l7.367 12.157h5.493zm28.656 0l-7.368-12.157h-5.492l7.367 12.157h5.493zm-9.553 0l-7.367-12.157h-5.491l7.367 12.157h5.491zm-9.551 0l-7.367-12.157h-5.492l7.368 12.157h5.491zm152.829 0l-7.369-12.157h-5.49l7.367 12.157h5.492zm-47.757 0l-7.367-12.157h-5.492l7.369 12.157h5.49zm9.551 0l-7.367-12.157h-5.491l7.367 12.157h5.491zm-163.601-11.462v10.767c0 .382.312.695.695.695h29.179l-7.367-12.157h-21.812c-.383 0-.695.312-.695.695zm134.944 11.462l-7.367-12.157h-5.491l7.367 12.157h5.491zm80.582 0c.382 0 .967-.154 1.3-.342l8.776-4.959c.333-.188.343-.513.023-.721l-8.822-5.755c-.32-.209-.895-.38-1.277-.38h-7.471l7.367 12.157h.104zm-71.031 0l-7.369-12.157h-5.49l7.367 12.157h5.492zm47.76 0l-7.367-12.157h-5.491l7.367 12.157h5.491zm-9.551 0l-7.367-12.157h-5.491l7.367 12.157h5.491zm-9.551 0l-7.367-12.157h-5.491l7.367 12.157h5.491z"/><path fill="#544427" d="M-201.795 872.523c.839 0 1.76.645 2.046 1.433l14.21 39.077c.287.788.521 2.12.521 2.959v25.545c0 .839-.255 2.162-.566 2.941l-14.119 35.3c-.312.779-1.253 1.416-2.092 1.416h-16.015c-.839 0-1.525-.686-1.525-1.525v-105.621c0-.839.686-1.525 1.525-1.525h16.015z"/><path fill="#544427" d="M-99.225 895.401"/><path fill="#544427" d="M5.45 940.204l-16.177-26.691h-12.057l16.176 26.691h12.058zm-20.973 0l-16.175-26.691h-12.056l16.176 26.691h12.055zm-20.97 0l-16.175-26.691h-12.059l16.177 26.691h12.057zm62.915 0l-16.175-26.691h-12.059l16.177 26.691h12.057zm41.94 0l-16.175-26.691h-12.056l16.176 26.691h12.055zm-20.97 0l-16.175-26.691h-12.056l16.176 26.691h12.055zm209.72 0l-16.175-26.691h-12.057l16.179 26.691h12.053zm-377.492 0l-16.177-26.691h-12.057l16.176 26.691h12.058zm62.915 0l-16.177-26.691h-12.057l16.176 26.691h12.058zm-20.973 0l-16.175-26.691h-12.056l16.176 26.691h12.055zm-20.97 0l-16.175-26.691h-12.059l16.177 26.691h12.057zm335.542 0l-16.179-26.691h-12.053l16.176 26.691h12.056zm-104.852 0l-16.175-26.691h-12.057l16.179 26.691h12.053zm20.97 0l-16.175-26.691h-12.056l16.176 26.691h12.055zm-359.194-25.166v23.641c0 .839.686 1.525 1.525 1.525h64.064l-16.175-26.691h-47.889c-.839 0-1.525.686-1.525 1.525zm296.275 25.166l-16.175-26.691h-12.057l16.176 26.691h12.056zm176.921 0c.839 0 2.123-.338 2.853-.75l19.269-10.888c.73-.412.753-1.125.05-1.584l-19.369-12.636c-.703-.458-1.964-.833-2.803-.833h-16.403l16.176 26.691h.227zm-155.95 0l-16.179-26.691h-12.053l16.176 26.691h12.056zm104.859 0l-16.175-26.691h-12.056l16.176 26.691h12.055zm-20.971 0l-16.175-26.691h-12.056l16.176 26.691h12.055zm-20.97 0l-16.175-26.691h-12.056l16.176 26.691h12.055z"/><path fill="#544427" d="M1298.205 872.523c.839 0 1.76.645 2.046 1.433l14.21 39.077c.287.788.521 2.12.521 2.959v25.545c0 .839-.255 2.162-.566 2.941l-14.119 35.3c-.312.779-1.253 1.416-2.092 1.416h-16.015c-.839 0-1.525-.686-1.525-1.525v-105.621c0-.839.686-1.525 1.525-1.525h16.015z"/><path fill="#544427" d="M1400.775 895.401"/><path fill="#544427" d="M1505.45 940.204l-16.177-26.691h-12.057l16.176 26.691h12.058zm-20.972 0l-16.175-26.691h-12.056l16.176 26.691h12.055zm-20.971 0l-16.175-26.691h-12.059l16.177 26.691h12.057zm62.915 0l-16.175-26.691h-12.059l16.177 26.691h12.057zm41.941 0l-16.175-26.691h-12.056l16.176 26.691h12.055zm-20.97 0l-16.175-26.691h-12.056l16.176 26.691h12.055zm209.719 0l-16.175-26.691h-12.057l16.179 26.691h12.053zm-377.492 0l-16.177-26.691h-12.057l16.176 26.691h12.058zm62.915 0l-16.177-26.691h-12.057l16.176 26.691h12.058zm-20.973 0l-16.175-26.691h-12.056l16.176 26.691h12.055zm-20.97 0l-16.175-26.691h-12.059l16.177 26.691h12.057zm335.542 0l-16.179-26.691h-12.053l16.176 26.691h12.056zm-104.852 0l-16.175-26.691h-12.057l16.179 26.691h12.053zm20.97 0l-16.175-26.691h-12.056l16.176 26.691h12.055zm-359.194-25.166v23.641c0 .839.686 1.525 1.525 1.525h64.064l-16.175-26.691h-47.889c-.839 0-1.525.686-1.525 1.525zm296.275 25.166l-16.175-26.691h-12.056l16.176 26.691h12.055zm176.921 0c.839 0 2.123-.338 2.853-.75l19.269-10.888c.73-.412.753-1.125.05-1.584l-19.369-12.636c-.703-.458-1.964-.833-2.803-.833h-16.403l16.176 26.691h.227zm-155.95 0l-16.179-26.691h-12.053l16.176 26.691h12.056zm104.859 0l-16.175-26.691h-12.056l16.175 26.691h12.056zm-20.97 0l-16.175-26.691h-12.056l16.176 26.691h12.055zm-20.97 0l-16.175-26.691h-12.056l16.175 26.691h12.056z"/><path fill="#544427" d="M1041.088 250.999c.393 0 .825.302.959.672l6.662 18.32c.134.37.244.994.244 1.387v11.976c0 .393-.12 1.014-.266 1.379l-6.619 16.549c-.146.365-.587.664-.981.664h-7.508c-.393 0-.715-.322-.715-.715v-49.517c0-.393.322-.715.715-.715h7.509z"/><path fill="#544427" d="M1089.175 261.725"/><path fill="#544427" d="M1138.248 282.729l-7.584-12.513h-5.653l7.583 12.513h5.654zm-9.832 0l-7.583-12.513h-5.652l7.583 12.513h5.652zm-9.831 0l-7.583-12.513h-5.653l7.584 12.513h5.652zm29.495 0l-7.583-12.513h-5.653l7.584 12.513h5.652zm19.663 0l-7.583-12.513h-5.652l7.583 12.513h5.652zm-9.832 0l-7.583-12.513h-5.652l7.583 12.513h5.652zm98.32 0l-7.583-12.513h-5.652l7.585 12.513h5.65zm-176.974 0l-7.584-12.513h-5.653l7.583 12.513h5.654zm29.496 0l-7.584-12.513h-5.653l7.583 12.513h5.654zm-9.833 0l-7.583-12.513h-5.652l7.583 12.513h5.652zm-9.831 0l-7.583-12.513h-5.653l7.584 12.513h5.652zm157.308 0l-7.585-12.513h-5.651l7.583 12.513h5.653zm-49.157 0l-7.583-12.513h-5.652l7.585 12.513h5.65zm9.831 0l-7.583-12.513h-5.652l7.583 12.513h5.652zm-168.396-11.798v11.083c0 .393.322.715.715.715h30.034l-7.583-12.513h-22.451c-.393 0-.715.322-.715.715zm138.899 11.798l-7.583-12.513h-5.652l7.583 12.513h5.652zm82.943 0c.393 0 .995-.158 1.338-.352l9.033-5.104c.342-.193.353-.528.024-.742l-9.081-5.924c-.329-.215-.921-.391-1.314-.391h-7.69l7.583 12.513h.107zm-73.112 0l-7.585-12.513h-5.651l7.583 12.513h5.653zm49.16 0l-7.583-12.513h-5.652l7.583 12.513h5.652zm-9.831 0l-7.583-12.513h-5.652l7.583 12.513h5.652zm-9.831 0l-7.583-12.513h-5.652l7.583 12.513h5.652z"/><g fill="#454435"><line x1="1361.784" y1="344.355" x2="1685.266" y2="344.355"/><rect x="1236.833" y="328.847" width="448.435" height="31.014"/></g><path fill="#454435" d="M1252.576 328.234c2.191 1.505 3.983 4.912 3.983 7.57v16.907c0 2.658-1.785 6.075-3.967 7.594l-14.181 9.868c-2.182 1.518-6.102 2.348-8.712 1.844l-47.897-9.248c-2.61-.504-4.745-3.091-4.745-5.749v-24.089c0-2.658 2.126-5.29 4.725-5.848l47.937-10.293c2.599-.558 6.518.217 8.709 1.722l14.148 9.722z"/><path fill="#454435" d="M1941.146 393.104s14.094-20.263 14.094-49.261-14.014-48.295-14.014-48.295c-1.562-2.151-5.015-3.91-7.673-3.91h-266.324c-2.658 0-4.833 2.175-4.833 4.833v95.767c0 2.658 2.175 4.833 4.833 4.833h266.324c2.658 0 6.075-1.785 7.593-3.967zm-245.276-63.132c-4.001 0-7.25-3.248-7.25-7.25s3.248-7.25 7.25-7.25h224.734c4.005 0 7.25 3.248 7.25 7.25s-3.245 7.25-7.25 7.25h-224.734zm0 44.302c-4.001 0-7.25-3.248-7.25-7.25s3.248-7.25 7.25-7.25h224.734c4.005 0 7.25 3.248 7.25 7.25s-3.245 7.25-7.25 7.25h-224.734z"/><path fill="#454435" d="M1638.752 386.039c-2.658 0-4.833-2.175-4.833-4.833v-73.704c0-2.658 2.175-4.833 4.833-4.833h20.54c2.658 0 4.833 2.175 4.833 4.833v73.704c0 2.658-2.175 4.833-4.833 4.833h-20.54z"/><g fill="#454435"><line x1="-138.216" y1="344.355" x2="185.266" y2="344.355"/><rect x="-263.168" y="328.847" width="448.435" height="31.014"/></g><path fill="#454435" d="M-247.424 328.234c2.191 1.505 3.983 4.912 3.983 7.57v16.907c0 2.658-1.785 6.075-3.967 7.594l-14.181 9.868c-2.182 1.518-6.102 2.348-8.712 1.844l-47.897-9.248c-2.61-.504-4.745-3.091-4.745-5.749v-24.089c0-2.658 2.126-5.29 4.725-5.848l47.937-10.293c2.599-.558 6.518.217 8.709 1.722l14.148 9.722z"/><path fill="#454435" d="M441.145 393.104s14.094-20.263 14.094-49.261-14.014-48.295-14.014-48.295c-1.562-2.151-5.015-3.91-7.673-3.91h-266.324c-2.658 0-4.833 2.175-4.833 4.833v95.767c0 2.658 2.175 4.833 4.833 4.833h266.324c2.658 0 6.075-1.785 7.593-3.967zm-245.276-63.132c-4.001 0-7.25-3.248-7.25-7.25s3.248-7.25 7.25-7.25h224.734c4.005 0 7.25 3.248 7.25 7.25s-3.245 7.25-7.25 7.25h-224.734zm0 44.302c-4.001 0-7.25-3.248-7.25-7.25s3.248-7.25 7.25-7.25h224.734c4.005 0 7.25 3.248 7.25 7.25s-3.245 7.25-7.25 7.25h-224.734z"/><path fill="#454435" d="M138.751 386.039c-2.658 0-4.833-2.175-4.833-4.833v-73.704c0-2.658 2.175-4.833 4.833-4.833h20.54c2.658 0 4.833 2.175 4.833 4.833v73.704c0 2.658-2.175 4.833-4.833 4.833h-20.54z"/><g fill="#454435"><line x1="1372.19" y1="-90.132" x2="1372.19" y2="97.584"/><rect x="1363.194" y="-90.132" width="17.995" height="187.717"/></g><path fill="#454435" d="M1381.545-72.557c-.874 1.271-2.85 2.312-4.393 2.312h-9.811c-1.542 0-3.526-1.036-4.406-2.302l-5.727-8.229c-.881-1.266-1.363-3.541-1.07-5.056l5.367-27.794c.292-1.515 1.794-2.754 3.336-2.754h13.979c1.542 0 3.07 1.234 3.393 2.742l5.973 27.818c.324 1.508-.126 3.782-1 5.054l-5.641 8.209z"/><path fill="#454435" d="M1343.901 246.07s11.759 8.179 28.586 8.179c16.827 0 28.025-8.132 28.025-8.132 1.248-.906 2.269-2.91 2.269-4.453v-154.547c0-1.542-1.262-2.805-2.805-2.805h-55.573c-1.543 0-2.805 1.262-2.805 2.805v154.547c.001 1.542 1.037 3.525 2.303 4.406zm36.635-142.333c0-2.322 1.885-4.207 4.207-4.207s4.207 1.885 4.207 4.207v130.412c0 2.324-1.885 4.207-4.207 4.207s-4.207-1.883-4.207-4.207v-130.412zm-25.708 0c0-2.322 1.885-4.207 4.207-4.207s4.207 1.885 4.207 4.207v130.412c0 2.324-1.885 4.207-4.207 4.207s-4.207-1.883-4.207-4.207v-130.412z"/><path fill="#454435" d="M1348.001 70.592c0-1.543 1.262-2.805 2.805-2.805h42.77c1.543 0 2.805 1.262 2.805 2.805v11.919c0 1.543-1.262 2.805-2.805 2.805h-42.77c-1.542 0-2.805-1.262-2.805-2.805v-11.919z"/><g fill="#363637"><line x1="577.229" y1="785.749" x2="577.229" y2="914.676"/><rect x="571.051" y="785.748" width="12.359" height="128.928"/></g><path fill="#363637" d="M583.654 797.819c-.6.873-1.958 1.588-3.017 1.588h-6.738c-1.059 0-2.421-.711-3.027-1.581l-3.933-5.652c-.605-.87-.936-2.432-.735-3.472l3.686-19.09c.201-1.04 1.232-1.891 2.291-1.891h9.601c1.059 0 2.108.847 2.331 1.883l4.102 19.106c.222 1.036-.086 2.598-.686 3.471l-3.875 5.638z"/><path fill="#363637" d="M557.8 1016.659s8.076 5.617 19.633 5.617l19.248-5.585c.857-.623 1.559-1.999 1.559-3.058v-106.147c0-1.059-.867-1.926-1.926-1.926h-38.169c-1.06 0-1.926.867-1.926 1.926v106.146c0 1.06.711 2.422 1.581 3.027zm25.162-97.757c0-1.595 1.295-2.889 2.89-2.889 1.595 0 2.89 1.295 2.89 2.889v89.57c0 1.596-1.295 2.89-2.89 2.89-1.595 0-2.89-1.293-2.89-2.89v-89.57zm-17.657 0c0-1.595 1.295-2.889 2.89-2.889 1.595 0 2.889 1.295 2.889 2.889v89.57c0 1.596-1.295 2.89-2.889 2.89-1.595 0-2.89-1.293-2.89-2.89v-89.57z"/><path fill="#363637" d="M560.615 896.137c0-1.059.867-1.926 1.926-1.926h29.375c1.059 0 1.926.867 1.926 1.926v8.187c0 1.059-.867 1.926-1.926 1.926h-29.375c-1.059 0-1.926-.867-1.926-1.926v-8.187z"/><g fill="#454435"><line x1="1372.19" y1="1409.869" x2="1372.19" y2="1597.584"/><rect x="1363.194" y="1409.868" width="17.995" height="187.717"/></g><path fill="#454435" d="M1381.545 1427.443c-.873 1.271-2.85 2.312-4.393 2.312h-9.811c-1.542 0-3.526-1.036-4.407-2.302l-5.726-8.229c-.881-1.266-1.363-3.541-1.07-5.056l5.367-27.794c.292-1.515 1.794-2.754 3.336-2.754h13.979c1.542 0 3.07 1.234 3.393 2.742l5.973 27.818c.324 1.508-.126 3.782-1 5.054l-5.641 8.209z"/><path fill="#454435" d="M1343.901 1746.07s11.759 8.179 28.586 8.179c16.827 0 28.025-8.132 28.025-8.132 1.248-.906 2.269-2.91 2.269-4.453v-154.547c0-1.542-1.262-2.805-2.805-2.805h-55.573c-1.543 0-2.805 1.262-2.805 2.805v154.547c.001 1.542 1.037 3.525 2.303 4.406zm36.635-142.333c0-2.322 1.885-4.207 4.207-4.207s4.207 1.885 4.207 4.207v130.412c0 2.324-1.885 4.207-4.207 4.207s-4.207-1.883-4.207-4.207v-130.412zm-25.708 0c0-2.322 1.885-4.207 4.207-4.207s4.207 1.885 4.207 4.207v130.412c0 2.324-1.885 4.207-4.207 4.207s-4.207-1.883-4.207-4.207v-130.412z"/><path fill="#454435" d="M1348 1570.592c0-1.543 1.262-2.805 2.805-2.805h42.77c1.543 0 2.805 1.262 2.805 2.805v11.919c0 1.542-1.262 2.805-2.805 2.805h-42.77c-1.542 0-2.805-1.262-2.805-2.805v-11.919z"/><g fill="#454435"><line x1="750.633" y1="70.759" x2="584.254" y2="70.759"/><rect x="584.253" y="62.782" width="166.378" height="15.953"/></g><path fill="#454435" d="M735.056 79.05c-1.127-.774-2.049-2.526-2.049-3.894v-8.696c0-1.367.918-3.125 2.04-3.906l7.294-5.076c1.122-.781 3.139-1.208 4.481-.949l24.635 4.757c1.342.259 2.441 1.59 2.441 2.957v12.39c0 1.367-1.094 2.721-2.43 3.008l-24.656 5.294c-1.337.287-3.352-.112-4.479-.886l-7.277-4.999z"/><path fill="#454435" d="M452.646 45.685s-7.249 10.422-7.249 25.337l7.208 24.84c.803 1.106 2.579 2.011 3.947 2.011h136.98c1.367 0 2.486-1.118 2.486-2.486v-49.257c0-1.367-1.119-2.486-2.486-2.486h-136.98c-1.368.001-3.126.919-3.906 2.041zm126.154 32.471c2.058 0 3.729 1.671 3.729 3.729s-1.671 3.729-3.729 3.729h-115.589c-2.06 0-3.729-1.671-3.729-3.729s1.669-3.729 3.729-3.729h115.589zm0-22.786c2.058 0 3.729 1.671 3.729 3.729s-1.671 3.729-3.729 3.729h-115.589c-2.06 0-3.729-1.671-3.729-3.729s1.669-3.729 3.729-3.729h115.589z"/><path fill="#454435" d="M608.178 49.319c1.367 0 2.486 1.119 2.486 2.486v37.908c0 1.367-1.119 2.486-2.486 2.486h-10.565c-1.367 0-2.486-1.119-2.486-2.486v-37.909c0-1.367 1.119-2.486 2.486-2.486h10.565z"/><g fill="#544427"><line x1="976.433" y1="1437.503" x2="1148.362" y2="1437.503"/><rect x="976.434" y="1429.26" width="171.929" height="16.485"/></g><path fill="#544427" d="M992.529 1428.934c1.164.8 2.117 2.611 2.117 4.023v8.986c0 1.413-.949 3.229-2.108 4.036l-7.537 5.245c-1.16.807-3.243 1.248-4.631.98l-25.457-4.915c-1.387-.268-2.522-1.643-2.522-3.056v-12.803c0-1.413 1.13-2.811 2.512-3.108l25.478-5.471c1.381-.297 3.464.115 4.629.915l7.519 5.168z"/><path fill="#544427" d="M1284.361 1463.413s7.491-10.77 7.491-26.182l-7.448-25.668c-.83-1.143-2.665-2.078-4.078-2.078h-141.551c-1.413 0-2.569 1.156-2.569 2.569v50.9c0 1.413 1.156 2.569 2.569 2.569h141.551c1.413-.002 3.229-.95 4.035-2.11zm-130.363-33.555c-2.127 0-3.853-1.727-3.853-3.853s1.727-3.853 3.853-3.853h119.445c2.128 0 3.853 1.727 3.853 3.853s-1.725 3.853-3.853 3.853h-119.445zm0 23.547c-2.127 0-3.853-1.727-3.853-3.853s1.727-3.853 3.853-3.853h119.445c2.128 0 3.853 1.727 3.853 3.853s-1.725 3.853-3.853 3.853h-119.445z"/><path fill="#544427" d="M1123.64 1459.658c-1.413 0-2.569-1.156-2.569-2.569v-39.173c0-1.413 1.156-2.569 2.569-2.569h10.917c1.413 0 2.569 1.156 2.569 2.569v39.173c0 1.413-1.156 2.569-2.569 2.569h-10.917z"/><g fill="#544427"><line x1="354.354" y1="543.464" x2="354.354" y2="635.843"/><rect x="349.924" y="543.465" width="8.858" height="92.378"/></g><path fill="#544427" d="M358.957 552.112c-.43.626-1.403 1.138-2.162 1.138h-4.828c-.759 0-1.735-.51-2.169-1.133l-2.818-4.05c-.434-.623-.671-1.743-.527-2.488l2.641-13.678c.144-.745.883-1.355 1.642-1.355h6.879c.759 0 1.511.607 1.67 1.349l2.939 13.69c.159.742-.062 1.861-.492 2.487l-2.775 4.04z"/><path fill="#544427" d="M340.432 708.917s5.787 4.025 14.068 4.025l13.792-4.002c.614-.446 1.117-1.432 1.117-2.191v-76.056c0-.759-.621-1.38-1.38-1.38h-27.349c-.759 0-1.38.621-1.38 1.38v76.056c-.001.758.509 1.734 1.132 2.168zm18.029-70.046c0-1.143.928-2.07 2.07-2.07 1.143 0 2.07.928 2.07 2.07v64.179c0 1.144-.928 2.07-2.07 2.07-1.143 0-2.07-.927-2.07-2.07v-64.179zm-12.652 0c0-1.143.928-2.07 2.07-2.07 1.143 0 2.07.928 2.07 2.07v64.179c0 1.144-.928 2.07-2.07 2.07-1.143 0-2.07-.927-2.07-2.07v-64.179z"/><path fill="#544427" d="M342.449 622.56c0-.759.621-1.38 1.38-1.38h21.048c.759 0 1.38.621 1.38 1.38v5.866c0 .759-.621 1.38-1.38 1.38h-21.047c-.759 0-1.38-.621-1.38-1.38v-5.866z"/><g fill="#363637"><line x1="956.457" y1="319.784" x2="956.457" y2="444.103"/><rect x="950.496" y="319.786" width="11.92" height="124.317"/></g><path fill="#363637" d="M962.653 331.423c-.578.842-1.888 1.531-2.909 1.531h-6.497c-1.022 0-2.335-.686-2.918-1.525l-3.793-5.45c-.584-.839-.903-2.345-.709-3.348l3.554-18.407c.194-1.003 1.188-1.824 2.21-1.824h9.258c1.022 0 2.033.817 2.247 1.816l3.956 18.423c.214.999-.083 2.505-.662 3.347l-3.737 5.437z"/><path fill="#363637" d="M937.722 542.441s7.787 5.417 18.932 5.417c11.144 0 18.56-5.386 18.56-5.386.827-.6 1.503-1.927 1.503-2.949v-102.352c0-1.022-.836-1.857-1.857-1.857h-36.805c-1.022 0-1.857.836-1.857 1.857v102.352c-.001 1.022.686 2.335 1.524 2.918zm24.263-94.263c0-1.538 1.248-2.786 2.786-2.786s2.786 1.248 2.786 2.786v86.368c0 1.539-1.248 2.786-2.786 2.786s-2.786-1.247-2.786-2.786v-86.368zm-17.026 0c0-1.538 1.248-2.786 2.786-2.786s2.786 1.248 2.786 2.786v86.368c0 1.539-1.248 2.786-2.786 2.786s-2.786-1.247-2.786-2.786v-86.368z"/><path fill="#363637" d="M940.437 426.227c0-1.022.836-1.857 1.857-1.857h28.325c1.022 0 1.857.836 1.857 1.857v7.894c0 1.022-.836 1.857-1.857 1.857h-28.325c-1.022 0-1.857-.836-1.857-1.857v-7.894z"/><g fill="#773233"><rect x="58.1" y="1138.382" width="665.143" height="9.877"/><rect x="58.1" y="1071.176" width="665.143" height="9.877"/><path d="M65.4 1085.952v47.587h650.543v-47.587h-650.543zm366.327 33.127h-82.112c-5.155 0-9.334-4.179-9.334-9.334 0-5.155 4.179-9.333 9.334-9.333h82.112c5.155 0 9.334 4.179 9.334 9.333-.001 5.155-4.179 9.334-9.334 9.334z"/><rect x="366.962" y="1096.384" width="4.272" height="26.663"/><rect x="407.498" y="1096.384" width="4.272" height="26.663"/></g><g fill="#773233"><rect x="875.117" y="-161.762" width="8.987" height="550.625"/><rect x="813.125" y="-161.762" width="8.987" height="550.625"/><path d="M826.569 382.221h43.3v-537.34h-43.3v537.34zm30.143-306.027v74.714c0 4.69-3.802 8.493-8.493 8.493-4.69 0-8.493-3.802-8.493-8.493v-74.714c0-4.69 3.802-8.493 8.493-8.493 4.69 0 8.493 3.802 8.493 8.493z"/><rect x="836.058" y="131.238" width="24.265" height="3.882"/><rect x="836.058" y="94.356" width="24.265" height="3.882"/></g><g fill="#773233"><rect x="875.117" y="1338.238" width="8.987" height="550.625"/><rect x="813.125" y="1338.238" width="8.987" height="550.625"/><path d="M826.569 1882.221h43.3v-537.34h-43.3v537.34zm30.143-306.027v74.714c0 4.69-3.802 8.493-8.493 8.493-4.69 0-8.493-3.802-8.493-8.493v-74.714c0-4.69 3.802-8.493 8.493-8.493 4.69 0 8.493 3.803 8.493 8.493z"/><rect x="836.058" y="1631.238" width="24.265" height="3.882"/><rect x="836.058" y="1594.357" width="24.265" height="3.882"/></g><path fill="#773233" d="M383.558 1425.93c-35.532-35.532-93.14-35.532-128.672 0s-35.532 93.14 0 128.672 93.14 35.532 128.672 0c35.531-35.532 35.532-93.14 0-128.672zm-27.706 115.909c-.457.457-1.204.457-1.66 0l-34.139-34.139c-.457-.457-1.204-.457-1.66 0l-34.139 34.139c-.457.457-1.204.457-1.66 0l-14.943-14.943c-.457-.457-.456-1.204 0-1.661l34.139-34.139c.457-.457.457-1.203 0-1.66l-34.14-34.14c-.456-.456-.456-1.204 0-1.661l14.942-14.942c.457-.457 1.204-.457 1.66 0l34.14 34.14c.457.457 1.204.457 1.66 0l34.139-34.14c.457-.457 1.204-.457 1.66 0l14.943 14.943c.457.457.456 1.204 0 1.661l-34.139 34.139c-.457.457-.456 1.204 0 1.661l34.139 34.139c.457.457.456 1.204 0 1.661l-14.942 14.942z"/><path fill="#544427" d="M132.405 1736.317c0-2.302 1.883-4.185 4.185-4.185h62.008c2.302 0 4.185 1.883 4.185 4.185v8.915c0 2.302-1.883 4.186-4.185 4.186h-62.008c-2.302 0-4.185-1.884-4.185-4.186v-8.915z"/><path fill="#544427" d="M176.237 1649.406h-17.286v7.41h17.286v-7.41zm-13.101 91.986h8.915c2.302 0 4.185-1.883 4.185-4.185v-50.76h-17.286v50.76c.001 2.301 1.884 4.185 4.186 4.185zm13.101-79.639h-17.286v7.41h17.286v-7.41zm0-223.001c0-2.302-.927-5.825-2.059-7.83l-3.905-6.911c-1.132-2.004-3.088-2.066-4.346-.138l-4.689 7.188c-1.258 1.928-2.287 5.389-2.287 7.691v205.718h17.286v-205.718zm0 235.348h-17.286v7.41h17.286v-7.41z"/><path fill="#363637" d="M1484.967 794.881c0 1.943-1.59 3.533-3.533 3.533h-179.694c-1.943 0-3.533-1.59-3.533-3.533v-92.674c0-1.943 1.59-3.533 3.533-3.533h179.694c1.943 0 3.533 1.59 3.533 3.533v92.674z"/><path fill="#363637" d="M1188.912 441.629h-5.848c-15.784 11.075-26.153 29.379-26.153 50.038 0 20.46 10.18 38.596 25.708 49.701h6.294c1.943 0 3.533-1.59 3.533-3.533v-92.674c-.002-1.942-1.592-3.532-3.534-3.532zm-22.095 0h-40.456c-1.943 0-3.533 1.589-3.533 3.533v92.674c0 1.943 1.59 3.533 3.533 3.533h40.109c-12.453-12.913-20.158-30.428-20.158-49.701 0-19.446 7.854-37.093 20.505-50.039z"/><path fill="#363637" d="M1416.778 430.543l-3.266-.014-195.723.014c-33.569.139-60.879 27.56-60.879 61.124s27.31 60.983 60.879 61.12l3.316.014 195.673-.014c33.573-.136 60.883-27.556 60.883-61.12s-27.309-60.985-60.883-61.124zm-6.565 98.39v.008h-97.53999999999999v-.008c-20.514-.086-37.118-16.734-37.118-37.267 0-20.534 16.604-37.182 37.118-37.268v-.009h63.676v.001h33.865v.008c20.514.086 37.118 16.734 37.118 37.268-.001 20.533-16.605 37.182-37.119 37.267z"/><polygon fill="#363637" points="1067.578,502.222 1026.745,496.867 1026.745,486.465 1067.578,481.11"/><path fill="#363637" d="M1401.166 430.491c0 1.943-1.59 3.533-3.533 3.533h-120.109c-1.943 0-3.533-1.59-3.533-3.533v-10.848c0-1.943 1.59-3.533 3.533-3.533h120.109c1.943 0 3.533 1.59 3.533 3.533v10.848z"/><path fill="#363637" d="M1086.825 452.005h-.169v.004c-21.827.091-39.494 17.809-39.494 39.657 0 21.848 17.667 39.566 39.494 39.657v.004h26.792v-79.323h-26.623z"/><path fill="#363637" d="M1402.796 518.768c-.537 0-1.083-.082-1.624-.255-2.784-.896-4.317-3.88-3.421-6.668l14.133-43.94c.896-2.788 3.866-4.317 6.668-3.421 2.784.896 4.317 3.88 3.421 6.668l-14.133 43.94c-.723 2.248-2.802 3.676-5.044 3.676z"/><path fill="#363637" d="M1383.505 518.768c-.537 0-1.083-.082-1.624-.255-2.784-.896-4.317-3.88-3.421-6.668l14.128-43.94c.896-2.788 3.862-4.317 6.668-3.421 2.784.896 4.317 3.88 3.421 6.668l-14.128 43.94c-.723 2.248-2.802 3.676-5.044 3.676z"/><path fill="#363637" d="M1361.894 518.768c-.537 0-1.083-.082-1.624-.255-2.784-.896-4.317-3.88-3.421-6.668l14.133-43.94c.896-2.788 3.871-4.317 6.668-3.421 2.784.896 4.317 3.88 3.421 6.668l-14.133 43.94c-.722 2.248-2.801 3.676-5.044 3.676z"/><polygon fill="#363637" points="1447.65,723.316 1409.832,563.149 1349.586,563.167 1308.816,563.163 1342.181,723.316"/><path fill="#363637" d="M1389.824 608.784l-11.635-45.387-28.103.007-41.22-.001 10.167 48.803h68.136c1.943 0 3.138-1.54 2.655-3.422zm-124.418-45.383l8.193 45.328c.345 1.912 2.218 3.476 4.161 3.476h30.446l-10.169-48.803-32.631-.001zm30.374-10.836l79.63-.009-1.991-7.766c-.482-1.882-2.467-3.422-4.41-3.422h-104.053c-1.943 0-3.25 1.564-2.904 3.476l1.438 7.954 32.339-.002-.049-.231z"/><path fill="#454435" d="M499.976 1020.146c0 1.33-1.088 2.418-2.418 2.418h-123.015c-1.33 0-2.418-1.088-2.418-2.418v-63.442c0-1.33 1.088-2.418 2.418-2.418h123.015c1.33 0 2.418 1.088 2.418 2.418v63.442z"/><path fill="#454435" d="M297.303 778.318h-4.004c-10.806 7.582-17.904 20.112-17.904 34.255 0 14.006 6.969 26.422 17.599 34.024h4.308c1.33 0 2.418-1.088 2.418-2.418v-63.442c.001-1.331-1.087-2.419-2.417-2.419zm-15.126 0h-27.696c-1.33 0-2.418 1.088-2.418 2.418v63.442c0 1.33 1.088 2.418 2.418 2.418h27.458c-8.525-8.84-13.799-20.83-13.799-34.024 0-13.311 5.376-25.392 14.037-34.254z"/><path fill="#454435" d="M453.295 770.729l-2.236-.009-133.988.009c-22.98.095-41.676 18.867-41.676 41.844s18.696 41.748 41.676 41.841l2.27.009 133.953-.009c22.984-.093 41.679-18.864 41.679-41.841s-18.694-41.749-41.678-41.844zm-4.494 67.355v.005h-66.774v-.005c-14.043-.059-25.41-11.456-25.41-25.512 0-14.057 11.367-25.454 25.41-25.513v-.006h66.774v.005c14.043.059 25.41 11.456 25.41 25.513 0 14.058-11.367 25.455-25.41 25.513z"/><polygon fill="#454435" points="214.24,819.799 186.287,816.133 186.287,809.012 214.24,805.346"/><path fill="#454435" d="M442.607 770.693c0 1.33-1.088 2.418-2.418 2.418h-82.224c-1.33 0-2.418-1.088-2.418-2.418v-7.426c0-1.33 1.088-2.418 2.418-2.418h82.224c1.33 0 2.418 1.088 2.418 2.418v7.426z"/><path fill="#454435" d="M227.3 785.421v.003c-14.942.062-27.037 12.192-27.037 27.148s12.094 27.086 27.037 27.148v.003h18.341v-54.302h-18.341z"/><path fill="#454435" d="M443.723 831.126c-.367 0-.741-.056-1.112-.174-1.906-.613-2.955-2.656-2.342-4.565l9.675-30.08c.613-1.909 2.647-2.955 4.565-2.342 1.906.613 2.955 2.656 2.342 4.565l-9.675 30.08c-.495 1.538-1.918 2.516-3.453 2.516z"/><path fill="#454435" d="M430.517 831.126c-.367 0-.741-.056-1.112-.174-1.906-.613-2.955-2.656-2.342-4.565l9.672-30.08c.613-1.909 2.644-2.955 4.565-2.342 1.906.613 2.955 2.656 2.342 4.565l-9.672 30.08c-.495 1.538-1.918 2.516-3.453 2.516z"/><path fill="#454435" d="M415.723 831.126c-.367 0-.741-.056-1.112-.174-1.906-.613-2.955-2.656-2.342-4.565l9.675-30.08c.613-1.909 2.65-2.955 4.565-2.342 1.906.613 2.955 2.656 2.342 4.565l-9.675 30.08c-.495 1.538-1.918 2.516-3.453 2.516z"/><polygon fill="#454435" points="474.429,971.154 448.54,861.508 407.297,861.52 379.387,861.517 402.227,971.154"/><path fill="#454435" d="M434.843 892.748l-7.965-31.071-19.239.005-28.218-.001 6.96 33.409h46.644c1.33.001 2.148-1.053 1.818-2.342zm-85.174-31.068l5.609 31.031c.236 1.309 1.518 2.38 2.848 2.38h20.843l-6.961-33.41-22.339-.001zm20.793-7.418l54.513-.006-1.363-5.316c-.33-1.288-1.689-2.342-3.019-2.342h-71.233c-1.33 0-2.225 1.071-1.988 2.38l.984 5.445 22.138-.002-.032-.159z"/><path fill="#363637" d="M248.852 254.86c0 .679.556 1.235 1.235 1.235h62.838c.679 0 1.235-.556 1.235-1.235v-32.408c0-.679-.556-1.235-1.235-1.235h-62.838c-.679 0-1.235.556-1.235 1.235v32.408z"/><path fill="#363637" d="M351.146 132.565v32.408c0 .679.556 1.235 1.235 1.235h2.201c5.43-3.883 8.99-10.225 8.99-17.38 0-7.224-3.626-13.625-9.146-17.498h-2.045c-.679 0-1.235.556-1.235 1.235zm16.132 16.263c0 6.74-2.694 12.865-7.049 17.38h14.026c.679 0 1.235-.556 1.235-1.235v-32.408c0-.68-.556-1.235-1.235-1.235h-14.147c4.424 4.527 7.17 10.698 7.17 17.498z"/><path fill="#363637" d="M251.407 148.828c0 11.737 9.55 21.326 21.291 21.373l68.426.005 1.16-.005c11.739-.048 21.289-9.636 21.289-21.373 0-11.737-9.55-21.326-21.289-21.375l-68.443-.005-1.142.005c-11.742.049-21.292 9.638-21.292 21.375zm10.606 0c0-7.181 5.807-13.002 12.98-13.032v-.003h34.109v.003c7.173.03 12.98 5.852 12.98 13.032s-5.807 13.002-12.98 13.032v.003h-34.108999999999995v-.003c-7.173-.03-12.98-5.852-12.98-13.032z"/><polygon fill="#363637" points="394.811,152.519 409.09,150.646 409.09,147.009 394.811,145.136"/><path fill="#363637" d="M278.157 127.435c0 .679.556 1.235 1.235 1.235h42.001c.679 0 1.235-.556 1.235-1.235v-3.793c0-.679-.556-1.235-1.235-1.235h-42.001c-.679 0-1.235.556-1.235 1.235v3.793z"/><path fill="#363637" d="M401.951 148.828c0-7.64-6.178-13.835-13.811-13.866v-.003h-9.367999999999999v27.739h9.369v-.003c7.631-.033 13.81-6.227 13.81-13.867z"/><path fill="#363637" d="M277.587 158.305c.188 0 .379-.029.568-.089.973-.313 1.51-1.357 1.196-2.332l-4.942-15.366c-.313-.975-1.352-1.51-2.332-1.196-.973.313-1.509 1.357-1.196 2.332l4.942 15.366c.253.786.98 1.285 1.764 1.285z"/><path fill="#363637" d="M284.333 158.305c.188 0 .379-.029.568-.089.973-.313 1.51-1.357 1.196-2.332l-4.941-15.366c-.313-.975-1.35-1.51-2.332-1.196-.973.313-1.51 1.357-1.196 2.332l4.94 15.366c.254.786.981 1.285 1.765 1.285z"/><path fill="#363637" d="M291.89 158.305c.188 0 .379-.029.568-.089.973-.313 1.51-1.357 1.196-2.332l-4.942-15.366c-.313-.975-1.354-1.51-2.332-1.196-.973.313-1.509 1.357-1.196 2.332l4.942 15.366c.253.786.98 1.285 1.764 1.285z"/><polygon fill="#363637" points="261.902,229.834 275.126,173.825 296.194,173.831 310.451,173.83 298.784,229.834"/><path fill="#363637" d="M283.051 190.98h23.827l3.555-17.066h-14.414l-9.828-.002-4.069 15.872c-.168.657.25 1.196.929 1.196zm31.169-17.067l-3.556 17.066h10.647c.679 0 1.334-.547 1.455-1.216l2.865-15.851-11.411.001zm.773-3.709l11.309.001.503-2.781c.121-.669-.336-1.216-1.016-1.216h-36.387c-.679 0-1.373.538-1.542 1.197l-.696 2.716 27.846.003-.017.08z"/><path fill="#544427" d="M-66.395 1495.443c0 1.535 1.256 2.791 2.791 2.791h141.97c1.535 0 2.791-1.256 2.791-2.791v-73.218c0-1.535-1.256-2.791-2.791-2.791h-141.97c-1.535 0-2.791 1.256-2.791 2.791v73.218z"/><path fill="#544427" d="M164.717 1219.141v73.218c0 1.535 1.256 2.791 2.791 2.791h4.972c12.268-8.774 20.311-23.102 20.311-39.267 0-16.322-8.192-30.783-20.663-39.533h-4.621c-1.534 0-2.79 1.256-2.79 2.791zm36.448 36.743c0 15.227-6.087 29.065-15.926 39.267h31.689c1.535 0 2.791-1.256 2.791-2.791v-73.218c0-1.535-1.256-2.791-2.791-2.791h-31.963c9.995 10.227 16.2 24.17 16.2 39.533z"/><path fill="#544427" d="M-60.623 1255.884c0 26.518 21.577 48.181 48.102 48.289l154.595.011 2.62-.011c26.522-.108 48.098-21.771 48.098-48.289s-21.577-48.183-48.098-48.292l-154.634-.011-2.58.011c-26.527.109-48.103 21.774-48.103 48.292zm23.963-.001c0-16.223 13.119-29.376 29.326-29.444v-.006h77.063v.007c16.207.068 29.326 13.221 29.326 29.444s-13.119 29.376-29.326 29.444v.006h-77.064v-.006c-16.207-.069-29.325-13.223-29.325-29.445z"/><polygon fill="#544427" points="263.37,1264.223 295.631,1259.992 295.631,1251.774 263.37,1247.543"/><path fill="#544427" d="M-.187 1207.55c0 1.535 1.256 2.791 2.791 2.791h94.894c1.535 0 2.791-1.256 2.791-2.791v-8.57c0-1.535-1.256-2.791-2.791-2.791h-94.894c-1.535 0-2.791 1.256-2.791 2.791v8.57z"/><path fill="#544427" d="M279.5 1255.883c0-17.261-13.958-31.26-31.203-31.332v-.003h-21.167v62.67h21.168v-.004c17.244-.071 31.202-14.069 31.202-31.331z"/><path fill="#544427" d="M-1.474 1277.295c.424 0 .855-.065 1.283-.201 2.199-.708 3.41-3.065 2.702-5.268l-11.166-34.715c-.708-2.203-3.055-3.41-5.268-2.702-2.199.708-3.41 3.065-2.702 5.268l11.166 34.715c.571 1.775 2.213 2.903 3.985 2.903z"/><path fill="#544427" d="M13.767 1277.295c.424 0 .855-.065 1.283-.201 2.199-.708 3.41-3.065 2.702-5.268l-11.162-34.716c-.708-2.203-3.051-3.41-5.268-2.702-2.199.708-3.41 3.065-2.702 5.268l11.162 34.715c.571 1.776 2.213 2.904 3.985 2.904z"/><path fill="#544427" d="M30.84 1277.295c.424 0 .855-.065 1.283-.201 2.199-.708 3.41-3.065 2.702-5.268l-11.165-34.716c-.708-2.203-3.058-3.41-5.268-2.702-2.199.708-3.41 3.065-2.702 5.268l11.166 34.715c.57 1.776 2.213 2.904 3.984 2.904z"/><polygon fill="#544427" points="-36.912,1438.901 -7.034,1312.359 40.565,1312.374 72.776,1312.37 46.416,1438.901"/><path fill="#544427" d="M10.872 1351.117h53.832l8.033-38.558-32.566.001-22.203-.006-9.193 35.859c-.382 1.488.562 2.704 2.097 2.704zm70.419-38.558l-8.034 38.558h24.054c1.535 0 3.014-1.236 3.287-2.747l6.473-35.812-25.78.001zm1.746-8.38l25.55.002 1.136-6.284c.273-1.511-.759-2.746-2.295-2.746h-82.209c-1.535 0-3.103 1.216-3.484 2.703l-1.573 6.135 62.913.007-.038.183z"/><path fill="#544427" d="M1433.605 1495.443c0 1.535 1.256 2.791 2.791 2.791h141.97c1.535 0 2.791-1.256 2.791-2.791v-73.218c0-1.535-1.256-2.791-2.791-2.791h-141.97c-1.535 0-2.791 1.256-2.791 2.791v73.218z"/><path fill="#544427" d="M1664.718 1219.141v73.218c0 1.535 1.256 2.791 2.791 2.791h4.972c12.268-8.774 20.311-23.102 20.311-39.267 0-16.322-8.192-30.783-20.663-39.533h-4.621c-1.534 0-2.79 1.256-2.79 2.791zm36.447 36.743c0 15.227-6.087 29.065-15.926 39.267h31.689c1.535 0 2.791-1.256 2.791-2.791v-73.218c0-1.535-1.256-2.791-2.791-2.791h-31.963c9.995 10.227 16.2 24.17 16.2 39.533z"/><path fill="#544427" d="M1439.377 1255.884c0 26.518 21.577 48.181 48.102 48.289l154.595.011 2.62-.011c26.522-.108 48.098-21.771 48.098-48.289s-21.577-48.183-48.098-48.292l-154.634-.011-2.58.011c-26.526.109-48.103 21.774-48.103 48.292zm23.963-.001c0-16.223 13.119-29.376 29.326-29.444v-.006h77.063v.007c16.207.068 29.326 13.221 29.326 29.444s-13.119 29.376-29.326 29.444v.006h-77.064v-.006c-16.206-.069-29.325-13.223-29.325-29.445z"/><polygon fill="#544427" points="1763.37,1264.223 1795.631,1259.992 1795.631,1251.774 1763.37,1247.543"/><path fill="#544427" d="M1499.813 1207.55c0 1.535 1.256 2.791 2.791 2.791h94.894c1.535 0 2.791-1.256 2.791-2.791v-8.57c0-1.535-1.256-2.791-2.791-2.791h-94.894c-1.535 0-2.791 1.256-2.791 2.791v8.57z"/><path fill="#544427" d="M1779.501 1255.883c0-17.261-13.958-31.26-31.203-31.332v-.003h-21.167v62.67h21.167v-.004c17.244-.071 31.203-14.069 31.203-31.331z"/><path fill="#544427" d="M1498.526 1277.295c.424 0 .855-.065 1.283-.201 2.199-.708 3.41-3.065 2.702-5.268l-11.166-34.715c-.708-2.203-3.055-3.41-5.268-2.702-2.199.708-3.41 3.065-2.702 5.268l11.166 34.715c.571 1.775 2.213 2.903 3.985 2.903z"/><path fill="#544427" d="M1513.767 1277.295c.424 0 .855-.065 1.283-.201 2.199-.708 3.41-3.065 2.702-5.268l-11.162-34.715c-.708-2.203-3.051-3.41-5.268-2.702-2.199.708-3.411 3.065-2.703 5.268l11.162 34.715c.572 1.775 2.214 2.903 3.986 2.903z"/><path fill="#544427" d="M1530.841 1277.295c.424 0 .855-.065 1.283-.201 2.199-.708 3.41-3.065 2.703-5.268l-11.166-34.715c-.708-2.203-3.058-3.41-5.268-2.702-2.199.708-3.411 3.065-2.703 5.268l11.166 34.715c.571 1.775 2.213 2.903 3.985 2.903z"/><polygon fill="#544427" points="1463.088,1438.901 1492.966,1312.359 1540.565,1312.374 1572.776,1312.37 1546.416,1438.901"/><path fill="#544427" d="M1510.872 1351.117h53.832l8.033-38.558-32.566.001-22.203-.006-9.193 35.859c-.382 1.488.562 2.704 2.097 2.704zm70.419-38.558l-8.034 38.558h24.054c1.535 0 3.015-1.236 3.287-2.747l6.474-35.812-25.781.001zm1.746-8.38l25.55.002 1.136-6.284c.273-1.511-.759-2.746-2.295-2.746h-82.209c-1.535 0-3.103 1.216-3.484 2.703l-1.573 6.135 62.913.007-.038.183z"/><path fill="#454435" d="M1348.434 1243.231c0 .779-.637 1.416-1.416 1.416h-72.036c-.779 0-1.416-.637-1.416-1.416v-37.151c0-.779.637-1.416 1.416-1.416h72.036c.779 0 1.416.637 1.416 1.416v37.151z"/><path fill="#454435" d="M1229.75 1101.618h-2.344c-6.328 4.44-10.484 11.777-10.484 20.059 0 8.202 4.081 15.472 10.306 19.924h2.523c.779 0 1.416-.637 1.416-1.416v-37.151c-.001-.779-.638-1.416-1.417-1.416zm-8.857 0h-16.218c-.779 0-1.416.637-1.416 1.416v37.151c0 .779.637 1.416 1.416 1.416h16.079c-4.992-5.177-8.081-12.198-8.081-19.924 0-7.795 3.148-14.869 8.22-20.059z"/><path fill="#454435" d="M1321.098 1097.173l-1.309-.005-78.462.005c-13.457.056-24.405 11.048-24.405 24.504 0 13.455 10.948 24.447 24.405 24.502l1.329.005 78.442-.005c13.459-.055 24.407-11.047 24.407-24.502 0-13.455-10.948-24.448-24.407-24.504zm-2.632 39.444v.003h-39.102999999999994v-.003c-8.224-.034-14.88-6.708-14.88-14.94s6.656-14.906 14.88-14.94v-.003h39.103v.003c8.224.034 14.88 6.708 14.88 14.94 0 8.231-6.656 14.905-14.88 14.94z"/><polygon fill="#454435" points="1181.109,1125.908 1164.74,1123.762 1164.74,1119.592 1181.109,1117.445"/><path fill="#454435" d="M1314.839 1097.153c0 .779-.637 1.416-1.416 1.416h-48.15c-.779 0-1.416-.637-1.416-1.416v-4.349c0-.779.637-1.416 1.416-1.416h48.15c.779 0 1.416.637 1.416 1.416v4.349z"/><path fill="#454435" d="M1188.826 1105.777h-.068v.003c-8.75.037-15.833 7.138-15.833 15.896s7.083 15.86 15.833 15.896v.003h10.74v-31.799h-10.672z"/><path fill="#454435" d="M1315.493 1132.542c-.215 0-.434-.033-.651-.102-1.116-.359-1.73-1.555-1.371-2.673l5.666-17.615c.359-1.118 1.55-1.73 2.673-1.371 1.116.359 1.73 1.555 1.371 2.673l-5.666 17.615c-.29.9-1.123 1.473-2.022 1.473z"/><path fill="#454435" d="M1307.759 1132.542c-.215 0-.434-.033-.651-.102-1.116-.359-1.73-1.555-1.371-2.673l5.664-17.615c.359-1.118 1.548-1.73 2.673-1.371 1.116.359 1.73 1.555 1.371 2.673l-5.664 17.615c-.289.9-1.123 1.473-2.022 1.473z"/><path fill="#454435" d="M1299.096 1132.542c-.215 0-.434-.033-.651-.102-1.116-.359-1.73-1.555-1.371-2.673l5.666-17.615c.359-1.118 1.552-1.73 2.673-1.371 1.116.359 1.73 1.555 1.371 2.673l-5.666 17.615c-.29.9-1.123 1.473-2.022 1.473z"/><polygon fill="#454435" points="1333.474,1214.541 1318.314,1150.333 1294.162,1150.34 1277.818,1150.339 1291.193,1214.541"/><path fill="#454435" d="M1310.293 1168.627l-4.664-18.195-11.266.003-16.524-.001 4.076 19.564h27.314c.778.001 1.257-.616 1.064-1.371zm-49.877-18.193l3.285 18.171c.138.767.889 1.394 1.668 1.394h12.205l-4.076-19.564-13.082-.001zm12.176-4.344l31.922-.004-.798-3.113c-.193-.754-.989-1.372-1.768-1.372h-41.713c-.779 0-1.303.627-1.164 1.394l.576 3.188 12.964-.001-.019-.092z"/></g></svg>