<?xml version="1.0" encoding="UTF-8"?>
<svg width="64px" height="56px" viewBox="0 0 74 62" version="1.1" xmlns="http://www.w3.org/2000/svg" xmlns:xlink="http://www.w3.org/1999/xlink">
  <path fill="#318c9b" d="M22.9581916,60.8765539 C14.5004033,60.8765539 6.62791538,58.3742639 0,54.0854706 C1.17167399,54.2250706 2.36390958,54.2964878 3.57269745,54.2964878 C10.5893937,54.2964878 17.0472189,51.8798981 22.1728915,47.8258377 C15.6192062,47.7037552 10.0882006,43.3335736 8.18249514,37.3280774 C9.09676222,37.5045988 10.0350637,37.5991925 11.0000654,37.5991925 C12.3661298,37.5991925 13.6892029,37.4145863 14.9460549,37.0690898 C8.09437841,35.6806353 2.93212371,29.571113 2.93212371,22.247232 C2.93212371,22.1836304 2.93212371,22.1202983 2.93319191,22.0572358 C4.95264604,23.1893975 7.26181648,23.8693413 9.71704499,23.9477652 C5.69842768,21.2371531 3.05414973,16.6104092 3.05414973,11.3662453 C3.05414973,8.59607399 3.79272223,5.99945969 5.0818836,3.76693723 C12.4686648,12.9120864 23.5042442,18.9299797 35.9515451,19.5603356 C35.696277,18.4540459 35.563569,17.3003246 35.563569,16.1156107 C35.563569,7.76790629 42.2694533,1 50.5408651,1 C54.8483963,1 58.7407148,2.83582113 61.4728413,5.77362018 C64.8842624,5.09556299 68.089543,3.83754582 70.9832164,2.10548141 C69.8649451,5.63509817 67.4903559,8.59742169 64.3980217,10.4682776 C67.4276053,10.102838 70.3140695,9.2903012 73,8.08807005 C70.9920278,11.119385 68.4526871,13.7817569 65.5267067,15.9129482 C65.5555433,16.561091 65.5699639,17.2130071 65.5699639,17.8684266 C65.5699639,37.8433578 50.5058852,60.8765539 22.9581916,60.8765539" />
</svg>
