<?xml version="1.0" encoding="utf-8"?>
<!-- Generator: Adobe Illustrator 18.1.0, SVG Export Plug-In . SVG Version: 6.00 Build 0)  -->
<!DOCTYPE svg PUBLIC "-//W3C//DTD SVG 1.1//EN" "http://www.w3.org/Graphics/SVG/1.1/DTD/svg11.dtd">
<svg version="1.1" xmlns="http://www.w3.org/2000/svg" xmlns:xlink="http://www.w3.org/1999/xlink" x="0px" y="0px"
	 viewBox="0 0 381.3 248.9" enable-background="new 0 0 381.3 248.9" xml:space="preserve">
<g id="Layer_1">
	<g>
		<path d="M177.5,84.2L25.4,52.5c-1-0.2-1.9,0-2.7,0.6c-0.8,0.6-1.3,1.4-1.4,2.4L0.2,218c-0.2,1.8,1,3.5,2.8,3.9l127.7,26.5
			c0.2,0,0.5,0.1,0.7,0.1c1.5,0,2.9-1,3.4-2.5l45.5-157.4c0.3-0.9,0.1-1.9-0.4-2.8C179.3,84.9,178.5,84.3,177.5,84.2z M128.9,240.9
			L7.5,215.7L27.7,60.1l144.8,30.1L128.9,240.9z"/>
		<path d="M33,155.5h17.7c1.9,0,3.5-1.6,3.5-3.5s-1.6-3.5-3.5-3.5H36.4v-35h35v3.6c0,1.9,1.6,3.5,3.5,3.5s3.5-1.6,3.5-3.5v-7.9
			c0-1.9-1-2.7-3-2.7H33c-1.9,0-3.5,0.8-3.5,2.7v42.5C29.4,153.7,31,155.5,33,155.5z"/>
		<path d="M116.4,130c0-1.9-1.6-3.5-3.5-3.5h-50c-1.9,0-3.5,1.6-3.5,3.5v50c0,1.9,1.6,3.5,3.5,3.5h50c1.9,0,3.5-1.6,3.5-3.5V130z
			 M109.4,176.5h-43v-43h43V176.5z"/>
		<path d="M89.9,120.6c1.9,0,3.5-1.6,3.5-3.5v-6.6h41v41H126c-1.9,0-3.5,1.6-3.5,3.5s1.6,3.5,3.5,3.5h12.4c1.9,0,3.1-1.8,3.1-3.7
			v-48.6c0-1.9-1.2-2.7-3.1-2.7H89.7c-1.9,0-3.3,0.7-3.3,2.7v11C86.4,119.1,88,120.6,89.9,120.6z"/>
		<path d="M381.4,218l-21-162.5c-0.1-1-0.6-1.8-1.4-2.4c-0.8-0.6-1.8-0.8-2.7-0.6L204,84.2c-1,0.2-1.8,0.8-2.3,1.6
			c-0.5,0.8-0.6,1.8-0.4,2.8L246.8,246c0.4,1.5,1.8,2.5,3.4,2.5c0.2,0,0.5,0,0.7-0.1l127.7-26.5C380.4,221.5,381.6,219.8,381.4,218z
			 M252.7,240.9L209.2,90.2l144.8-30.1L374,215.7L252.7,240.9z"/>
		<path d="M348.6,106.5h-42.5c-1.9,0-3.7,0.8-3.7,2.7v7.9c0,1.9,1.6,3.5,3.5,3.5s3.5-1.6,3.5-3.5v-3.6h36v35H331
			c-1.9,0-3.5,1.6-3.5,3.5s1.6,3.5,3.5,3.5h17.7c1.9,0,3.8-1.8,3.8-3.8v-42.5C352.4,107.3,350.5,106.5,348.6,106.5z"/>
		<path d="M297.4,103c0-1.9-1.6-3.5-3.5-3.5h-50c-1.9,0-3.5,1.6-3.5,3.5v50c0,1.9,1.6,3.5,3.5,3.5h50c1.9,0,3.5-1.6,3.5-3.5V103z
			 M290.4,150.5h-43v-44h43V150.5z"/>
		<path d="M320.9,125.5h-14.4c-1.9,0-3.5,1.6-3.5,3.5s1.6,3.5,3.5,3.5h10.9v41h-42v-7.7c0-1.9-1.6-3.5-3.5-3.5s-3.5,1.6-3.5,3.5v11
			c0,1.9,1.9,3.7,3.8,3.7h48.6c1.9,0,3.5-1.8,3.5-3.7v-48.6C324.4,126.2,322.8,125.5,320.9,125.5z"/>
		<path d="M191.9-0.4c-1.9,0-3.5,1.6-3.5,3.5v51c0,1.9,1.6,3.5,3.5,3.5c1.9,0,3.5-1.6,3.5-3.5v-51C195.4,1.1,193.9-0.4,191.9-0.4z"
			/>
		<path d="M206.9,63.7c0.9,0,1.8-0.3,2.5-1l36.1-36.1c1.4-1.4,1.4-3.6,0-5c-1.4-1.4-3.6-1.4-4.9,0l-36.1,36.1c-1.4,1.4-1.4,3.6,0,5
			C205.1,63.4,206,63.7,206.9,63.7z"/>
		<path d="M143.6,21.7c-1.4-1.4-3.6-1.4-5,0c-1.4,1.4-1.4,3.6,0,5l36.1,36.1c0.7,0.7,1.6,1,2.5,1s1.8-0.3,2.5-1c1.4-1.4,1.4-3.6,0-5
			L143.6,21.7z"/>
	</g>
	<g>
		<path fill="#FFFFFF" d="M612.5,84.2L460.4,52.5c-1-0.2-1.9,0-2.7,0.6c-0.8,0.6-1.3,1.4-1.4,2.4l-21,162.5c-0.2,1.8,1,3.5,2.8,3.9
			l127.7,26.5c0.2,0,0.5,0.1,0.7,0.1c1.5,0,2.9-1,3.4-2.5l45.5-157.4c0.3-0.9,0.1-1.9-0.4-2.8C614.3,84.9,613.5,84.3,612.5,84.2z
			 M563.9,240.9l-121.4-25.2l20.1-155.5l144.8,30.1L563.9,240.9z"/>
		<path fill="#FFFFFF" d="M468,155.5h17.7c1.9,0,3.5-1.6,3.5-3.5s-1.6-3.5-3.5-3.5h-14.2v-35h35v3.6c0,1.9,1.6,3.5,3.5,3.5
			s3.5-1.6,3.5-3.5v-7.9c0-1.9-1-2.7-3-2.7H468c-1.9,0-3.5,0.8-3.5,2.7v42.5C464.4,153.7,466,155.5,468,155.5z"/>
		<path fill="#FFFFFF" d="M551.4,130c0-1.9-1.6-3.5-3.5-3.5h-50c-1.9,0-3.5,1.6-3.5,3.5v50c0,1.9,1.6,3.5,3.5,3.5h50
			c1.9,0,3.5-1.6,3.5-3.5V130z M544.4,176.5h-43v-43h43V176.5z"/>
		<path fill="#FFFFFF" d="M524.9,120.6c1.9,0,3.5-1.6,3.5-3.5v-6.6h41v41H561c-1.9,0-3.5,1.6-3.5,3.5s1.6,3.5,3.5,3.5h12.4
			c1.9,0,3.1-1.8,3.1-3.7v-48.6c0-1.9-1.2-2.7-3.1-2.7h-48.6c-1.9,0-3.3,0.7-3.3,2.7v11C521.4,119.1,523,120.6,524.9,120.6z"/>
		<path fill="#FFFFFF" d="M816.4,218l-21-162.5c-0.1-1-0.6-1.8-1.4-2.4c-0.8-0.6-1.8-0.8-2.7-0.6L639,84.2c-1,0.2-1.8,0.8-2.3,1.6
			c-0.5,0.8-0.6,1.8-0.4,2.8L681.8,246c0.4,1.5,1.8,2.5,3.4,2.5c0.2,0,0.5,0,0.7-0.1l127.7-26.5C815.4,221.5,816.6,219.8,816.4,218z
			 M687.7,240.9L644.2,90.2l144.8-30.1L809,215.7L687.7,240.9z"/>
		<path fill="#FFFFFF" d="M783.6,106.5h-42.5c-1.9,0-3.7,0.8-3.7,2.7v7.9c0,1.9,1.6,3.5,3.5,3.5s3.5-1.6,3.5-3.5v-3.6h36v35H766
			c-1.9,0-3.5,1.6-3.5,3.5s1.6,3.5,3.5,3.5h17.7c1.9,0,3.8-1.8,3.8-3.8v-42.5C787.4,107.3,785.5,106.5,783.6,106.5z"/>
		<path fill="#FFFFFF" d="M732.4,103c0-1.9-1.6-3.5-3.5-3.5h-50c-1.9,0-3.5,1.6-3.5,3.5v50c0,1.9,1.6,3.5,3.5,3.5h50
			c1.9,0,3.5-1.6,3.5-3.5V103z M725.4,150.5h-43v-44h43V150.5z"/>
		<path fill="#FFFFFF" d="M755.9,125.5h-14.4c-1.9,0-3.5,1.6-3.5,3.5s1.6,3.5,3.5,3.5h10.9v41h-42v-7.7c0-1.9-1.6-3.5-3.5-3.5
			s-3.5,1.6-3.5,3.5v11c0,1.9,1.9,3.7,3.8,3.7h48.6c1.9,0,3.5-1.8,3.5-3.7v-48.6C759.4,126.2,757.8,125.5,755.9,125.5z"/>
		<path fill="#FFFFFF" d="M626.9-0.4c-1.9,0-3.5,1.6-3.5,3.5v51c0,1.9,1.6,3.5,3.5,3.5c1.9,0,3.5-1.6,3.5-3.5v-51
			C630.4,1.1,628.9-0.4,626.9-0.4z"/>
		<path fill="#FFFFFF" d="M641.9,63.7c0.9,0,1.8-0.3,2.5-1l36.1-36.1c1.4-1.4,1.4-3.6,0-5c-1.4-1.4-3.6-1.4-4.9,0l-36.1,36.1
			c-1.4,1.4-1.4,3.6,0,5C640.1,63.4,641,63.7,641.9,63.7z"/>
		<path fill="#FFFFFF" d="M578.6,21.7c-1.4-1.4-3.6-1.4-5,0c-1.4,1.4-1.4,3.6,0,5l36.1,36.1c0.7,0.7,1.6,1,2.5,1s1.8-0.3,2.5-1
			c1.4-1.4,1.4-3.6,0-5L578.6,21.7z"/>
	</g>
</g>
<g id="Layer_2">
</g>
</svg>
