<?xml version="1.0" encoding="utf-8"?>
<!-- Generator: Adobe Illustrator 18.1.0, SVG Export Plug-In . SVG Version: 6.00 Build 0)  -->
<!DOCTYPE svg PUBLIC "-//W3C//DTD SVG 1.1//EN" "http://www.w3.org/Graphics/SVG/1.1/DTD/svg11.dtd">
<svg version="1.1" xmlns="http://www.w3.org/2000/svg" xmlns:xlink="http://www.w3.org/1999/xlink" x="0px" y="0px"
	 viewBox="0 0 381.3 248.9" enable-background="new 0 0 381.3 248.9" xml:space="preserve">
<g id="Layer_1">
	<g>
		<path d="M-257.6,84.6L-409.8,53c-1-0.2-1.9,0-2.7,0.6c-0.8,0.6-1.3,1.4-1.4,2.4l-21,162.5c-0.2,1.8,1,3.5,2.8,3.9l127.7,26.5
			c0.2,0,0.5,0.1,0.7,0.1c1.5,0,2.9-1,3.4-2.5L-255,89c0.3-0.9,0.1-1.9-0.4-2.8C-255.8,85.4-256.6,84.8-257.6,84.6z M-306.2,241.3
			l-121.4-25.2l20.1-155.5l144.8,30.1L-306.2,241.3z"/>
		<path d="M-402.2,155.9h17.7c1.9,0,3.5-1.6,3.5-3.5s-1.6-3.5-3.5-3.5h-14.2v-35h35v3.6c0,1.9,1.6,3.5,3.5,3.5s3.5-1.6,3.5-3.5v-7.9
			c0-1.9-1-2.7-3-2.7h-42.5c-1.9,0-3.5,0.8-3.5,2.7v42.5C-405.7,154.1-404.1,155.9-402.2,155.9z"/>
		<path d="M-318.7,130.4c0-1.9-1.6-3.5-3.5-3.5h-50c-1.9,0-3.5,1.6-3.5,3.5v50c0,1.9,1.6,3.5,3.5,3.5h50c1.9,0,3.5-1.6,3.5-3.5
			V130.4z M-325.7,176.9h-43v-43h43V176.9z"/>
		<path d="M-345.2,121.1c1.9,0,3.5-1.6,3.5-3.5v-6.6h41v41h-8.5c-1.9,0-3.5,1.6-3.5,3.5s1.6,3.5,3.5,3.5h12.4c1.9,0,3.1-1.8,3.1-3.7
			v-48.6c0-1.9-1.2-2.7-3.1-2.7h-48.6c-1.9,0-3.3,0.7-3.3,2.7v11C-348.7,119.5-347.2,121.1-345.2,121.1z"/>
		<path d="M-53.8,218.4l-21-162.5c-0.1-1-0.6-1.8-1.4-2.4C-77,53-78,52.8-79,53l-152.2,31.6c-1,0.2-1.8,0.8-2.3,1.6
			c-0.5,0.8-0.6,1.8-0.4,2.8l45.5,157.4c0.4,1.5,1.8,2.5,3.4,2.5c0.2,0,0.5,0,0.7-0.1l127.7-26.5C-54.7,221.9-53.5,220.3-53.8,218.4
			z M-182.5,241.3L-226,90.7l144.8-30.1l20.1,155.5L-182.5,241.3z"/>
		<path d="M-86.5,106.9H-129c-1.9,0-3.7,0.8-3.7,2.7v7.9c0,1.9,1.6,3.5,3.5,3.5c1.9,0,3.5-1.6,3.5-3.5v-3.6h36v35h-14.5
			c-1.9,0-3.5,1.6-3.5,3.5s1.6,3.5,3.5,3.5h17.7c1.9,0,3.8-1.8,3.8-3.8v-42.5C-82.7,107.7-84.6,106.9-86.5,106.9z"/>
		<path d="M-137.7,103.4c0-1.9-1.6-3.5-3.5-3.5h-50c-1.9,0-3.5,1.6-3.5,3.5v50c0,1.9,1.6,3.5,3.5,3.5h50c1.9,0,3.5-1.6,3.5-3.5
			V103.4z M-144.7,150.9h-43v-44h43V150.9z"/>
		<path d="M-114.3,125.9h-14.4c-1.9,0-3.5,1.6-3.5,3.5s1.6,3.5,3.5,3.5h10.9v41h-42v-7.7c0-1.9-1.6-3.5-3.5-3.5s-3.5,1.6-3.5,3.5v11
			c0,1.9,1.9,3.7,3.8,3.7h48.6c1.9,0,3.5-1.8,3.5-3.7v-48.6C-110.7,126.7-112.3,125.9-114.3,125.9z"/>
		<path d="M-243.2,0c-1.9,0-3.5,1.6-3.5,3.5v51c0,1.9,1.6,3.5,3.5,3.5c1.9,0,3.5-1.6,3.5-3.5v-51C-239.7,1.6-241.3,0-243.2,0z"/>
		<path d="M-228.2,64.2c0.9,0,1.8-0.3,2.5-1l36.1-36.1c1.4-1.4,1.4-3.6,0-5c-1.4-1.4-3.6-1.4-4.9,0l-36.1,36.1c-1.4,1.4-1.4,3.6,0,5
			C-230,63.8-229.1,64.2-228.2,64.2z"/>
		<path d="M-291.5,22.1c-1.4-1.4-3.6-1.4-5,0c-1.4,1.4-1.4,3.6,0,5l36.1,36.1c0.7,0.7,1.6,1,2.5,1s1.8-0.3,2.5-1
			c1.4-1.4,1.4-3.6,0-5L-291.5,22.1z"/>
	</g>
	<g>
		<path fill="#FFFFFF" d="M177.4,84.6L25.2,53c-1-0.2-1.9,0-2.7,0.6c-0.8,0.6-1.3,1.4-1.4,2.4L0,218.4c-0.2,1.8,1,3.5,2.8,3.9
			l127.7,26.5c0.2,0,0.5,0.1,0.7,0.1c1.5,0,2.9-1,3.4-2.5L180,89c0.3-0.9,0.1-1.9-0.4-2.8C179.2,85.4,178.4,84.8,177.4,84.6z
			 M128.8,241.3L7.4,216.1L27.5,60.6l144.8,30.1L128.8,241.3z"/>
		<path fill="#FFFFFF" d="M32.8,155.9h17.7c1.9,0,3.5-1.6,3.5-3.5s-1.6-3.5-3.5-3.5H36.3v-35h35v3.6c0,1.9,1.6,3.5,3.5,3.5
			s3.5-1.6,3.5-3.5v-7.9c0-1.9-1-2.7-3-2.7H32.8c-1.9,0-3.5,0.8-3.5,2.7v42.5C29.3,154.1,30.9,155.9,32.8,155.9z"/>
		<path fill="#FFFFFF" d="M116.3,130.4c0-1.9-1.6-3.5-3.5-3.5h-50c-1.9,0-3.5,1.6-3.5,3.5v50c0,1.9,1.6,3.5,3.5,3.5h50
			c1.9,0,3.5-1.6,3.5-3.5V130.4z M109.3,176.9h-43v-43h43V176.9z"/>
		<path fill="#FFFFFF" d="M89.8,121.1c1.9,0,3.5-1.6,3.5-3.5v-6.6h41v41h-8.5c-1.9,0-3.5,1.6-3.5,3.5s1.6,3.5,3.5,3.5h12.4
			c1.9,0,3.1-1.8,3.1-3.7v-48.6c0-1.9-1.2-2.7-3.1-2.7H89.5c-1.9,0-3.3,0.7-3.3,2.7v11C86.3,119.5,87.8,121.1,89.8,121.1z"/>
		<path fill="#FFFFFF" d="M381.2,218.4l-21-162.5c-0.1-1-0.6-1.8-1.4-2.4C358,53,357,52.8,356,53L203.9,84.6c-1,0.2-1.8,0.8-2.3,1.6
			c-0.5,0.8-0.6,1.8-0.4,2.8l45.5,157.4c0.4,1.5,1.8,2.5,3.4,2.5c0.2,0,0.5,0,0.7-0.1l127.7-26.5
			C380.3,221.9,381.5,220.3,381.2,218.4z M252.5,241.3L209,90.7l144.8-30.1l20.1,155.5L252.5,241.3z"/>
		<path fill="#FFFFFF" d="M348.5,106.9H306c-1.9,0-3.7,0.8-3.7,2.7v7.9c0,1.9,1.6,3.5,3.5,3.5s3.5-1.6,3.5-3.5v-3.6h36v35h-14.5
			c-1.9,0-3.5,1.6-3.5,3.5s1.6,3.5,3.5,3.5h17.7c1.9,0,3.8-1.8,3.8-3.8v-42.5C352.3,107.7,350.4,106.9,348.5,106.9z"/>
		<path fill="#FFFFFF" d="M297.3,103.4c0-1.9-1.6-3.5-3.5-3.5h-50c-1.9,0-3.5,1.6-3.5,3.5v50c0,1.9,1.6,3.5,3.5,3.5h50
			c1.9,0,3.5-1.6,3.5-3.5V103.4z M290.3,150.9h-43v-44h43V150.9z"/>
		<path fill="#FFFFFF" d="M320.7,125.9h-14.4c-1.9,0-3.5,1.6-3.5,3.5s1.6,3.5,3.5,3.5h10.9v41h-42v-7.7c0-1.9-1.6-3.5-3.5-3.5
			s-3.5,1.6-3.5,3.5v11c0,1.9,1.9,3.7,3.8,3.7h48.6c1.9,0,3.5-1.8,3.5-3.7v-48.6C324.3,126.7,322.7,125.9,320.7,125.9z"/>
		<path fill="#FFFFFF" d="M191.8,0c-1.9,0-3.5,1.6-3.5,3.5v51c0,1.9,1.6,3.5,3.5,3.5c1.9,0,3.5-1.6,3.5-3.5v-51
			C195.3,1.6,193.7,0,191.8,0z"/>
		<path fill="#FFFFFF" d="M206.8,64.2c0.9,0,1.8-0.3,2.5-1l36.1-36.1c1.4-1.4,1.4-3.6,0-5c-1.4-1.4-3.6-1.4-4.9,0l-36.1,36.1
			c-1.4,1.4-1.4,3.6,0,5C205,63.8,205.9,64.2,206.8,64.2z"/>
		<path fill="#FFFFFF" d="M143.5,22.1c-1.4-1.4-3.6-1.4-5,0c-1.4,1.4-1.4,3.6,0,5l36.1,36.1c0.7,0.7,1.6,1,2.5,1s1.8-0.3,2.5-1
			c1.4-1.4,1.4-3.6,0-5L143.5,22.1z"/>
	</g>
</g>
<g id="Layer_2">
</g>
</svg>
