<?xml version="1.0" encoding="UTF-8" standalone="no"?>
<svg width="150px" height="150px" viewBox="0 0 150 150" version="1.1" xmlns="http://www.w3.org/2000/svg" xmlns:xlink="http://www.w3.org/1999/xlink" xmlns:sketch="http://www.bohemiancoding.com/sketch/ns">
    <!-- Generator: Sketch 3.2.2 (9983) - http://www.bohemiancoding.com/sketch -->
    <title>Slice 1</title>
    <desc>Created with Sketch.</desc>
    <defs></defs>
    <g id="Page-1" stroke="none" stroke-width="1" fill="none" fill-rule="evenodd" sketch:type="MSPage">
        <g id="build-responsively" sketch:type="MSLayerGroup">
            <g id="Group" sketch:type="MSShapeGroup">
                <circle id="Oval" fill="#FFFFFF" cx="75" cy="75" r="61"></circle>
                <path d="M61.8,106 L61.8,106 C61.8,105.8 61.6,105.7 61.4,105.7 L60.9,105.7 L60.9,106.4 L61.4,106.4 C61.7,106.4 61.8,106.2 61.8,106 L61.8,106 Z M83.5,26.9 C83.7,26.8 83.9,26.8 84.1,26.7 C84.3,26.6 84.4,26.5 84.5,26.3 C84.6,26.1 84.7,26 84.7,25.8 C84.7,25.6 84.7,25.4 84.6,25.3 C84.5,25.1 84.4,25 84.3,24.8 C84.2,24.7 84,24.5 83.8,24.4 C83.6,24.3 83.4,24.2 83.2,24.2 L79,23.8 L78.7,26.6 L82.8,27.1 C83.1,27 83.3,27 83.5,26.9 L83.5,26.9 Z M97.5,73 C97.4,73.1 97.3,73.1 97.2,73.1 L95.3,73.1 L95.3,75.2 L96.9,75.2 L102.4,70.4 L102.4,70.3 L97.5,73 L97.5,73 Z M46.2,36 C46.4,35.9 46.5,35.7 46.6,35.5 C46.7,35.3 46.8,35.1 46.8,34.9 L46.8,34.4 C46.8,34.2 46.7,34.1 46.5,33.9 C46.4,33.7 46.2,33.6 46.1,33.6 C45.9,33.5 45.8,33.5 45.6,33.5 L45.6,33.3 L45.6,33.5 C45.4,33.5 45.2,33.5 45.1,33.6 C44.9,33.7 44.7,33.8 44.5,33.9 L41.3,36.5 L43.1,38.7 L46.2,36 L46.2,36 Z M88.9,30.1 C89.1,30.5 89.4,30.8 89.8,31.1 C90.2,31.4 90.6,31.7 91.1,31.8 C91.6,32 92.1,32.1 92.6,32.1 L92.7,32.1 C93.1,32.1 93.5,32 93.9,31.9 C94.3,31.8 94.6,31.6 94.9,31.3 C95.2,31.1 95.4,30.8 95.5,30.4 C95.6,30.1 95.7,29.7 95.6,29.3 C95.5,28.9 95.4,28.6 95.2,28.2 C95,27.8 94.7,27.5 94.3,27.2 C93.9,26.9 93.5,26.6 93,26.5 C92.5,26.3 92,26.2 91.5,26.2 L91.4,26.2 C91,26.2 90.6,26.3 90.2,26.4 C89.8,26.5 89.5,26.7 89.2,27 C88.9,27.2 88.7,27.5 88.6,27.9 C88.5,28.2 88.4,28.6 88.5,29 C88.6,29.3 88.7,29.7 88.9,30.1 L88.9,30.1 Z M31.6,94.1 L34.2,98.9 L35.7,98.1 L33.1,93.3 C33,93.2 32.9,93 32.8,92.9 C32.7,92.8 32.6,92.7 32.5,92.7 C32.4,92.7 32.3,92.6 32.1,92.6 C32,92.6 31.9,92.6 31.8,92.7 C31.7,92.8 31.6,92.8 31.6,92.9 C31.5,93 31.5,93.1 31.5,93.2 L31.5,93.6 C31.5,93.9 31.5,94 31.6,94.1 L31.6,94.1 Z M87.6,105.7 L87.1,105.7 L87.1,106.4 L87.6,106.4 C87.9,106.4 88,106.3 88,106.1 L88,106.1 C88,105.8 87.9,105.7 87.6,105.7 L87.6,105.7 Z M35.3,51.5 C35.5,51.1 35.6,50.7 35.7,50.4 C35.8,50 35.8,49.6 35.7,49.3 C35.6,49 35.5,48.6 35.3,48.4 C35.1,48.1 34.9,47.9 34.6,47.7 C34.3,47.5 34,47.5 33.7,47.4 L33.6,47.4 C33.3,47.4 33,47.5 32.7,47.6 C32.4,47.7 32.1,47.9 31.8,48.2 C31.5,48.5 31.3,48.8 31.1,49.1 L29.4,52 L33.8,54.4 L35.3,51.5 L35.3,51.5 Z M30.4,95.3 C30.3,95.2 30.2,95 30.1,94.9 C30,94.8 29.9,94.7 29.8,94.7 C29.7,94.7 29.6,94.6 29.4,94.6 L29.4,94.4 L29.4,94.6 C29.3,94.6 29.2,94.6 29.1,94.7 C29,94.8 28.9,94.8 28.9,94.9 C28.8,95 28.8,95.1 28.8,95.2 L28.8,95.6 C28.8,95.7 28.9,95.9 29,96 L31.4,100.4 L32.9,99.6 L30.4,95.3 L30.4,95.3 Z M103.8,96.6 C103.8,95.8 103.2,95.2 102.4,95.2 L90.4,95.2 C89.6,95.2 89,95.8 89,96.6 C89,97.4 89.6,98 90.4,98 L102.4,98 C103.1,98 103.8,97.4 103.8,96.6 L103.8,96.6 Z M90.6,97.3 C90.2,97.3 89.8,97 89.8,96.5 C89.8,96.1 90.1,95.7 90.6,95.7 C91,95.7 91.4,96 91.4,96.5 C91.4,97 91,97.3 90.6,97.3 L90.6,97.3 Z M93.5,97.3 C93.1,97.3 92.7,97 92.7,96.5 C92.7,96.1 93,95.7 93.5,95.7 C93.9,95.7 94.3,96 94.3,96.5 C94.3,97 93.9,97.3 93.5,97.3 L93.5,97.3 Z M96.4,97.3 C96,97.3 95.6,97 95.6,96.5 C95.6,96.1 95.9,95.7 96.4,95.7 C96.8,95.7 97.2,96 97.2,96.5 C97.1,97 96.8,97.3 96.4,97.3 L96.4,97.3 Z M99.3,97.3 C98.9,97.3 98.5,97 98.5,96.5 C98.5,96.1 98.8,95.7 99.3,95.7 C99.7,95.7 100.1,96 100.1,96.5 C100,97 99.7,97.3 99.3,97.3 L99.3,97.3 Z M101.4,96.6 C101.4,96.2 101.7,95.8 102.2,95.8 C102.6,95.8 103,96.1 103,96.6 C103,97 102.7,97.4 102.2,97.4 C101.7,97.3 101.4,97 101.4,96.6 L101.4,96.6 Z M58.5,95.2 L46.5,95.2 C45.7,95.2 45.1,95.8 45.1,96.6 C45.1,97.4 45.7,98 46.5,98 L58.5,98 C59.3,98 59.9,97.4 59.9,96.6 C59.9,95.8 59.3,95.2 58.5,95.2 L58.5,95.2 Z M46.9,97.3 C46.5,97.3 46.1,97 46.1,96.5 C46.1,96.1 46.4,95.7 46.9,95.7 C47.3,95.7 47.7,96 47.7,96.5 C47.6,97 47.3,97.3 46.9,97.3 L46.9,97.3 Z M49.7,97.3 C49.3,97.3 48.9,97 48.9,96.5 C48.9,96.1 49.2,95.7 49.7,95.7 C50.1,95.7 50.5,96 50.5,96.5 C50.5,97 50.2,97.3 49.7,97.3 L49.7,97.3 Z M52.6,97.3 C52.2,97.3 51.8,97 51.8,96.5 C51.8,96.1 52.1,95.7 52.6,95.7 C53,95.7 53.4,96 53.4,96.5 C53.4,97 53,97.3 52.6,97.3 L52.6,97.3 Z M55.5,97.3 C55.1,97.3 54.7,97 54.7,96.5 C54.7,96.1 55,95.7 55.5,95.7 C55.9,95.7 56.3,96 56.3,96.5 C56.3,97 55.9,97.3 55.5,97.3 L55.5,97.3 Z M58.4,97.3 C58,97.3 57.6,97 57.6,96.5 C57.6,96.1 57.9,95.7 58.4,95.7 C58.8,95.7 59.2,96 59.2,96.5 C59.1,97 58.8,97.3 58.4,97.3 L58.4,97.3 Z M100.1,64.7 L98.8,69.1 L101.4,68.1 L100.1,64.7 L100.1,64.7 Z M66.2,63 L66.2,67.2 L71.9,67.2 L66.2,63 L66.2,63 Z M53.9,83.7 L51.1,83.7 C50.9,83.7 50.7,83.9 50.7,84.1 L50.7,86.9 C50.7,87.1 50.9,87.3 51.1,87.3 L53.9,87.3 C54.1,87.3 54.3,87.1 54.3,86.9 L54.3,84.1 C54.4,83.9 54.2,83.7 53.9,83.7 L53.9,83.7 Z M83.2,106.7 L83.8,106.7 L83.5,105.9 L83.2,106.7 L83.2,106.7 Z M64.9,65.8 L64.9,62.2 L61.8,62.2 L64.9,65.8 L64.9,65.8 Z M51.9,65.4 L49.7,63.6 L49.5,63.6 L48.6,63.6 L46.3,65.4 L51.9,65.4 L51.9,65.4 Z M95,87.3 L97.8,87.3 C98,87.3 98.2,87.1 98.2,86.9 L98.2,84.1 C98.2,83.9 98,83.7 97.8,83.7 L95,83.7 C94.8,83.7 94.6,83.9 94.6,84.1 L94.6,86.9 C94.5,87.1 94.7,87.3 95,87.3 L95,87.3 Z M75,10.5 C39.4,10.5 10.5,39.4 10.5,75 C10.5,110.6 39.4,139.5 75,139.5 C110.6,139.5 139.5,110.6 139.5,75 C139.5,39.4 110.6,10.5 75,10.5 L75,10.5 Z M127.6,79.5 L125,79.5 L125,78 L126.1,78 L126,71.9 L124.3,71.9 L124.4,77.3 L122.8,77.3 L122.7,71.9 L121,71.9 L121,78 L122.1,78 L122.1,79.5 L119.5,79.5 L119.3,68.2 L120.9,68.2 L120.9,70.4 L125.9,70.3 L125.9,68.1 L127.5,68.1 L127.6,79.5 L127.6,79.5 Z M125.2,59 L123.7,59.4 L123.2,57.6 L119.4,61.5 L124.7,62.8 L124.2,61 L125.7,60.6 L127.3,66.3 L125.8,66.7 L125.2,64.6 L119.6,63.2 L120.1,65 L118.6,65.4 L116.7,58.7 L118.2,58.3 L118.7,60.1 L122.7,56 L122.1,53.9 L123.6,53.5 L125.2,59 L125.2,59 Z M122.6,52.2 L121.2,52.9 L120.2,51 L115.8,53.4 L116.8,55.3 L115.4,56 L112.6,50.8 L114,50.1 L115,52 L119.4,49.6 L118.4,47.7 L119.8,47 L122.6,52.2 L122.6,52.2 Z M112.1,38.6 C112.5,38.6 113,38.7 113.4,39 C113.8,39.2 114.2,39.5 114.6,39.9 C115,40.3 115.4,40.7 115.7,41.1 C116.1,41.6 116.4,42.1 116.7,42.5 C116.9,42.9 117.1,43.3 117.3,43.6 L117.4,43.5 L118.4,44.7 L116.4,46.4 L115.4,45.2 L116.1,44.6 C116,44.3 115.9,43.9 115.6,43.5 C115.3,43 115,42.5 114.6,42 C114.2,41.6 113.9,41.2 113.6,40.9 C113.3,40.6 113,40.5 112.8,40.3 C112.6,40.2 112.4,40.1 112.3,40.1 C112.2,40.1 112,40.1 112,40.2 C111.8,40.4 111.7,40.5 111.8,40.8 C111.8,41.1 112,41.4 112.2,41.8 L114.2,44.7 C114.3,44.9 114.4,45.1 114.6,45.4 C114.8,45.7 114.9,46 114.9,46.3 C115,46.6 115,47 114.9,47.4 C114.8,47.8 114.6,48.1 114.2,48.4 C113.8,48.7 113.4,48.9 113,48.9 L112.9,48.9 C112.5,48.9 112,48.7 111.6,48.5 C111.2,48.3 110.7,47.9 110.3,47.6 C109.9,47.2 109.5,46.8 109.2,46.4 C108.8,45.9 108.4,45.3 108.1,44.8 C107.8,44.4 107.6,44 107.5,43.6 L107.3,43.7 L106.3,42.5 L108.3,40.8 L109.3,42 L108.6,42.6 C108.7,42.9 108.9,43.3 109.1,43.8 C109.4,44.3 109.8,44.9 110.3,45.5 C110.7,45.9 111,46.3 111.3,46.6 C111.6,46.9 111.9,47.1 112.1,47.2 C112.3,47.3 112.5,47.4 112.7,47.4 L112.7,47.4 C112.9,47.4 112.9,47.4 113,47.3 C113.2,47.1 113.3,47 113.2,46.7 C113.2,46.4 113,46.1 112.8,45.7 L110.8,42.7 C110.7,42.5 110.6,42.3 110.4,42 C110.3,41.7 110.1,41.4 110.1,41.1 C110,40.8 110,40.4 110.1,40 C110.2,39.6 110.4,39.3 110.8,39 C111.2,38.8 111.6,38.6 112.1,38.6 L112.1,38.6 L112.1,38.6 Z M108.3,67 L97.6,76.4 C97.5,76.5 97.3,76.6 97.1,76.6 L92.3,76.6 C91.9,76.6 91.6,76.3 91.6,75.9 C91.6,75.5 91.9,75.2 92.3,75.2 L93.9,75.2 L93.9,73.1 L92.3,73.1 C92,73.1 91.7,72.9 91.6,72.5 C91.5,72.2 91.7,71.9 92,71.7 L97.2,69.7 L99,63.5 C98.3,63.3 97.8,62.7 97.6,61.7 C97.5,60.5 98.8,59.3 99.2,58.9 C99.3,58.8 99.3,58.8 99.3,58.7 C98.5,58.5 98,57.7 98.1,56.9 C98.2,56.3 98.6,55.9 99,55.6 L99,50.9 L99,50.9 L79.9,73.3 L89.8,85 L89.8,84.7 C89.8,84.7 89.9,79.8 96.3,79.8 C102.9,79.8 103.1,84.7 103.1,84.7 L103.1,85.6 L103.1,91.6 C103.1,91.8 102.9,92 102.7,92 L90.3,92 C90.1,92 89.9,91.8 89.9,91.6 L89.9,88 L74.4,77.2 L59.1,88 L59.1,91.6 C59.1,91.8 58.9,92 58.7,92 L46.2,92 C46,92 45.8,91.8 45.8,91.6 L45.8,85.6 L45.8,84.7 C45.8,84.7 45.9,79.8 52.6,79.8 C59,79.8 59.1,84.7 59.1,84.7 L59.1,85 L69,73.3 L49.9,51.1 L49.9,55.5 C50.6,55.8 51,56.5 50.9,57.3 C50.8,57.8 50.5,58.3 50.1,58.5 L50.1,58.8 C50,60.2 48.6,60.4 48.6,61.3 C48.6,61.5 48.6,61.6 48.7,61.7 L48.7,61.7 C49,61.5 49.3,61.5 49.6,61.7 L49.9,61.9 C49.9,61.9 50,61.9 50,61.8 C50.6,61.4 50.3,60.2 50.4,60.2 C50.5,60.2 51,60 51.2,61.3 C51.3,61.9 51.1,62.3 50.9,62.7 L54.3,65.4 C54.5,65.5 54.6,65.7 54.6,65.9 L54.6,75.4 C54.6,75.8 54.3,76.1 53.9,76.1 L44.4,76.1 C44,76.1 43.7,75.8 43.7,75.4 L43.7,65.9 C43.7,65.7 43.8,65.5 44,65.4 L44,65.4 L47.5,62.7 C47.3,62.4 47.1,62 47.1,61.6 C47,60.4 48.3,59.2 48.7,58.8 C48.8,58.7 48.8,58.7 48.8,58.6 C48,58.4 47.5,57.6 47.6,56.8 C47.7,56.2 48.1,55.8 48.5,55.5 L48.5,50.8 C48,50.5 47.7,50 47.7,49.4 C47.7,48.5 48.4,47.8 49.3,47.8 C50.1,47.8 50.8,48.4 50.9,49.3 L74.4,67 L98.5,48.8 C98.7,48.2 99.3,47.8 100,47.8 C100.9,47.8 101.6,48.5 101.6,49.4 C101.6,50.1 101.2,50.7 100.6,50.9 L100.6,55.5 C101.3,55.8 101.7,56.5 101.6,57.3 C101.5,57.8 101.2,58.3 100.8,58.5 L100.8,58.8 C100.7,60.2 99.3,60.4 99.3,61.3 C99.3,61.6 99.5,61.8 99.7,61.9 C99.8,61.8 99.9,61.8 100,61.8 C100.2,61.8 100.3,61.8 100.4,61.9 C100.5,61.9 100.6,61.8 100.7,61.8 C101.3,61.4 101,60.2 101.1,60.2 C101.2,60.2 101.7,60 101.9,61.3 C102,62.2 101.6,62.8 101,63.2 L102.7,67.5 L107.5,65.6 C107.8,65.5 108.2,65.6 108.4,65.9 C108.5,66 108.5,66.2 108.4,66.3 C108.5,66.7 108.5,66.9 108.3,67 L108.3,67 Z M91.9,105 L92.8,105 L91.8,106.2 L92.9,107.8 L92,107.8 L91.3,106.8 L91,107.1 L91,107.8 L90.2,107.8 L90.2,105 L91,105 L91,106.1 L91.9,105 L91.9,105 Z M90.4,99.4 C88.9,99.4 87.6,98.1 87.6,96.6 C87.6,95.1 88.9,93.8 90.4,93.8 L102.4,93.8 C103.9,93.8 105.2,95.1 105.2,96.6 C105.2,98.1 103.9,99.4 102.4,99.4 L90.4,99.4 L90.4,99.4 Z M88.9,107.8 L88,107.8 L87.4,107 L87.1,107 L87.1,107.8 L86.3,107.8 L86.3,105 L87.6,105 C88,105 88.3,105.1 88.5,105.3 C88.7,105.5 88.7,105.7 88.7,105.9 L88.7,105.9 C88.7,106.3 88.5,106.6 88.1,106.7 L88.9,107.8 L88.9,107.8 Z M56.4,105.7 L56.4,105 L58.8,105 L58.8,105.7 L58,105.7 L58,107.8 L57.2,107.8 L57.2,105.7 L56.4,105.7 L56.4,105.7 Z M58.5,99.4 L46.5,99.4 C45,99.4 43.7,98.1 43.7,96.6 C43.7,95.1 45,93.8 46.5,93.8 L58.5,93.8 C60,93.8 61.3,95.1 61.3,96.6 C61.3,98.1 60.1,99.4 58.5,99.4 L58.5,99.4 Z M60.2,105 L61.5,105 C61.9,105 62.2,105.1 62.4,105.3 C62.6,105.5 62.6,105.7 62.6,105.9 L62.6,105.9 C62.6,106.3 62.4,106.6 62,106.7 L62.7,107.7 L61.8,107.7 L61.2,106.9 L60.9,106.9 L60.9,107.7 L60.1,107.7 L60.1,105 L60.2,105 Z M67.8,44.8 L66.1,41.5 C66,41.4 66.1,41.3 66.2,41.2 L66.7,41 C66.8,41 66.9,41 67,41.1 L70.4,45.4 C70.5,45.5 70.6,45.6 70.6,45.7 L70.7,45.9 C70.8,46 70.8,46.1 70.7,46.2 L70.6,46.4 C70.5,46.5 70.4,46.6 70.4,46.7 L66.8,51.1 C66.7,51.2 66.6,51.2 66.5,51.2 L65.9,51 C65.8,51 65.8,50.8 65.8,50.7 L67.7,47.3 C67.8,47.2 67.7,47.1 67.6,47.1 L61.9,46.4 C61.8,46.4 61.7,46.3 61.7,46.2 L61.7,45.8 C61.7,45.7 61.8,45.6 61.9,45.6 L67.6,45 C67.8,45 67.8,44.9 67.8,44.8 L67.8,44.8 Z M99.7,29.5 L100.6,28.2 L103.8,30.6 L105,38.6 L107.5,35.2 L105.7,33.9 L106.6,32.6 L111.4,36.1 L110.5,37.4 L108.7,36.1 L104.8,41.3 L103.7,40.5 L102.4,31.9 L99.7,35.6 L101.5,36.9 L100.6,38.2 L95.8,34.7 L96.7,33.4 L98.5,34.7 L101.4,30.7 L99.7,29.5 L99.7,29.5 Z M87.1,27.3 C87.3,26.7 87.6,26.3 88.1,25.9 C88.5,25.5 89.1,25.2 89.7,25 C90.3,24.8 90.9,24.7 91.6,24.8 C92.3,24.8 93,25 93.7,25.2 C94.4,25.5 95,25.8 95.5,26.2 C96,26.6 96.5,27.1 96.8,27.7 C97.1,28.2 97.3,28.8 97.4,29.4 C97.5,30 97.4,30.6 97.2,31.1 C97,31.7 96.7,32.1 96.2,32.5 C95.8,32.9 95.2,33.2 94.6,33.4 C94.1,33.6 93.5,33.7 92.9,33.7 L92.7,33.7 C92,33.7 91.3,33.5 90.6,33.3 C89.9,33 89.3,32.7 88.8,32.3 C88.3,31.9 87.8,31.4 87.5,30.8 C87.2,30.3 87,29.7 86.9,29.1 C86.8,28.4 86.8,27.9 87.1,27.3 L87.1,27.3 Z M86.9,45.8 L86.9,46.2 C86.9,46.3 86.8,46.4 86.7,46.4 L81,47.2 C80.9,47.2 80.8,47.3 80.9,47.4 L82.8,50.8 C82.9,50.9 82.8,51 82.7,51.1 L82.1,51.4 C82,51.4 81.9,51.4 81.8,51.3 L78.2,46.9 C78.1,46.8 78,46.7 78,46.6 L77.9,46.4 C77.8,46.3 77.8,46.2 77.9,46.1 L78,45.9 C78.1,45.8 78.2,45.7 78.2,45.6 L81.6,41.3 C81.7,41.2 81.8,41.2 81.9,41.2 L82.4,41.4 C82.5,41.4 82.5,41.6 82.5,41.7 L80.8,45 C80.7,45.1 80.8,45.2 80.9,45.2 L86.6,45.8 C86.8,45.6 86.9,45.7 86.9,45.8 L86.9,45.8 Z M74.7,28.3 L76.9,28.5 L77.4,23.6 L75.2,23.4 L75.4,21.9 L83.3,22.8 C83.7,22.8 84.1,23 84.5,23.2 C84.9,23.4 85.2,23.6 85.4,23.9 C85.7,24.2 85.9,24.5 86,24.9 C86.1,25.3 86.2,25.7 86.1,26.1 C86.1,26.5 85.9,26.9 85.7,27.2 C85.5,27.5 85.2,27.8 84.9,28.1 C84.6,28.3 84.2,28.5 83.8,28.6 C83.4,28.7 83,28.7 82.5,28.7 L78.3,28.2 L78.2,28.8 L80.4,29 L80.2,30.5 L74.3,29.9 L74.7,28.3 L74.7,28.3 Z M73.4,36.7 L75.1,36.7 L75.1,54.5 L73.4,54.5 L73.4,36.7 L73.4,36.7 Z M63.7,24.2 C63.9,23.8 64.3,23.5 64.7,23.3 C65.1,23.1 65.6,22.9 66.1,22.7 C66.6,22.6 67.2,22.4 67.7,22.4 C68.3,22.3 68.8,22.3 69.3,22.3 L69.5,22.3 C69.9,22.3 70.4,22.3 70.8,22.4 L70.8,22.2 L72.3,22 L72.7,24.6 L71.2,24.8 L71,23.9 C70.7,23.8 70.3,23.7 69.8,23.7 C69.2,23.7 68.6,23.7 68,23.8 C67.4,23.9 67,24 66.6,24.1 C66.2,24.2 65.9,24.4 65.7,24.5 C65.5,24.6 65.3,24.8 65.3,24.9 C65.2,25 65.2,25.1 65.2,25.2 C65.2,25.4 65.4,25.6 65.6,25.7 C65.9,25.8 66.2,25.9 66.7,25.8 L70.4,25.6 L71,25.6 C71.3,25.6 71.7,25.7 72,25.8 C72.3,25.9 72.6,26.1 72.9,26.4 C73.2,26.7 73.4,27.1 73.4,27.5 C73.5,28 73.4,28.4 73.1,28.8 C72.9,29.2 72.5,29.5 72.1,29.7 C71.7,29.9 71.2,30.1 70.6,30.3 C70.1,30.4 69.5,30.6 69,30.6 C68.4,30.7 67.8,30.7 67.2,30.7 L67.1,30.7 C66.6,30.7 66.1,30.7 65.7,30.6 L65.7,30.8 L64.2,31 L63.8,28.4 L65.3,28.2 L65.4,29.1 C65.7,29.2 66.2,29.3 66.7,29.3 C67.3,29.3 68,29.3 68.7,29.2 C69.3,29.1 69.7,29 70.1,28.9 C70.5,28.8 70.8,28.6 71,28.5 C71.2,28.4 71.4,28.2 71.5,28.1 C71.6,28 71.6,27.9 71.6,27.8 C71.6,27.6 71.4,27.4 71.2,27.3 C70.9,27.2 70.6,27.1 70.1,27.2 L66.4,27.4 L65.8,27.4 C65.5,27.4 65.2,27.3 64.8,27.2 C64.5,27.1 64.2,26.9 63.9,26.6 C63.6,26.3 63.4,25.9 63.4,25.5 C63.4,25 63.5,24.6 63.7,24.2 L63.7,24.2 Z M59.6,24.1 L60.6,26.5 L59.2,27.1 L58.8,26.1 L53.2,28.5 L53.9,30.1 L58.9,28 L59.5,29.4 L54.5,31.5 L55.2,33.1 L60.8,30.7 L60.4,29.7 L61.8,29.1 L62.8,31.5 L52.4,36 L51.8,34.6 L53.8,33.7 L51.8,29.1 L49.8,30 L49.2,28.6 L59.6,24.1 L59.6,24.1 Z M43.5,32.6 C43.8,32.3 44.2,32.1 44.6,32 C45,31.9 45.4,31.8 45.8,31.8 C46.2,31.8 46.6,31.9 46.9,32.1 C47.3,32.3 47.6,32.5 47.8,32.8 C48,33.1 48.2,33.4 48.3,33.8 C48.4,34.2 48.4,34.5 48.4,34.9 C48.4,35.3 48.3,35.6 48.1,36 C48,36.2 47.9,36.4 47.7,36.6 L48.1,36.6 C48.3,36.6 48.5,36.6 48.7,36.5 C48.9,36.4 49.1,36.3 49.3,36.2 L50.3,35.3 L51.3,36.5 L50.2,37.4 C49.9,37.7 49.5,37.9 49.1,38 C48.7,38.1 48.3,38.2 47.9,38.2 L46.3,38 L44,39.8 L44.4,40.3 L46.1,38.9 L47.1,40.1 L42.5,43.8 L41.5,42.6 L43.2,41.2 L40,37.5 L38.3,38.9 L37.3,37.7 L43.5,32.6 L43.5,32.6 Z M29.6,48.3 C29.9,47.7 30.3,47.3 30.7,46.9 C31.1,46.5 31.6,46.2 32.1,46 C32.6,45.8 33.1,45.7 33.7,45.7 C34.2,45.7 34.8,45.9 35.3,46.1 C35.8,46.4 36.2,46.7 36.5,47.2 C36.8,47.6 37,48.1 37.2,48.7 C37.3,49.2 37.3,49.8 37.3,50.4 C37.2,51 37,51.6 36.7,52.1 L33.3,58.4 L32,57.7 L33,55.8 L28.6,53.4 L27.6,55.3 L26.2,54.6 L29.6,48.3 L29.6,48.3 Z M24,62.8 L25.5,63.1 L25,65.3 L29.8,66.4 L31.1,60.5 L30,60.3 L30.3,58.8 L32.9,59.4 L30.4,70.4 L29,70 L29.5,67.9 L24.7,66.8 L24.2,68.9 L22.7,68.6 L24,62.8 L24,62.8 Z M24.2,71.8 L24.2,74 L29.2,73.9 L29.2,71.7 L30.8,71.7 L30.9,77.6 L29.3,77.6 L29.3,75.4 L24.3,75.5 L24.3,77.7 L22.7,77.7 L22.6,71.8 L24.2,71.8 L24.2,71.8 Z M25.5,92.8 L24.2,87 L25.7,86.7 L26.2,88.8 L28.9,88.2 C29.2,88.1 29.5,88 29.8,87.8 C30.1,87.6 30.3,87.3 30.4,87 C30.6,86.7 30.7,86.3 30.7,85.9 C30.7,85.5 30.7,85.1 30.6,84.7 C30.5,84.3 30.4,83.9 30.1,83.6 C29.9,83.3 29.6,83 29.4,82.8 C29.1,82.6 28.8,82.4 28.5,82.3 C28.2,82.2 27.9,82.2 27.5,82.3 L24.8,82.9 L25.3,85 L23.8,85.3 L22.5,79.5 L24,79.2 L24.5,81.3 L27.2,80.7 C27.7,80.6 28.3,80.6 28.8,80.7 C29.3,80.8 29.8,81.1 30.3,81.4 C30.7,81.7 31.1,82.1 31.5,82.6 C31.8,83.1 32.1,83.6 32.2,84.3 C32.3,84.9 32.4,85.5 32.3,86.1 C32.2,86.7 32,87.2 31.8,87.7 C31.5,88.2 31.2,88.6 30.8,88.9 C30.4,89.2 29.9,89.5 29.3,89.6 L26.6,90.2 L27.1,92.3 L25.5,92.8 L25.5,92.8 Z M31.7,104.5 L27.5,96.8 C27.3,96.5 27.2,96.1 27.2,95.8 L27.2,94.8 C27.3,94.5 27.4,94.2 27.6,93.9 C27.8,93.6 28,93.4 28.3,93.3 C28.6,93.1 28.9,93.1 29.2,93 L29.8,93 C29.8,92.7 29.9,92.4 30.1,92.1 C30.3,91.7 30.6,91.5 31,91.3 C31.3,91.1 31.6,91.1 31.9,91 L32,91 C32.3,91 32.6,91.1 32.8,91.2 C33.1,91.3 33.4,91.5 33.7,91.7 C34,91.9 34.2,92.2 34.4,92.5 L38.8,100.6 L37.4,101.3 L36.4,99.4 L32,101.8 L33,103.7 L31.7,104.5 L31.7,104.5 Z M35.2,109.5 L41.7,103.8 C41.9,104.1 42.2,104.3 42.4,104.6 L36,110.4 C35.8,110.2 35.5,109.8 35.2,109.5 L35.2,109.5 Z M37.8,112.3 L43.9,106.2 L44.7,107 L38.8,113.3 C38.5,112.9 38.2,112.6 37.8,112.3 L37.8,112.3 Z M40.7,114.9 L46.3,108.3 C46.6,108.5 46.9,108.8 47.1,109 L41.6,115.7 C41.3,115.5 41,115.2 40.7,114.9 L40.7,114.9 Z M43.7,117.3 L48.8,110.3 C49.1,110.5 49.4,110.7 49.7,110.9 L44.7,118 C44.4,117.8 44,117.6 43.7,117.3 L43.7,117.3 Z M46.8,119.5 L51.4,112.2 C51.7,112.4 52,112.6 52.3,112.8 L47.9,120.2 C47.6,119.9 47.2,119.7 46.8,119.5 L46.8,119.5 Z M50.2,121.4 L54.3,113.8 C54.6,114 54.9,114.1 55.3,114.3 L51.4,122 C50.9,121.8 50.5,121.6 50.2,121.4 L50.2,121.4 Z M53.6,123.1 L57.1,115.2 C57.4,115.3 57.8,115.5 58.1,115.6 L54.8,123.6 C54.4,123.4 54,123.3 53.6,123.1 L53.6,123.1 Z M57.2,124.5 L60.1,116.4 C60.4,116.5 60.8,116.6 61.1,116.8 L58.4,125 C58,124.8 57.6,124.6 57.2,124.5 L57.2,124.5 Z M62.1,126 C61.7,125.9 61.3,125.8 60.8,125.7 L63.1,117.4 C63.4,117.5 63.8,117.6 64.2,117.7 L62.1,126 L62.1,126 Z M63.7,107.8 L64.9,105 L65.6,105 L66.8,107.8 L66,107.8 L65.8,107.3 L64.7,107.3 L64.5,107.8 L63.7,107.8 L63.7,107.8 Z M65.8,126.8 C65.4,126.7 64.9,126.6 64.5,126.6 L66.2,118.1 C66.6,118.2 66.9,118.2 67.3,118.3 L65.8,126.8 L65.8,126.8 Z M69.7,127.3 C69.3,127.3 68.8,127.2 68.4,127.2 L69.5,118.6 C69.9,118.6 70.2,118.7 70.6,118.7 L69.7,127.3 L69.7,127.3 Z M70.7,106.4 C70.7,107.2 70.1,107.8 69.1,107.8 L68,107.8 L68,105 L69.1,105 C70.1,105 70.7,105.6 70.7,106.4 L70.7,106.4 L70.7,106.4 Z M73.5,127.6 C73.1,127.6 72.6,127.6 72.2,127.5 L72.6,118.9 L73.7,118.9 L73.5,127.6 L73.5,127.6 Z M74.3,107.8 L72.1,107.8 L72.1,105 L74.3,105 L74.3,105.7 L72.8,105.7 L72.8,106.1 L74.1,106.1 L74.1,106.7 L72.8,106.7 L72.8,107.1 L74.3,107.1 L74.3,107.8 L74.3,107.8 Z M74.3,92 L63.1,93.3 L63.1,93.2 L74.2,88.8 L74.4,88.7 L74.6,88.8 L85.8,93.4 L85.7,93.7 L74.3,92 L74.3,92 Z M76,127.6 L75.8,119 L76.9,119 L77.3,127.6 C76.9,127.5 76.4,127.6 76,127.6 L76,127.6 Z M78.5,107.8 L77.7,107.8 L77.7,105 L78.5,105 L79.2,106.1 L79.9,105 L80.7,105 L80.7,107.8 L80,107.8 L80,106.2 L79.3,107.3 L78.6,106.2 L78.6,107.8 L78.5,107.8 Z M79.8,127.3 L79,118.7 C79.4,118.7 79.7,118.6 80.1,118.6 L81.1,127.2 C80.7,127.3 80.3,127.3 79.8,127.3 L79.8,127.3 Z M83.6,126.9 L82.2,118.4 C82.6,118.3 82.9,118.3 83.3,118.2 L84.9,126.7 C84.5,126.7 84.1,126.8 83.6,126.9 L83.6,126.9 Z M84.2,107.8 L84,107.3 L83,107.3 L82.8,107.8 L82,107.8 L83.2,105 L83.9,105 L85.1,107.8 L84.2,107.8 L84.2,107.8 Z M87.4,126.1 L85.4,117.7 C85.8,117.6 86.1,117.5 86.5,117.4 L88.7,125.7 C88.2,125.9 87.8,126 87.4,126.1 L87.4,126.1 Z M91.1,125.1 L88.4,116.9 C88.8,116.8 89.1,116.7 89.4,116.5 L92.2,124.7 C91.9,124.8 91.5,124.9 91.1,125.1 L91.1,125.1 Z M94.7,123.7 L91.4,115.7 C91.7,115.6 92.1,115.4 92.4,115.3 L95.8,123.2 C95.5,123.4 95.1,123.6 94.7,123.7 L94.7,123.7 Z M98.2,122.2 L94.4,114.4 C94.7,114.2 95,114.1 95.4,113.9 L99.4,121.6 C99,121.8 98.6,122 98.2,122.2 L98.2,122.2 Z M101.6,120.4 L97.2,113 C97.5,112.8 97.8,112.6 98.1,112.4 L102.6,119.7 C102.3,119.9 101.9,120.1 101.6,120.4 L101.6,120.4 Z M104.8,118.3 L99.9,111.2 C100.2,111 100.5,110.8 100.8,110.6 L105.9,117.6 C105.5,117.8 105.2,118.1 104.8,118.3 L104.8,118.3 Z M107.9,116 L102.5,109.3 C102.8,109.1 103.1,108.8 103.3,108.6 L108.9,115.2 C108.5,115.5 108.2,115.8 107.9,116 L107.9,116 Z M110.8,113.5 L104.9,107.2 C105.2,107 105.4,106.7 105.7,106.4 L111.7,112.6 C111.4,112.9 111.1,113.2 110.8,113.5 L110.8,113.5 Z M113.5,110.8 L107.2,104.9 C107.4,104.6 107.7,104.4 107.9,104.1 L114.4,109.8 C114.1,110.2 113.8,110.5 113.5,110.8 L113.5,110.8 Z M121.4,99 L120,98.2 L120.8,96.7 L117.3,97.7 L118.4,101.2 L119.2,99.7 L120.6,100.4 L117.8,105.6 L116.4,104.8 L117.4,103 L115.8,97.7 L114.9,97.2 L113.9,99.1 L112.5,98.3 L115.3,93.1 L116.7,93.8 L115.6,95.7 L116.5,96.2 L121.9,94.6 L122.9,92.8 L124.3,93.5 L121.4,99 L121.4,99 Z M125.6,88.5 L124.1,88.1 L124.7,86 L119.9,84.7 L118.3,90.5 L119.3,90.8 L118.9,92.3 L116.4,91.6 L119.4,80.7 L120.9,81.1 L120.3,83.2 L125.1,84.5 L125.7,82.4 L127.2,82.8 L125.6,88.5 L125.6,88.5 Z M45.1,67.7 L45.1,73.8 L48.2,70.7 L45.1,67.7 L45.1,67.7 Z M53.2,73.9 L53.2,67.8 L50.1,70.9 L53.2,73.9 L53.2,73.9 Z M46.1,74.8 L52.2,74.8 L49.1,71.7 L46.1,74.8 L46.1,74.8 Z M49.1,69.8 L52.2,66.7 L46.1,66.7 L49.1,69.8 L49.1,69.8 Z M55.5,54.9 L60.6,60.8 L63.3,60.8 L55.5,54.9 L55.5,54.9 Z M83.9,65.9 L87.1,62.2 L83.9,62.2 L83.9,65.9 L83.9,65.9 Z M82.5,67.3 L82.5,63.1 L77,67.3 L82.5,67.3 L82.5,67.3 Z M78.7,71.9 L81.5,68.6 L76,68.6 L78.7,71.9 L78.7,71.9 Z M69.1,105.7 L68.8,105.7 L68.8,107.1 L69.1,107.1 C69.6,107.1 69.9,106.8 69.9,106.4 L69.9,106.4 C69.9,106 69.6,105.7 69.1,105.7 L69.1,105.7 Z M88.3,60.8 L93.4,54.9 L85.6,60.8 L88.3,60.8 L88.3,60.8 Z M65.3,105.9 L65,106.7 L65.6,106.7 L65.3,105.9 L65.3,105.9 Z M74.4,69.5 L71.5,73 L74.4,75 L77.3,73 L74.4,69.5 L74.4,69.5 Z M72.9,68.7 L67.4,68.7 L70.2,72 L72.9,68.7 L72.9,68.7 Z M76,76.1 L85.9,83.1 L78.5,74.3 L76,76.1 L76,76.1 Z M63,83.1 L72.9,76.1 L70.4,74.3 L63,83.1 L63,83.1 Z" id="Shape" fill="#000000"></path>
            </g>
        </g>
    </g>
</svg>