<?xml version="1.0" encoding="UTF-8" standalone="no"?>
<svg width="150px" height="150px" viewBox="0 0 150 150" version="1.1" xmlns="http://www.w3.org/2000/svg" xmlns:xlink="http://www.w3.org/1999/xlink" xmlns:sketch="http://www.bohemiancoding.com/sketch/ns">
    <!-- Generator: Sketch 3.2.2 (9983) - http://www.bohemiancoding.com/sketch -->
    <title>build-responsively</title>
    <desc>Created with Sketch.</desc>
    <defs></defs>
    <g id="Page-1" stroke="none" stroke-width="1" fill="none" fill-rule="evenodd" sketch:type="MSPage">
        <g id="build-responsively" sketch:type="MSLayerGroup">
            <g id="Group" sketch:type="MSShapeGroup">
                <circle id="Oval" fill="#000000" cx="75" cy="75" r="70.3846154"></circle>
                <path d="M59.7692308,110.769231 L59.7692308,110.769231 C59.7692308,110.538462 59.5384615,110.423077 59.3076923,110.423077 L58.7307692,110.423077 L58.7307692,111.230769 L59.3076923,111.230769 C59.6538462,111.230769 59.7692308,111 59.7692308,110.769231 L59.7692308,110.769231 Z M84.8076923,19.5 C85.0384615,19.3846154 85.2692308,19.3846154 85.5,19.2692308 C85.7307692,19.1538462 85.8461538,19.0384615 85.9615385,18.8076923 C86.0769231,18.5769231 86.1923077,18.4615385 86.1923077,18.2307692 C86.1923077,18 86.1923077,17.7692308 86.0769231,17.6538462 C85.9615385,17.4230769 85.8461538,17.3076923 85.7307692,17.0769231 C85.6153846,16.9615385 85.3846154,16.7307692 85.1538462,16.6153846 C84.9230769,16.5 84.6923077,16.3846154 84.4615385,16.3846154 L79.6153846,15.9230769 L79.2692308,19.1538462 L84,19.7307692 C84.3461538,19.6153846 84.5769231,19.6153846 84.8076923,19.5 L84.8076923,19.5 Z M100.961538,72.6923077 C100.846154,72.8076923 100.730769,72.8076923 100.615385,72.8076923 L98.4230769,72.8076923 L98.4230769,75.2307692 L100.269231,75.2307692 L106.615385,69.6923077 L106.615385,69.5769231 L100.961538,72.6923077 L100.961538,72.6923077 Z M41.7692308,30 C42,29.8846154 42.1153846,29.6538462 42.2307692,29.4230769 C42.3461538,29.1923077 42.4615385,28.9615385 42.4615385,28.7307692 L42.4615385,28.1538462 C42.4615385,27.9230769 42.3461538,27.8076923 42.1153846,27.5769231 C42,27.3461538 41.7692308,27.2307692 41.6538462,27.2307692 C41.4230769,27.1153846 41.3076923,27.1153846 41.0769231,27.1153846 L41.0769231,26.8846154 L41.0769231,27.1153846 C40.8461538,27.1153846 40.6153846,27.1153846 40.5,27.2307692 C40.2692308,27.3461538 40.0384615,27.4615385 39.8076923,27.5769231 L36.1153846,30.5769231 L38.1923077,33.1153846 L41.7692308,30 L41.7692308,30 Z M91.0384615,23.1923077 C91.2692308,23.6538462 91.6153846,24 92.0769231,24.3461538 C92.5384615,24.6923077 93,25.0384615 93.5769231,25.1538462 C94.1538462,25.3846154 94.7307692,25.5 95.3076923,25.5 L95.4230769,25.5 C95.8846154,25.5 96.3461538,25.3846154 96.8076923,25.2692308 C97.2692308,25.1538462 97.6153846,24.9230769 97.9615385,24.5769231 C98.3076923,24.3461538 98.5384615,24 98.6538462,23.5384615 C98.7692308,23.1923077 98.8846154,22.7307692 98.7692308,22.2692308 C98.6538462,21.8076923 98.5384615,21.4615385 98.3076923,21 C98.0769231,20.5384615 97.7307692,20.1923077 97.2692308,19.8461538 C96.8076923,19.5 96.3461538,19.1538462 95.7692308,19.0384615 C95.1923077,18.8076923 94.6153846,18.6923077 94.0384615,18.6923077 L93.9230769,18.6923077 C93.4615385,18.6923077 93,18.8076923 92.5384615,18.9230769 C92.0769231,19.0384615 91.7307692,19.2692308 91.3846154,19.6153846 C91.0384615,19.8461538 90.8076923,20.1923077 90.6923077,20.6538462 C90.5769231,21 90.4615385,21.4615385 90.5769231,21.9230769 C90.6923077,22.2692308 90.8076923,22.7307692 91.0384615,23.1923077 L91.0384615,23.1923077 Z M24.9230769,97.0384615 L27.9230769,102.576923 L29.6538462,101.653846 L26.6538462,96.1153846 C26.5384615,96 26.4230769,95.7692308 26.3076923,95.6538462 C26.1923077,95.5384615 26.0769231,95.4230769 25.9615385,95.4230769 C25.8461538,95.4230769 25.7307692,95.3076923 25.5,95.3076923 C25.3846154,95.3076923 25.2692308,95.3076923 25.1538462,95.4230769 C25.0384615,95.5384615 24.9230769,95.5384615 24.9230769,95.6538462 C24.8076923,95.7692308 24.8076923,95.8846154 24.8076923,96 L24.8076923,96.4615385 C24.8076923,96.8076923 24.8076923,96.9230769 24.9230769,97.0384615 L24.9230769,97.0384615 Z M89.5384615,110.423077 L88.9615385,110.423077 L88.9615385,111.230769 L89.5384615,111.230769 C89.8846154,111.230769 90,111.115385 90,110.884615 L90,110.884615 C90,110.538462 89.8846154,110.423077 89.5384615,110.423077 L89.5384615,110.423077 Z M29.1923077,47.8846154 C29.4230769,47.4230769 29.5384615,46.9615385 29.6538462,46.6153846 C29.7692308,46.1538462 29.7692308,45.6923077 29.6538462,45.3461538 C29.5384615,45 29.4230769,44.5384615 29.1923077,44.3076923 C28.9615385,43.9615385 28.7307692,43.7307692 28.3846154,43.5 C28.0384615,43.2692308 27.6923077,43.2692308 27.3461538,43.1538462 L27.2307692,43.1538462 C26.8846154,43.1538462 26.5384615,43.2692308 26.1923077,43.3846154 C25.8461538,43.5 25.5,43.7307692 25.1538462,44.0769231 C24.8076923,44.4230769 24.5769231,44.7692308 24.3461538,45.1153846 L22.3846154,48.4615385 L27.4615385,51.2307692 L29.1923077,47.8846154 L29.1923077,47.8846154 Z M23.5384615,98.4230769 C23.4230769,98.3076923 23.3076923,98.0769231 23.1923077,97.9615385 C23.0769231,97.8461538 22.9615385,97.7307692 22.8461538,97.7307692 C22.7307692,97.7307692 22.6153846,97.6153846 22.3846154,97.6153846 L22.3846154,97.3846154 L22.3846154,97.6153846 C22.2692308,97.6153846 22.1538462,97.6153846 22.0384615,97.7307692 C21.9230769,97.8461538 21.8076923,97.8461538 21.8076923,97.9615385 C21.6923077,98.0769231 21.6923077,98.1923077 21.6923077,98.3076923 L21.6923077,98.7692308 C21.6923077,98.8846154 21.8076923,99.1153846 21.9230769,99.2307692 L24.6923077,104.307692 L26.4230769,103.384615 L23.5384615,98.4230769 L23.5384615,98.4230769 Z M108.230769,99.9230769 C108.230769,99 107.538462,98.3076923 106.615385,98.3076923 L92.7692308,98.3076923 C91.8461538,98.3076923 91.1538462,99 91.1538462,99.9230769 C91.1538462,100.846154 91.8461538,101.538462 92.7692308,101.538462 L106.615385,101.538462 C107.423077,101.538462 108.230769,100.846154 108.230769,99.9230769 L108.230769,99.9230769 Z M93,100.730769 C92.5384615,100.730769 92.0769231,100.384615 92.0769231,99.8076923 C92.0769231,99.3461538 92.4230769,98.8846154 93,98.8846154 C93.4615385,98.8846154 93.9230769,99.2307692 93.9230769,99.8076923 C93.9230769,100.384615 93.4615385,100.730769 93,100.730769 L93,100.730769 Z M96.3461538,100.730769 C95.8846154,100.730769 95.4230769,100.384615 95.4230769,99.8076923 C95.4230769,99.3461538 95.7692308,98.8846154 96.3461538,98.8846154 C96.8076923,98.8846154 97.2692308,99.2307692 97.2692308,99.8076923 C97.2692308,100.384615 96.8076923,100.730769 96.3461538,100.730769 L96.3461538,100.730769 Z M99.6923077,100.730769 C99.2307692,100.730769 98.7692308,100.384615 98.7692308,99.8076923 C98.7692308,99.3461538 99.1153846,98.8846154 99.6923077,98.8846154 C100.153846,98.8846154 100.615385,99.2307692 100.615385,99.8076923 C100.5,100.384615 100.153846,100.730769 99.6923077,100.730769 L99.6923077,100.730769 Z M103.038462,100.730769 C102.576923,100.730769 102.115385,100.384615 102.115385,99.8076923 C102.115385,99.3461538 102.461538,98.8846154 103.038462,98.8846154 C103.5,98.8846154 103.961538,99.2307692 103.961538,99.8076923 C103.846154,100.384615 103.5,100.730769 103.038462,100.730769 L103.038462,100.730769 Z M105.461538,99.9230769 C105.461538,99.4615385 105.807692,99 106.384615,99 C106.846154,99 107.307692,99.3461538 107.307692,99.9230769 C107.307692,100.384615 106.961538,100.846154 106.384615,100.846154 C105.807692,100.730769 105.461538,100.384615 105.461538,99.9230769 L105.461538,99.9230769 Z M55.9615385,98.3076923 L42.1153846,98.3076923 C41.1923077,98.3076923 40.5,99 40.5,99.9230769 C40.5,100.846154 41.1923077,101.538462 42.1153846,101.538462 L55.9615385,101.538462 C56.8846154,101.538462 57.5769231,100.846154 57.5769231,99.9230769 C57.5769231,99 56.8846154,98.3076923 55.9615385,98.3076923 L55.9615385,98.3076923 Z M42.5769231,100.730769 C42.1153846,100.730769 41.6538462,100.384615 41.6538462,99.8076923 C41.6538462,99.3461538 42,98.8846154 42.5769231,98.8846154 C43.0384615,98.8846154 43.5,99.2307692 43.5,99.8076923 C43.3846154,100.384615 43.0384615,100.730769 42.5769231,100.730769 L42.5769231,100.730769 Z M45.8076923,100.730769 C45.3461538,100.730769 44.8846154,100.384615 44.8846154,99.8076923 C44.8846154,99.3461538 45.2307692,98.8846154 45.8076923,98.8846154 C46.2692308,98.8846154 46.7307692,99.2307692 46.7307692,99.8076923 C46.7307692,100.384615 46.3846154,100.730769 45.8076923,100.730769 L45.8076923,100.730769 Z M49.1538462,100.730769 C48.6923077,100.730769 48.2307692,100.384615 48.2307692,99.8076923 C48.2307692,99.3461538 48.5769231,98.8846154 49.1538462,98.8846154 C49.6153846,98.8846154 50.0769231,99.2307692 50.0769231,99.8076923 C50.0769231,100.384615 49.6153846,100.730769 49.1538462,100.730769 L49.1538462,100.730769 Z M52.5,100.730769 C52.0384615,100.730769 51.5769231,100.384615 51.5769231,99.8076923 C51.5769231,99.3461538 51.9230769,98.8846154 52.5,98.8846154 C52.9615385,98.8846154 53.4230769,99.2307692 53.4230769,99.8076923 C53.4230769,100.384615 52.9615385,100.730769 52.5,100.730769 L52.5,100.730769 Z M55.8461538,100.730769 C55.3846154,100.730769 54.9230769,100.384615 54.9230769,99.8076923 C54.9230769,99.3461538 55.2692308,98.8846154 55.8461538,98.8846154 C56.3076923,98.8846154 56.7692308,99.2307692 56.7692308,99.8076923 C56.6538462,100.384615 56.3076923,100.730769 55.8461538,100.730769 L55.8461538,100.730769 Z M103.961538,63.1153846 L102.461538,68.1923077 L105.461538,67.0384615 L103.961538,63.1153846 L103.961538,63.1153846 Z M64.8461538,61.1538462 L64.8461538,66 L71.4230769,66 L64.8461538,61.1538462 L64.8461538,61.1538462 Z M50.6538462,85.0384615 L47.4230769,85.0384615 C47.1923077,85.0384615 46.9615385,85.2692308 46.9615385,85.5 L46.9615385,88.7307692 C46.9615385,88.9615385 47.1923077,89.1923077 47.4230769,89.1923077 L50.6538462,89.1923077 C50.8846154,89.1923077 51.1153846,88.9615385 51.1153846,88.7307692 L51.1153846,85.5 C51.2307692,85.2692308 51,85.0384615 50.6538462,85.0384615 L50.6538462,85.0384615 Z M84.4615385,111.576923 L85.1538462,111.576923 L84.8076923,110.653846 L84.4615385,111.576923 L84.4615385,111.576923 Z M63.3461538,64.3846154 L63.3461538,60.2307692 L59.7692308,60.2307692 L63.3461538,64.3846154 L63.3461538,64.3846154 Z M48.3461538,63.9230769 L45.8076923,61.8461538 L45.5769231,61.8461538 L44.5384615,61.8461538 L41.8846154,63.9230769 L48.3461538,63.9230769 L48.3461538,63.9230769 Z M98.0769231,89.1923077 L101.307692,89.1923077 C101.538462,89.1923077 101.769231,88.9615385 101.769231,88.7307692 L101.769231,85.5 C101.769231,85.2692308 101.538462,85.0384615 101.307692,85.0384615 L98.0769231,85.0384615 C97.8461538,85.0384615 97.6153846,85.2692308 97.6153846,85.5 L97.6153846,88.7307692 C97.5,88.9615385 97.7307692,89.1923077 98.0769231,89.1923077 L98.0769231,89.1923077 Z M75,0.576923077 C33.9230769,0.576923077 0.576923077,33.9230769 0.576923077,75 C0.576923077,116.076923 33.9230769,149.423077 75,149.423077 C116.076923,149.423077 149.423077,116.076923 149.423077,75 C149.423077,33.9230769 116.076923,0.576923077 75,0.576923077 L75,0.576923077 Z M135.692308,80.1923077 L132.692308,80.1923077 L132.692308,78.4615385 L133.961538,78.4615385 L133.846154,71.4230769 L131.884615,71.4230769 L132,77.6538462 L130.153846,77.6538462 L130.038462,71.4230769 L128.076923,71.4230769 L128.076923,78.4615385 L129.346154,78.4615385 L129.346154,80.1923077 L126.346154,80.1923077 L126.115385,67.1538462 L127.961538,67.1538462 L127.961538,69.6923077 L133.730769,69.5769231 L133.730769,67.0384615 L135.576923,67.0384615 L135.692308,80.1923077 L135.692308,80.1923077 Z M132.923077,56.5384615 L131.192308,57 L130.615385,54.9230769 L126.230769,59.4230769 L132.346154,60.9230769 L131.769231,58.8461538 L133.5,58.3846154 L135.346154,64.9615385 L133.615385,65.4230769 L132.923077,63 L126.461538,61.3846154 L127.038462,63.4615385 L125.307692,63.9230769 L123.115385,56.1923077 L124.846154,55.7307692 L125.423077,57.8076923 L130.038462,53.0769231 L129.346154,50.6538462 L131.076923,50.1923077 L132.923077,56.5384615 L132.923077,56.5384615 Z M129.923077,48.6923077 L128.307692,49.5 L127.153846,47.3076923 L122.076923,50.0769231 L123.230769,52.2692308 L121.615385,53.0769231 L118.384615,47.0769231 L120,46.2692308 L121.153846,48.4615385 L126.230769,45.6923077 L125.076923,43.5 L126.692308,42.6923077 L129.923077,48.6923077 L129.923077,48.6923077 Z M117.807692,33 C118.269231,33 118.846154,33.1153846 119.307692,33.4615385 C119.769231,33.6923077 120.230769,34.0384615 120.692308,34.5 C121.153846,34.9615385 121.615385,35.4230769 121.961538,35.8846154 C122.423077,36.4615385 122.769231,37.0384615 123.115385,37.5 C123.346154,37.9615385 123.576923,38.4230769 123.807692,38.7692308 L123.923077,38.6538462 L125.076923,40.0384615 L122.769231,42 L121.615385,40.6153846 L122.423077,39.9230769 C122.307692,39.5769231 122.192308,39.1153846 121.846154,38.6538462 C121.5,38.0769231 121.153846,37.5 120.692308,36.9230769 C120.230769,36.4615385 119.884615,36 119.538462,35.6538462 C119.192308,35.3076923 118.846154,35.1923077 118.615385,34.9615385 C118.384615,34.8461538 118.153846,34.7307692 118.038462,34.7307692 C117.923077,34.7307692 117.692308,34.7307692 117.692308,34.8461538 C117.461538,35.0769231 117.346154,35.1923077 117.461538,35.5384615 C117.461538,35.8846154 117.692308,36.2307692 117.923077,36.6923077 L120.230769,40.0384615 C120.346154,40.2692308 120.461538,40.5 120.692308,40.8461538 C120.923077,41.1923077 121.038462,41.5384615 121.038462,41.8846154 C121.153846,42.2307692 121.153846,42.6923077 121.038462,43.1538462 C120.923077,43.6153846 120.692308,43.9615385 120.230769,44.3076923 C119.769231,44.6538462 119.307692,44.8846154 118.846154,44.8846154 L118.730769,44.8846154 C118.269231,44.8846154 117.692308,44.6538462 117.230769,44.4230769 C116.769231,44.1923077 116.192308,43.7307692 115.730769,43.3846154 C115.269231,42.9230769 114.807692,42.4615385 114.461538,42 C114,41.4230769 113.538462,40.7307692 113.192308,40.1538462 C112.846154,39.6923077 112.615385,39.2307692 112.5,38.7692308 L112.269231,38.8846154 L111.115385,37.5 L113.423077,35.5384615 L114.576923,36.9230769 L113.769231,37.6153846 C113.884615,37.9615385 114.115385,38.4230769 114.346154,39 C114.692308,39.5769231 115.153846,40.2692308 115.730769,40.9615385 C116.192308,41.4230769 116.538462,41.8846154 116.884615,42.2307692 C117.230769,42.5769231 117.576923,42.8076923 117.807692,42.9230769 C118.038462,43.0384615 118.269231,43.1538462 118.5,43.1538462 L118.5,43.1538462 C118.730769,43.1538462 118.730769,43.1538462 118.846154,43.0384615 C119.076923,42.8076923 119.192308,42.6923077 119.076923,42.3461538 C119.076923,42 118.846154,41.6538462 118.615385,41.1923077 L116.307692,37.7307692 C116.192308,37.5 116.076923,37.2692308 115.846154,36.9230769 C115.730769,36.5769231 115.5,36.2307692 115.5,35.8846154 C115.384615,35.5384615 115.384615,35.0769231 115.5,34.6153846 C115.615385,34.1538462 115.846154,33.8076923 116.307692,33.4615385 C116.769231,33.2307692 117.230769,33 117.807692,33 L117.807692,33 L117.807692,33 Z M113.423077,65.7692308 L101.076923,76.6153846 C100.961538,76.7307692 100.730769,76.8461538 100.5,76.8461538 L94.9615385,76.8461538 C94.5,76.8461538 94.1538462,76.5 94.1538462,76.0384615 C94.1538462,75.5769231 94.5,75.2307692 94.9615385,75.2307692 L96.8076923,75.2307692 L96.8076923,72.8076923 L94.9615385,72.8076923 C94.6153846,72.8076923 94.2692308,72.5769231 94.1538462,72.1153846 C94.0384615,71.7692308 94.2692308,71.4230769 94.6153846,71.1923077 L100.615385,68.8846154 L102.692308,61.7307692 C101.884615,61.5 101.307692,60.8076923 101.076923,59.6538462 C100.961538,58.2692308 102.461538,56.8846154 102.923077,56.4230769 C103.038462,56.3076923 103.038462,56.3076923 103.038462,56.1923077 C102.115385,55.9615385 101.538462,55.0384615 101.653846,54.1153846 C101.769231,53.4230769 102.230769,52.9615385 102.692308,52.6153846 L102.692308,47.1923077 L102.692308,47.1923077 L80.6538462,73.0384615 L92.0769231,86.5384615 L92.0769231,86.1923077 C92.0769231,86.1923077 92.1923077,80.5384615 99.5769231,80.5384615 C107.192308,80.5384615 107.423077,86.1923077 107.423077,86.1923077 L107.423077,87.2307692 L107.423077,94.1538462 C107.423077,94.3846154 107.192308,94.6153846 106.961538,94.6153846 L92.6538462,94.6153846 C92.4230769,94.6153846 92.1923077,94.3846154 92.1923077,94.1538462 L92.1923077,90 L74.3076923,77.5384615 L56.6538462,90 L56.6538462,94.1538462 C56.6538462,94.3846154 56.4230769,94.6153846 56.1923077,94.6153846 L41.7692308,94.6153846 C41.5384615,94.6153846 41.3076923,94.3846154 41.3076923,94.1538462 L41.3076923,87.2307692 L41.3076923,86.1923077 C41.3076923,86.1923077 41.4230769,80.5384615 49.1538462,80.5384615 C56.5384615,80.5384615 56.6538462,86.1923077 56.6538462,86.1923077 L56.6538462,86.5384615 L68.0769231,73.0384615 L46.0384615,47.4230769 L46.0384615,52.5 C46.8461538,52.8461538 47.3076923,53.6538462 47.1923077,54.5769231 C47.0769231,55.1538462 46.7307692,55.7307692 46.2692308,55.9615385 L46.2692308,56.3076923 C46.1538462,57.9230769 44.5384615,58.1538462 44.5384615,59.1923077 C44.5384615,59.4230769 44.5384615,59.5384615 44.6538462,59.6538462 L44.6538462,59.6538462 C45,59.4230769 45.3461538,59.4230769 45.6923077,59.6538462 L46.0384615,59.8846154 C46.0384615,59.8846154 46.1538462,59.8846154 46.1538462,59.7692308 C46.8461538,59.3076923 46.5,57.9230769 46.6153846,57.9230769 C46.7307692,57.9230769 47.3076923,57.6923077 47.5384615,59.1923077 C47.6538462,59.8846154 47.4230769,60.3461538 47.1923077,60.8076923 L51.1153846,63.9230769 C51.3461538,64.0384615 51.4615385,64.2692308 51.4615385,64.5 L51.4615385,75.4615385 C51.4615385,75.9230769 51.1153846,76.2692308 50.6538462,76.2692308 L39.6923077,76.2692308 C39.2307692,76.2692308 38.8846154,75.9230769 38.8846154,75.4615385 L38.8846154,64.5 C38.8846154,64.2692308 39,64.0384615 39.2307692,63.9230769 L39.2307692,63.9230769 L43.2692308,60.8076923 C43.0384615,60.4615385 42.8076923,60 42.8076923,59.5384615 C42.6923077,58.1538462 44.1923077,56.7692308 44.6538462,56.3076923 C44.7692308,56.1923077 44.7692308,56.1923077 44.7692308,56.0769231 C43.8461538,55.8461538 43.2692308,54.9230769 43.3846154,54 C43.5,53.3076923 43.9615385,52.8461538 44.4230769,52.5 L44.4230769,47.0769231 C43.8461538,46.7307692 43.5,46.1538462 43.5,45.4615385 C43.5,44.4230769 44.3076923,43.6153846 45.3461538,43.6153846 C46.2692308,43.6153846 47.0769231,44.3076923 47.1923077,45.3461538 L74.3076923,65.7692308 L102.115385,44.7692308 C102.346154,44.0769231 103.038462,43.6153846 103.846154,43.6153846 C104.884615,43.6153846 105.692308,44.4230769 105.692308,45.4615385 C105.692308,46.2692308 105.230769,46.9615385 104.538462,47.1923077 L104.538462,52.5 C105.346154,52.8461538 105.807692,53.6538462 105.692308,54.5769231 C105.576923,55.1538462 105.230769,55.7307692 104.769231,55.9615385 L104.769231,56.3076923 C104.653846,57.9230769 103.038462,58.1538462 103.038462,59.1923077 C103.038462,59.5384615 103.269231,59.7692308 103.5,59.8846154 C103.615385,59.7692308 103.730769,59.7692308 103.846154,59.7692308 C104.076923,59.7692308 104.192308,59.7692308 104.307692,59.8846154 C104.423077,59.8846154 104.538462,59.7692308 104.653846,59.7692308 C105.346154,59.3076923 105,57.9230769 105.115385,57.9230769 C105.230769,57.9230769 105.807692,57.6923077 106.038462,59.1923077 C106.153846,60.2307692 105.692308,60.9230769 105,61.3846154 L106.961538,66.3461538 L112.5,64.1538462 C112.846154,64.0384615 113.307692,64.1538462 113.538462,64.5 C113.653846,64.6153846 113.653846,64.8461538 113.538462,64.9615385 C113.653846,65.4230769 113.653846,65.6538462 113.423077,65.7692308 L113.423077,65.7692308 Z M94.5,109.615385 L95.5384615,109.615385 L94.3846154,111 L95.6538462,112.846154 L94.6153846,112.846154 L93.8076923,111.692308 L93.4615385,112.038462 L93.4615385,112.846154 L92.5384615,112.846154 L92.5384615,109.615385 L93.4615385,109.615385 L93.4615385,110.884615 L94.5,109.615385 L94.5,109.615385 Z M92.7692308,103.153846 C91.0384615,103.153846 89.5384615,101.653846 89.5384615,99.9230769 C89.5384615,98.1923077 91.0384615,96.6923077 92.7692308,96.6923077 L106.615385,96.6923077 C108.346154,96.6923077 109.846154,98.1923077 109.846154,99.9230769 C109.846154,101.653846 108.346154,103.153846 106.615385,103.153846 L92.7692308,103.153846 L92.7692308,103.153846 Z M91.0384615,112.846154 L90,112.846154 L89.3076923,111.923077 L88.9615385,111.923077 L88.9615385,112.846154 L88.0384615,112.846154 L88.0384615,109.615385 L89.5384615,109.615385 C90,109.615385 90.3461538,109.730769 90.5769231,109.961538 C90.8076923,110.192308 90.8076923,110.423077 90.8076923,110.653846 L90.8076923,110.653846 C90.8076923,111.115385 90.5769231,111.461538 90.1153846,111.576923 L91.0384615,112.846154 L91.0384615,112.846154 Z M53.5384615,110.423077 L53.5384615,109.615385 L56.3076923,109.615385 L56.3076923,110.423077 L55.3846154,110.423077 L55.3846154,112.846154 L54.4615385,112.846154 L54.4615385,110.423077 L53.5384615,110.423077 L53.5384615,110.423077 Z M55.9615385,103.153846 L42.1153846,103.153846 C40.3846154,103.153846 38.8846154,101.653846 38.8846154,99.9230769 C38.8846154,98.1923077 40.3846154,96.6923077 42.1153846,96.6923077 L55.9615385,96.6923077 C57.6923077,96.6923077 59.1923077,98.1923077 59.1923077,99.9230769 C59.1923077,101.653846 57.8076923,103.153846 55.9615385,103.153846 L55.9615385,103.153846 Z M57.9230769,109.615385 L59.4230769,109.615385 C59.8846154,109.615385 60.2307692,109.730769 60.4615385,109.961538 C60.6923077,110.192308 60.6923077,110.423077 60.6923077,110.653846 L60.6923077,110.653846 C60.6923077,111.115385 60.4615385,111.461538 60,111.576923 L60.8076923,112.730769 L59.7692308,112.730769 L59.0769231,111.807692 L58.7307692,111.807692 L58.7307692,112.730769 L57.8076923,112.730769 L57.8076923,109.615385 L57.9230769,109.615385 Z M66.6923077,40.1538462 L64.7307692,36.3461538 C64.6153846,36.2307692 64.7307692,36.1153846 64.8461538,36 L65.4230769,35.7692308 C65.5384615,35.7692308 65.6538462,35.7692308 65.7692308,35.8846154 L69.6923077,40.8461538 C69.8076923,40.9615385 69.9230769,41.0769231 69.9230769,41.1923077 L70.0384615,41.4230769 C70.1538462,41.5384615 70.1538462,41.6538462 70.0384615,41.7692308 L69.9230769,42 C69.8076923,42.1153846 69.6923077,42.2307692 69.6923077,42.3461538 L65.5384615,47.4230769 C65.4230769,47.5384615 65.3076923,47.5384615 65.1923077,47.5384615 L64.5,47.3076923 C64.3846154,47.3076923 64.3846154,47.0769231 64.3846154,46.9615385 L66.5769231,43.0384615 C66.6923077,42.9230769 66.5769231,42.8076923 66.4615385,42.8076923 L59.8846154,42 C59.7692308,42 59.6538462,41.8846154 59.6538462,41.7692308 L59.6538462,41.3076923 C59.6538462,41.1923077 59.7692308,41.0769231 59.8846154,41.0769231 L66.4615385,40.3846154 C66.6923077,40.3846154 66.6923077,40.2692308 66.6923077,40.1538462 L66.6923077,40.1538462 Z M103.5,22.5 L104.538462,21 L108.230769,23.7692308 L109.615385,33 L112.5,29.0769231 L110.423077,27.5769231 L111.461538,26.0769231 L117,30.1153846 L115.961538,31.6153846 L113.884615,30.1153846 L109.384615,36.1153846 L108.115385,35.1923077 L106.615385,25.2692308 L103.5,29.5384615 L105.576923,31.0384615 L104.538462,32.5384615 L99,28.5 L100.038462,27 L102.115385,28.5 L105.461538,23.8846154 L103.5,22.5 L103.5,22.5 Z M88.9615385,19.9615385 C89.1923077,19.2692308 89.5384615,18.8076923 90.1153846,18.3461538 C90.5769231,17.8846154 91.2692308,17.5384615 91.9615385,17.3076923 C92.6538462,17.0769231 93.3461538,16.9615385 94.1538462,17.0769231 C94.9615385,17.0769231 95.7692308,17.3076923 96.5769231,17.5384615 C97.3846154,17.8846154 98.0769231,18.2307692 98.6538462,18.6923077 C99.2307692,19.1538462 99.8076923,19.7307692 100.153846,20.4230769 C100.5,21 100.730769,21.6923077 100.846154,22.3846154 C100.961538,23.0769231 100.846154,23.7692308 100.615385,24.3461538 C100.384615,25.0384615 100.038462,25.5 99.4615385,25.9615385 C99,26.4230769 98.3076923,26.7692308 97.6153846,27 C97.0384615,27.2307692 96.3461538,27.3461538 95.6538462,27.3461538 L95.4230769,27.3461538 C94.6153846,27.3461538 93.8076923,27.1153846 93,26.8846154 C92.1923077,26.5384615 91.5,26.1923077 90.9230769,25.7307692 C90.3461538,25.2692308 89.7692308,24.6923077 89.4230769,24 C89.0769231,23.4230769 88.8461538,22.7307692 88.7307692,22.0384615 C88.6153846,21.2307692 88.6153846,20.6538462 88.9615385,19.9615385 L88.9615385,19.9615385 Z M88.7307692,41.3076923 L88.7307692,41.7692308 C88.7307692,41.8846154 88.6153846,42 88.5,42 L81.9230769,42.9230769 C81.8076923,42.9230769 81.6923077,43.0384615 81.8076923,43.1538462 L84,47.0769231 C84.1153846,47.1923077 84,47.3076923 83.8846154,47.4230769 L83.1923077,47.7692308 C83.0769231,47.7692308 82.9615385,47.7692308 82.8461538,47.6538462 L78.6923077,42.5769231 C78.5769231,42.4615385 78.4615385,42.3461538 78.4615385,42.2307692 L78.3461538,42 C78.2307692,41.8846154 78.2307692,41.7692308 78.3461538,41.6538462 L78.4615385,41.4230769 C78.5769231,41.3076923 78.6923077,41.1923077 78.6923077,41.0769231 L82.6153846,36.1153846 C82.7307692,36 82.8461538,36 82.9615385,36 L83.5384615,36.2307692 C83.6538462,36.2307692 83.6538462,36.4615385 83.6538462,36.5769231 L81.6923077,40.3846154 C81.5769231,40.5 81.6923077,40.6153846 81.8076923,40.6153846 L88.3846154,41.3076923 C88.6153846,41.0769231 88.7307692,41.1923077 88.7307692,41.3076923 L88.7307692,41.3076923 Z M74.6538462,21.1153846 L77.1923077,21.3461538 L77.7692308,15.6923077 L75.2307692,15.4615385 L75.4615385,13.7307692 L84.5769231,14.7692308 C85.0384615,14.7692308 85.5,15 85.9615385,15.2307692 C86.4230769,15.4615385 86.7692308,15.6923077 87,16.0384615 C87.3461538,16.3846154 87.5769231,16.7307692 87.6923077,17.1923077 C87.8076923,17.6538462 87.9230769,18.1153846 87.8076923,18.5769231 C87.8076923,19.0384615 87.5769231,19.5 87.3461538,19.8461538 C87.1153846,20.1923077 86.7692308,20.5384615 86.4230769,20.8846154 C86.0769231,21.1153846 85.6153846,21.3461538 85.1538462,21.4615385 C84.6923077,21.5769231 84.2307692,21.5769231 83.6538462,21.5769231 L78.8076923,21 L78.6923077,21.6923077 L81.2307692,21.9230769 L81,23.6538462 L74.1923077,22.9615385 L74.6538462,21.1153846 L74.6538462,21.1153846 Z M73.1538462,30.8076923 L75.1153846,30.8076923 L75.1153846,51.3461538 L73.1538462,51.3461538 L73.1538462,30.8076923 L73.1538462,30.8076923 Z M61.9615385,16.3846154 C62.1923077,15.9230769 62.6538462,15.5769231 63.1153846,15.3461538 C63.5769231,15.1153846 64.1538462,14.8846154 64.7307692,14.6538462 C65.3076923,14.5384615 66,14.3076923 66.5769231,14.3076923 C67.2692308,14.1923077 67.8461538,14.1923077 68.4230769,14.1923077 L68.6538462,14.1923077 C69.1153846,14.1923077 69.6923077,14.1923077 70.1538462,14.3076923 L70.1538462,14.0769231 L71.8846154,13.8461538 L72.3461538,16.8461538 L70.6153846,17.0769231 L70.3846154,16.0384615 C70.0384615,15.9230769 69.5769231,15.8076923 69,15.8076923 C68.3076923,15.8076923 67.6153846,15.8076923 66.9230769,15.9230769 C66.2307692,16.0384615 65.7692308,16.1538462 65.3076923,16.2692308 C64.8461538,16.3846154 64.5,16.6153846 64.2692308,16.7307692 C64.0384615,16.8461538 63.8076923,17.0769231 63.8076923,17.1923077 C63.6923077,17.3076923 63.6923077,17.4230769 63.6923077,17.5384615 C63.6923077,17.7692308 63.9230769,18 64.1538462,18.1153846 C64.5,18.2307692 64.8461538,18.3461538 65.4230769,18.2307692 L69.6923077,18 L70.3846154,18 C70.7307692,18 71.1923077,18.1153846 71.5384615,18.2307692 C71.8846154,18.3461538 72.2307692,18.5769231 72.5769231,18.9230769 C72.9230769,19.2692308 73.1538462,19.7307692 73.1538462,20.1923077 C73.2692308,20.7692308 73.1538462,21.2307692 72.8076923,21.6923077 C72.5769231,22.1538462 72.1153846,22.5 71.6538462,22.7307692 C71.1923077,22.9615385 70.6153846,23.1923077 69.9230769,23.4230769 C69.3461538,23.5384615 68.6538462,23.7692308 68.0769231,23.7692308 C67.3846154,23.8846154 66.6923077,23.8846154 66,23.8846154 L65.8846154,23.8846154 C65.3076923,23.8846154 64.7307692,23.8846154 64.2692308,23.7692308 L64.2692308,24 L62.5384615,24.2307692 L62.0769231,21.2307692 L63.8076923,21 L63.9230769,22.0384615 C64.2692308,22.1538462 64.8461538,22.2692308 65.4230769,22.2692308 C66.1153846,22.2692308 66.9230769,22.2692308 67.7307692,22.1538462 C68.4230769,22.0384615 68.8846154,21.9230769 69.3461538,21.8076923 C69.8076923,21.6923077 70.1538462,21.4615385 70.3846154,21.3461538 C70.6153846,21.2307692 70.8461538,21 70.9615385,20.8846154 C71.0769231,20.7692308 71.0769231,20.6538462 71.0769231,20.5384615 C71.0769231,20.3076923 70.8461538,20.0769231 70.6153846,19.9615385 C70.2692308,19.8461538 69.9230769,19.7307692 69.3461538,19.8461538 L65.0769231,20.0769231 L64.3846154,20.0769231 C64.0384615,20.0769231 63.6923077,19.9615385 63.2307692,19.8461538 C62.8846154,19.7307692 62.5384615,19.5 62.1923077,19.1538462 C61.8461538,18.8076923 61.6153846,18.3461538 61.6153846,17.8846154 C61.6153846,17.3076923 61.7307692,16.8461538 61.9615385,16.3846154 L61.9615385,16.3846154 Z M57.2307692,16.2692308 L58.3846154,19.0384615 L56.7692308,19.7307692 L56.3076923,18.5769231 L49.8461538,21.3461538 L50.6538462,23.1923077 L56.4230769,20.7692308 L57.1153846,22.3846154 L51.3461538,24.8076923 L52.1538462,26.6538462 L58.6153846,23.8846154 L58.1538462,22.7307692 L59.7692308,22.0384615 L60.9230769,24.8076923 L48.9230769,30 L48.2307692,28.3846154 L50.5384615,27.3461538 L48.2307692,22.0384615 L45.9230769,23.0769231 L45.2307692,21.4615385 L57.2307692,16.2692308 L57.2307692,16.2692308 Z M38.6538462,26.0769231 C39,25.7307692 39.4615385,25.5 39.9230769,25.3846154 C40.3846154,25.2692308 40.8461538,25.1538462 41.3076923,25.1538462 C41.7692308,25.1538462 42.2307692,25.2692308 42.5769231,25.5 C43.0384615,25.7307692 43.3846154,25.9615385 43.6153846,26.3076923 C43.8461538,26.6538462 44.0769231,27 44.1923077,27.4615385 C44.3076923,27.9230769 44.3076923,28.2692308 44.3076923,28.7307692 C44.3076923,29.1923077 44.1923077,29.5384615 43.9615385,30 C43.8461538,30.2307692 43.7307692,30.4615385 43.5,30.6923077 L43.9615385,30.6923077 C44.1923077,30.6923077 44.4230769,30.6923077 44.6538462,30.5769231 C44.8846154,30.4615385 45.1153846,30.3461538 45.3461538,30.2307692 L46.5,29.1923077 L47.6538462,30.5769231 L46.3846154,31.6153846 C46.0384615,31.9615385 45.5769231,32.1923077 45.1153846,32.3076923 C44.6538462,32.4230769 44.1923077,32.5384615 43.7307692,32.5384615 L41.8846154,32.3076923 L39.2307692,34.3846154 L39.6923077,34.9615385 L41.6538462,33.3461538 L42.8076923,34.7307692 L37.5,39 L36.3461538,37.6153846 L38.3076923,36 L34.6153846,31.7307692 L32.6538462,33.3461538 L31.5,31.9615385 L38.6538462,26.0769231 L38.6538462,26.0769231 Z M22.6153846,44.1923077 C22.9615385,43.5 23.4230769,43.0384615 23.8846154,42.5769231 C24.3461538,42.1153846 24.9230769,41.7692308 25.5,41.5384615 C26.0769231,41.3076923 26.6538462,41.1923077 27.3461538,41.1923077 C27.9230769,41.1923077 28.6153846,41.4230769 29.1923077,41.6538462 C29.7692308,42 30.2307692,42.3461538 30.5769231,42.9230769 C30.9230769,43.3846154 31.1538462,43.9615385 31.3846154,44.6538462 C31.5,45.2307692 31.5,45.9230769 31.5,46.6153846 C31.3846154,47.3076923 31.1538462,48 30.8076923,48.5769231 L26.8846154,55.8461538 L25.3846154,55.0384615 L26.5384615,52.8461538 L21.4615385,50.0769231 L20.3076923,52.2692308 L18.6923077,51.4615385 L22.6153846,44.1923077 L22.6153846,44.1923077 Z M16.1538462,60.9230769 L17.8846154,61.2692308 L17.3076923,63.8076923 L22.8461538,65.0769231 L24.3461538,58.2692308 L23.0769231,58.0384615 L23.4230769,56.3076923 L26.4230769,57 L23.5384615,69.6923077 L21.9230769,69.2307692 L22.5,66.8076923 L16.9615385,65.5384615 L16.3846154,67.9615385 L14.6538462,67.6153846 L16.1538462,60.9230769 L16.1538462,60.9230769 Z M16.3846154,71.3076923 L16.3846154,73.8461538 L22.1538462,73.7307692 L22.1538462,71.1923077 L24,71.1923077 L24.1153846,78 L22.2692308,78 L22.2692308,75.4615385 L16.5,75.5769231 L16.5,78.1153846 L14.6538462,78.1153846 L14.5384615,71.3076923 L16.3846154,71.3076923 L16.3846154,71.3076923 Z M17.8846154,95.5384615 L16.3846154,88.8461538 L18.1153846,88.5 L18.6923077,90.9230769 L21.8076923,90.2307692 C22.1538462,90.1153846 22.5,90 22.8461538,89.7692308 C23.1923077,89.5384615 23.4230769,89.1923077 23.5384615,88.8461538 C23.7692308,88.5 23.8846154,88.0384615 23.8846154,87.5769231 C23.8846154,87.1153846 23.8846154,86.6538462 23.7692308,86.1923077 C23.6538462,85.7307692 23.5384615,85.2692308 23.1923077,84.9230769 C22.9615385,84.5769231 22.6153846,84.2307692 22.3846154,84 C22.0384615,83.7692308 21.6923077,83.5384615 21.3461538,83.4230769 C21,83.3076923 20.6538462,83.3076923 20.1923077,83.4230769 L17.0769231,84.1153846 L17.6538462,86.5384615 L15.9230769,86.8846154 L14.4230769,80.1923077 L16.1538462,79.8461538 L16.7307692,82.2692308 L19.8461538,81.5769231 C20.4230769,81.4615385 21.1153846,81.4615385 21.6923077,81.5769231 C22.2692308,81.6923077 22.8461538,82.0384615 23.4230769,82.3846154 C23.8846154,82.7307692 24.3461538,83.1923077 24.8076923,83.7692308 C25.1538462,84.3461538 25.5,84.9230769 25.6153846,85.7307692 C25.7307692,86.4230769 25.8461538,87.1153846 25.7307692,87.8076923 C25.6153846,88.5 25.3846154,89.0769231 25.1538462,89.6538462 C24.8076923,90.2307692 24.4615385,90.6923077 24,91.0384615 C23.5384615,91.3846154 22.9615385,91.7307692 22.2692308,91.8461538 L19.1538462,92.5384615 L19.7307692,94.9615385 L17.8846154,95.5384615 L17.8846154,95.5384615 Z M25.0384615,109.038462 L20.1923077,100.153846 C19.9615385,99.8076923 19.8461538,99.3461538 19.8461538,99 L19.8461538,97.8461538 C19.9615385,97.5 20.0769231,97.1538462 20.3076923,96.8076923 C20.5384615,96.4615385 20.7692308,96.2307692 21.1153846,96.1153846 C21.4615385,95.8846154 21.8076923,95.8846154 22.1538462,95.7692308 L22.8461538,95.7692308 C22.8461538,95.4230769 22.9615385,95.0769231 23.1923077,94.7307692 C23.4230769,94.2692308 23.7692308,94.0384615 24.2307692,93.8076923 C24.5769231,93.5769231 24.9230769,93.5769231 25.2692308,93.4615385 L25.3846154,93.4615385 C25.7307692,93.4615385 26.0769231,93.5769231 26.3076923,93.6923077 C26.6538462,93.8076923 27,94.0384615 27.3461538,94.2692308 C27.6923077,94.5 27.9230769,94.8461538 28.1538462,95.1923077 L33.2307692,104.538462 L31.6153846,105.346154 L30.4615385,103.153846 L25.3846154,105.923077 L26.5384615,108.115385 L25.0384615,109.038462 L25.0384615,109.038462 Z M29.0769231,114.807692 L36.5769231,108.230769 C36.8076923,108.576923 37.1538462,108.807692 37.3846154,109.153846 L30,115.846154 C29.7692308,115.615385 29.4230769,115.153846 29.0769231,114.807692 L29.0769231,114.807692 Z M32.0769231,118.038462 L39.1153846,111 C39.4615385,111.346154 39.6923077,111.576923 40.0384615,111.923077 L33.2307692,119.192308 C32.8846154,118.730769 32.5384615,118.384615 32.0769231,118.038462 L32.0769231,118.038462 Z M35.4230769,121.038462 L41.8846154,113.423077 C42.2307692,113.653846 42.5769231,114 42.8076923,114.230769 L36.4615385,121.961538 C36.1153846,121.730769 35.7692308,121.384615 35.4230769,121.038462 L35.4230769,121.038462 Z M38.8846154,123.807692 L44.7692308,115.730769 C45.1153846,115.961538 45.4615385,116.192308 45.8076923,116.423077 L40.0384615,124.615385 C39.6923077,124.384615 39.2307692,124.153846 38.8846154,123.807692 L38.8846154,123.807692 Z M42.4615385,126.346154 L47.7692308,117.923077 C48.1153846,118.153846 48.4615385,118.384615 48.8076923,118.615385 L43.7307692,127.153846 C43.3846154,126.807692 42.9230769,126.576923 42.4615385,126.346154 L42.4615385,126.346154 Z M46.3846154,128.538462 L51.1153846,119.769231 C51.4615385,120 51.8076923,120.115385 52.2692308,120.346154 L47.7692308,129.230769 C47.1923077,129 46.7307692,128.769231 46.3846154,128.538462 L46.3846154,128.538462 Z M50.3076923,130.5 L54.3461538,121.384615 C54.6923077,121.5 55.1538462,121.730769 55.5,121.846154 L51.6923077,131.076923 C51.2307692,130.846154 50.7692308,130.730769 50.3076923,130.5 L50.3076923,130.5 Z M54.4615385,132.115385 L57.8076923,122.769231 C58.1538462,122.884615 58.6153846,123 58.9615385,123.230769 L55.8461538,132.692308 C55.3846154,132.461538 54.9230769,132.230769 54.4615385,132.115385 L54.4615385,132.115385 Z M60.1153846,133.846154 C59.6538462,133.730769 59.1923077,133.615385 58.6153846,133.5 L61.2692308,123.923077 C61.6153846,124.038462 62.0769231,124.153846 62.5384615,124.269231 L60.1153846,133.846154 L60.1153846,133.846154 Z M61.9615385,112.846154 L63.3461538,109.615385 L64.1538462,109.615385 L65.5384615,112.846154 L64.6153846,112.846154 L64.3846154,112.269231 L63.1153846,112.269231 L62.8846154,112.846154 L61.9615385,112.846154 L61.9615385,112.846154 Z M64.3846154,134.769231 C63.9230769,134.653846 63.3461538,134.538462 62.8846154,134.538462 L64.8461538,124.730769 C65.3076923,124.846154 65.6538462,124.846154 66.1153846,124.961538 L64.3846154,134.769231 L64.3846154,134.769231 Z M68.8846154,135.346154 C68.4230769,135.346154 67.8461538,135.230769 67.3846154,135.230769 L68.6538462,125.307692 C69.1153846,125.307692 69.4615385,125.423077 69.9230769,125.423077 L68.8846154,135.346154 L68.8846154,135.346154 Z M70.0384615,111.230769 C70.0384615,112.153846 69.3461538,112.846154 68.1923077,112.846154 L66.9230769,112.846154 L66.9230769,109.615385 L68.1923077,109.615385 C69.3461538,109.615385 70.0384615,110.307692 70.0384615,111.230769 L70.0384615,111.230769 L70.0384615,111.230769 Z M73.2692308,135.692308 C72.8076923,135.692308 72.2307692,135.692308 71.7692308,135.576923 L72.2307692,125.653846 L73.5,125.653846 L73.2692308,135.692308 L73.2692308,135.692308 Z M74.1923077,112.846154 L71.6538462,112.846154 L71.6538462,109.615385 L74.1923077,109.615385 L74.1923077,110.423077 L72.4615385,110.423077 L72.4615385,110.884615 L73.9615385,110.884615 L73.9615385,111.576923 L72.4615385,111.576923 L72.4615385,112.038462 L74.1923077,112.038462 L74.1923077,112.846154 L74.1923077,112.846154 Z M74.1923077,94.6153846 L61.2692308,96.1153846 L61.2692308,96 L74.0769231,90.9230769 L74.3076923,90.8076923 L74.5384615,90.9230769 L87.4615385,96.2307692 L87.3461538,96.5769231 L74.1923077,94.6153846 L74.1923077,94.6153846 Z M76.1538462,135.692308 L75.9230769,125.769231 L77.1923077,125.769231 L77.6538462,135.692308 C77.1923077,135.576923 76.6153846,135.692308 76.1538462,135.692308 L76.1538462,135.692308 Z M79.0384615,112.846154 L78.1153846,112.846154 L78.1153846,109.615385 L79.0384615,109.615385 L79.8461538,110.884615 L80.6538462,109.615385 L81.5769231,109.615385 L81.5769231,112.846154 L80.7692308,112.846154 L80.7692308,111 L79.9615385,112.269231 L79.1538462,111 L79.1538462,112.846154 L79.0384615,112.846154 Z M80.5384615,135.346154 L79.6153846,125.423077 C80.0769231,125.423077 80.4230769,125.307692 80.8846154,125.307692 L82.0384615,135.230769 C81.5769231,135.346154 81.1153846,135.346154 80.5384615,135.346154 L80.5384615,135.346154 Z M84.9230769,134.884615 L83.3076923,125.076923 C83.7692308,124.961538 84.1153846,124.961538 84.5769231,124.846154 L86.4230769,134.653846 C85.9615385,134.653846 85.5,134.769231 84.9230769,134.884615 L84.9230769,134.884615 Z M85.6153846,112.846154 L85.3846154,112.269231 L84.2307692,112.269231 L84,112.846154 L83.0769231,112.846154 L84.4615385,109.615385 L85.2692308,109.615385 L86.6538462,112.846154 L85.6153846,112.846154 L85.6153846,112.846154 Z M89.3076923,133.961538 L87,124.269231 C87.4615385,124.153846 87.8076923,124.038462 88.2692308,123.923077 L90.8076923,133.5 C90.2307692,133.730769 89.7692308,133.846154 89.3076923,133.961538 L89.3076923,133.961538 Z M93.5769231,132.807692 L90.4615385,123.346154 C90.9230769,123.230769 91.2692308,123.115385 91.6153846,122.884615 L94.8461538,132.346154 C94.5,132.461538 94.0384615,132.576923 93.5769231,132.807692 L93.5769231,132.807692 Z M97.7307692,131.192308 L93.9230769,121.961538 C94.2692308,121.846154 94.7307692,121.615385 95.0769231,121.5 L99,130.615385 C98.6538462,130.846154 98.1923077,131.076923 97.7307692,131.192308 L97.7307692,131.192308 Z M101.769231,129.461538 L97.3846154,120.461538 C97.7307692,120.230769 98.0769231,120.115385 98.5384615,119.884615 L103.153846,128.769231 C102.692308,129 102.230769,129.230769 101.769231,129.461538 L101.769231,129.461538 Z M105.692308,127.384615 L100.615385,118.846154 C100.961538,118.615385 101.307692,118.384615 101.653846,118.153846 L106.846154,126.576923 C106.5,126.807692 106.038462,127.038462 105.692308,127.384615 L105.692308,127.384615 Z M109.384615,124.961538 L103.730769,116.769231 C104.076923,116.538462 104.423077,116.307692 104.769231,116.076923 L110.653846,124.153846 C110.192308,124.384615 109.846154,124.730769 109.384615,124.961538 L109.384615,124.961538 Z M112.961538,122.307692 L106.730769,114.576923 C107.076923,114.346154 107.423077,114 107.653846,113.769231 L114.115385,121.384615 C113.653846,121.730769 113.307692,122.076923 112.961538,122.307692 L112.961538,122.307692 Z M116.307692,119.423077 L109.5,112.153846 C109.846154,111.923077 110.076923,111.576923 110.423077,111.230769 L117.346154,118.384615 C117,118.730769 116.653846,119.076923 116.307692,119.423077 L116.307692,119.423077 Z M119.423077,116.307692 L112.153846,109.5 C112.384615,109.153846 112.730769,108.923077 112.961538,108.576923 L120.461538,115.153846 C120.115385,115.615385 119.769231,115.961538 119.423077,116.307692 L119.423077,116.307692 Z M128.538462,102.692308 L126.923077,101.769231 L127.846154,100.038462 L123.807692,101.192308 L125.076923,105.230769 L126,103.5 L127.615385,104.307692 L124.384615,110.307692 L122.769231,109.384615 L123.923077,107.307692 L122.076923,101.192308 L121.038462,100.615385 L119.884615,102.807692 L118.269231,101.884615 L121.5,95.8846154 L123.115385,96.6923077 L121.846154,98.8846154 L122.884615,99.4615385 L129.115385,97.6153846 L130.269231,95.5384615 L131.884615,96.3461538 L128.538462,102.692308 L128.538462,102.692308 Z M133.384615,90.5769231 L131.653846,90.1153846 L132.346154,87.6923077 L126.807692,86.1923077 L124.961538,92.8846154 L126.115385,93.2307692 L125.653846,94.9615385 L122.769231,94.1538462 L126.230769,81.5769231 L127.961538,82.0384615 L127.269231,84.4615385 L132.807692,85.9615385 L133.5,83.5384615 L135.230769,84 L133.384615,90.5769231 L133.384615,90.5769231 Z M40.5,66.5769231 L40.5,73.6153846 L44.0769231,70.0384615 L40.5,66.5769231 L40.5,66.5769231 Z M49.8461538,73.7307692 L49.8461538,66.6923077 L46.2692308,70.2692308 L49.8461538,73.7307692 L49.8461538,73.7307692 Z M41.6538462,74.7692308 L48.6923077,74.7692308 L45.1153846,71.1923077 L41.6538462,74.7692308 L41.6538462,74.7692308 Z M45.1153846,69 L48.6923077,65.4230769 L41.6538462,65.4230769 L45.1153846,69 L45.1153846,69 Z M52.5,51.8076923 L58.3846154,58.6153846 L61.5,58.6153846 L52.5,51.8076923 L52.5,51.8076923 Z M85.2692308,64.5 L88.9615385,60.2307692 L85.2692308,60.2307692 L85.2692308,64.5 L85.2692308,64.5 Z M83.6538462,66.1153846 L83.6538462,61.2692308 L77.3076923,66.1153846 L83.6538462,66.1153846 L83.6538462,66.1153846 Z M79.2692308,71.4230769 L82.5,67.6153846 L76.1538462,67.6153846 L79.2692308,71.4230769 L79.2692308,71.4230769 Z M68.1923077,110.423077 L67.8461538,110.423077 L67.8461538,112.038462 L68.1923077,112.038462 C68.7692308,112.038462 69.1153846,111.692308 69.1153846,111.230769 L69.1153846,111.230769 C69.1153846,110.769231 68.7692308,110.423077 68.1923077,110.423077 L68.1923077,110.423077 Z M90.3461538,58.6153846 L96.2307692,51.8076923 L87.2307692,58.6153846 L90.3461538,58.6153846 L90.3461538,58.6153846 Z M63.8076923,110.653846 L63.4615385,111.576923 L64.1538462,111.576923 L63.8076923,110.653846 L63.8076923,110.653846 Z M74.3076923,68.6538462 L70.9615385,72.6923077 L74.3076923,75 L77.6538462,72.6923077 L74.3076923,68.6538462 L74.3076923,68.6538462 Z M72.5769231,67.7307692 L66.2307692,67.7307692 L69.4615385,71.5384615 L72.5769231,67.7307692 L72.5769231,67.7307692 Z M76.1538462,76.2692308 L87.5769231,84.3461538 L79.0384615,74.1923077 L76.1538462,76.2692308 L76.1538462,76.2692308 Z M61.1538462,84.3461538 L72.5769231,76.2692308 L69.6923077,74.1923077 L61.1538462,84.3461538 L61.1538462,84.3461538 Z" id="Shape" fill="#FFFFFF"></path>
            </g>
        </g>
    </g>
</svg>