<?xml version="1.0" encoding="UTF-8" standalone="no"?>
<svg width="109px" height="126px" viewBox="0 0 109 126" version="1.1" xmlns="http://www.w3.org/2000/svg" xmlns:xlink="http://www.w3.org/1999/xlink" xmlns:sketch="http://www.bohemiancoding.com/sketch/ns">
    <!-- Generator: Sketch 3.2.2 (9983) - http://www.bohemiancoding.com/sketch -->
    <title>collaboration</title>
    <desc>Created with Sketch.</desc>
    <defs></defs>
    <g id="Page-1" stroke="none" stroke-width="1" fill="none" fill-rule="evenodd" sketch:type="MSPage">
        <g id="collaboration" sketch:type="MSLayerGroup" transform="translate(-15.000000, -12.000000)">
            <g id="Group" sketch:type="MSShapeGroup">
                <path d="M121.115333,14.9 L18.4406667,14.9 L18.4406667,82.8 L18.5333333,82.8 C19.9233333,112 42.3486667,135.3 69.778,135.3 C97.2073333,135.3 119.632667,112.1 121.022667,82.8 L121.022667,82.8 C121.115333,81.8 121.115333,14.9 121.115333,14.9 L121.115333,14.9 Z" id="Shape" fill="#FFFFFF"></path>
                <path d="M55.044,118.8 L53.4686667,118.1 L51.3373333,123.8 L53.5613333,124.8 C54.0246667,125 54.5806667,124.8 54.766,124.3 L56.0633333,120.9 C56.3413333,120 55.7853333,119.1 55.044,118.8 L55.044,118.8 Z M46.704,104.1 C46.2406667,103.6 45.6846667,103.6 45.314,104 L42.256,107.4 L44.48,109.7 L47.538,106.3 C47.9086667,105.9 47.9086667,105.3 47.4453333,104.8 L46.704,104.1 L46.704,104.1 Z M58.102,112.1 L56.0633333,111.2 L54.1173333,116.4 L55.9706667,117.2 C56.434,117.4 57.0826667,117.4 57.3606667,116.7 L58.658,113.3 C58.7506667,112.8 58.5653333,112.3 58.102,112.1 L58.102,112.1 Z M31.414,29.4 L31.414,29.4 C31.414,29.1 31.2286667,28.9 30.858,28.9 L30.2093333,28.9 L30.2093333,29.9 L30.858,29.9 C31.2286667,29.8 31.414,29.6 31.414,29.4 L31.414,29.4 Z M108.790667,29.4 L108.790667,29.4 C108.790667,29.1 108.605333,28.9 108.234667,28.9 L107.586,28.9 L107.586,29.9 L108.234667,29.9 C108.605333,29.8 108.790667,29.6 108.790667,29.4 L108.790667,29.4 Z M35.7693333,29.9 L35.7693333,29.9 C35.7693333,29.3 35.3986667,28.9 34.8426667,28.9 L34.2866667,28.9 L34.2866667,30.9 L34.8426667,30.9 C35.3986667,30.9 35.7693333,30.5 35.7693333,29.9 L35.7693333,29.9 Z M25.2053333,74.1 L36.14,74 C36.6033333,74 37.0666667,73.6 37.0666667,72.9 L37.0666667,71.8 C37.0666667,71.1 36.696,70.7 36.14,70.7 L25.2053333,70.7 C24.6493333,70.7 24.2786667,71.1 24.2786667,71.8 L24.2786667,72.9 C24.3713333,73.7 24.742,74.1 25.2053333,74.1 L25.2053333,74.1 Z M46.982,44.3 L46.982,80.3 L46.982,80.5 C47.6306667,93.5 57.546,103.6 69.5926667,103.6 C81.6393333,103.6 91.5546667,93.4 92.2033333,80.5 L92.2033333,44.3 L46.982,44.3 L46.982,44.3 Z M59.0286667,57.2 C59.3993333,56.8 59.9553333,56.8 60.2333333,57.2 L68.7586667,66.4 L68.7586667,49.4 C68.7586667,48.9 69.1293333,48.5 69.5926667,48.5 C70.056,48.5 70.4266667,48.9 70.4266667,49.4 L70.4266667,66.4 L78.952,57.2 C79.3226667,56.8 79.8786667,56.8 80.1566667,57.2 C80.5273333,57.6 80.5273333,58.2 80.1566667,58.5 L69.5926667,69.9 L59.0286667,58.5 C58.658,58.1 58.658,57.6 59.0286667,57.2 L59.0286667,57.2 Z M55.6,84.7 C55.4146667,84.7 55.1366667,84.6 54.9513333,84.4 C54.5806667,84 54.5806667,83.4 54.9513333,83.1 L63.4766667,73.9 L50.4106667,73.9 C49.9473333,73.9 49.5766667,73.5 49.5766667,73 C49.5766667,72.5 49.9473333,72.1 50.4106667,72.1 L63.4766667,72.1 L54.9513333,62.9 C54.5806667,62.5 54.5806667,61.9 54.9513333,61.6 C55.322,61.2 55.878,61.2 56.156,61.6 L66.8126667,73 L56.2486667,84.4 C56.0633333,84.6 55.7853333,84.7 55.6,84.7 L55.6,84.7 Z M80.2493333,88.8 C79.8786667,89.2 79.3226667,89.2 79.0446667,88.8 L70.5193333,79.6 L70.5193333,96.3 C70.5193333,96.8 70.1486667,97.2 69.6853333,97.2 C69.222,97.2 68.8513333,96.8 68.8513333,96.3 L68.8513333,79.6 L60.2333333,88.8 C60.048,89 59.8626667,89.1 59.5846667,89.1 C59.3066667,89.1 59.1213333,89 58.936,88.8 C58.5653333,88.4 58.5653333,87.8 58.936,87.5 L69.6853333,76 L80.2493333,87.4 C80.5273333,87.8 80.5273333,88.4 80.2493333,88.8 L80.2493333,88.8 Z M88.7746667,73.9 L75.8013333,73.9 L84.3266667,83.1 C84.6973333,83.5 84.6973333,84.1 84.3266667,84.4 C84.1413333,84.6 83.956,84.7 83.678,84.7 C83.4926667,84.7 83.2146667,84.6 83.0293333,84.4 L72.4653333,73 L83.0293333,61.6 C83.4,61.2 83.956,61.2 84.234,61.6 C84.6046667,62 84.6046667,62.6 84.234,62.9 L75.8013333,72 L88.8673333,72 C89.3306667,72 89.7013333,72.4 89.7013333,72.9 C89.7013333,73.4 89.3306667,73.9 88.7746667,73.9 L88.7746667,73.9 Z M93.13,103.6 L92.3886667,104.4 C91.9253333,104.9 91.9253333,105.5 92.296,105.9 L95.354,109.2 L97.4853333,106.9 L94.4273333,103.6 C94.1493333,103.1 93.5933333,103.1 93.13,103.6 L93.13,103.6 Z M84.3266667,112 C84.1413333,111.5 83.5853333,111.3 83.122,111.5 L81.176,112.4 L83.2146667,117.6 L85.068,116.8 C85.5313333,116.6 85.9946667,116.1 85.7166667,115.4 L84.3266667,112 L84.3266667,112 Z M113.98,70 L103.045333,69.9 C102.582,69.9 102.118667,70.3 102.118667,71 L102.118667,72.1 C102.118667,72.8 102.489333,73.2 103.045333,73.2 L113.98,73.3 C114.536,73.3 114.906667,72.9 114.906667,72.2 L114.906667,71.1 C114.814,70.4 114.536,70 113.98,70 L113.98,70 Z M70.2413333,114.3 L69.222,114.3 C68.5733333,114.3 68.2026667,114.7 68.2026667,115.3 L68.2953333,127.1 C68.2953333,127.7 68.666,128.1 69.3146667,128.1 L70.334,128.1 C70.9826667,128.1 71.3533333,127.7 71.3533333,127.1 L71.2606667,115.3 C71.2606667,114.8 70.89,114.3 70.2413333,114.3 L70.2413333,114.3 Z M123.061333,12.1 L15.846,12.1 L15.846,83 L15.9386667,83 C17.4213333,113.5 40.866,137.8 69.5,137.8 C98.134,137.8 121.578667,113.5 123.061333,83 L123.061333,83 C123.154,82 123.061333,12.1 123.061333,12.1 L123.061333,12.1 Z M110.922,28.2 L111.570667,28.2 L111.570667,29.7 L112.868,28.2 L113.702,28.2 L112.404667,29.6 L113.702,31.5 L112.868,31.5 L111.941333,30.1 L111.570667,30.5 L111.570667,31.5 L110.922,31.5 L110.922,28.2 L110.922,28.2 Z M106.844667,28.2 L108.234667,28.2 C108.976,28.2 109.439333,28.6 109.439333,29.3 L109.439333,29.3 C109.439333,29.8 109.161333,30.2 108.790667,30.3 L109.532,31.5 L108.698,31.5 L108.049333,30.4 L107.493333,30.4 L107.493333,31.5 L106.844667,31.5 L106.844667,28.2 L106.844667,28.2 Z M102.211333,28.2 L102.952667,28.2 L103.786667,29.6 L104.620667,28.2 L105.362,28.2 L105.362,31.6 L104.713333,31.6 L104.713333,29.4 L103.879333,30.8 L103.045333,29.4 L103.045333,31.6 L102.396667,31.6 L102.396667,28.2 L102.211333,28.2 Z M65.7006667,24.5 L68.4806667,24.5 C68.666,24.5 68.944,24.3 69.0366667,24.1 L69.8706667,21.2 C69.9633333,21 70.056,21 70.1486667,21.2 L70.9826667,24.1 C71.0753333,24.3 71.2606667,24.5 71.5386667,24.5 L74.3186667,24.5 C74.504,24.5 74.5966667,24.6 74.4113333,24.8 L72.1873333,26.6 C72.002,26.7 71.9093333,27 72.002,27.3 L72.836,30.2 C72.9286667,30.4 72.836,30.5 72.6506667,30.4 L70.4266667,28.6 C70.2413333,28.5 69.9633333,28.5 69.778,28.6 L67.554,30.4 C67.3686667,30.5 67.276,30.5 67.3686667,30.2 L68.2026667,27.3 C68.2953333,27.1 68.2026667,26.8 68.0173333,26.6 L65.7933333,24.8 C65.4226667,24.6 65.5153333,24.5 65.7006667,24.5 L65.7006667,24.5 Z M33.5453333,28.2 L34.75,28.2 C35.7693333,28.2 36.418,28.9 36.418,29.9 L36.418,29.9 C36.418,30.8 35.7693333,31.6 34.75,31.6 L33.5453333,31.6 L33.5453333,28.2 L33.5453333,28.2 Z M29.468,28.2 L30.858,28.2 C31.5993333,28.2 32.0626667,28.6 32.0626667,29.3 L32.0626667,29.3 C32.0626667,29.8 31.7846667,30.2 31.414,30.3 L32.1553333,31.5 L31.3213333,31.5 L30.6726667,30.4 L30.1166667,30.4 L30.1166667,31.5 L29.468,31.5 L29.468,28.2 L29.468,28.2 Z M25.3906667,28.2 L27.9853333,28.2 L27.9853333,28.9 L27.0586667,28.9 L27.0586667,31.6 L26.41,31.6 L26.41,28.9 L25.4833333,28.9 L25.4833333,28.2 L25.3906667,28.2 Z M22.6106667,71.4 C22.6106667,70.5 22.8886667,69.9 23.2593333,69.4 C23.63,69 24.186,68.7 25.02,68.7 L36.3253333,68.7 C37.0666667,68.7 37.6226667,69 38.086,69.4 C38.5493333,69.8 38.8273333,70.5 38.8273333,71.3 L38.8273333,73.4 C38.8273333,74.3 38.5493333,74.9 38.1786667,75.4 C37.808,75.9 37.252,76.1 36.418,76.1 L25.1126667,76.1 C24.2786667,76.1 23.8153333,75.8 23.352,75.4 C22.9813333,75 22.7033333,74.4 22.7033333,73.4 L22.6106667,71.4 L22.6106667,71.4 Z M36.5106667,55.4 L25.576,55.3 C25.02,55.3 24.6493333,55.7 24.6493333,56.4 L24.6493333,57.5 C24.6493333,58.2 25.02,58.6 25.576,58.6 L27.522,58.6 L27.522,60.7 L25.4833333,60.7 C24.742,60.7 24.0933333,60.4 23.7226667,59.9 C23.352,59.5 23.074,58.8 23.074,58 L23.074,55.9 C23.074,55.1 23.352,54.5 23.7226667,54 C24.0933333,53.5 24.742,53.2 25.4833333,53.2 L36.7886667,53.3 C37.53,53.3 38.086,53.6 38.4566667,54 C38.92,54.4 39.198,55.1 39.198,56 L39.198,58.1 C39.198,59 38.92,59.7 38.4566667,60.1 C38.086,60.5 37.53,60.8 36.7886667,60.8 L34.6573333,60.8 L34.6573333,58.7 L36.6033333,58.7 C37.0666667,58.7 37.53,58.3 37.53,57.6 L37.53,56.5 C37.3446667,55.8 37.0666667,55.4 36.5106667,55.4 L36.5106667,55.4 Z M24.0933333,91.6 L23.1666667,85.7 L39.0126667,82.8 L39.2906667,84.8 L25.1126667,87.4 L25.6686667,91.2 L24.0933333,91.6 L24.0933333,91.6 Z M29.468,105.6 L26.966,100.3 L41.2366667,92.4 L42.0706667,94.2 L29.2826667,101.2 L30.9506667,104.7 L29.468,105.6 L29.468,105.6 Z M38.2713333,116.8 L43.368,111.1 L41.144,108.8 L36.0473333,114.5 L34.6573333,113.1 L44.1093333,102.5 C44.6653333,101.9 45.2213333,101.7 45.7773333,101.7 C46.3333333,101.7 46.982,101.9 47.6306667,102.5 L49.0206667,103.9 C49.5766667,104.5 49.8546667,105.2 49.8546667,105.9 C49.8546667,106.5 49.6693333,107.1 49.1133333,107.7 L39.6613333,118.3 L38.2713333,116.8 L38.2713333,116.8 Z M60.4186667,113.8 L59.214,117 C58.7506667,118.1 57.7313333,118.7 56.8046667,118.5 L56.8046667,118.6 C57.7313333,119.1 58.2873333,120.4 57.824,121.6 L56.434,125.3 C56.156,125.9 55.6926667,126.4 55.1366667,126.7 C54.5806667,126.9 54.0246667,126.9 53.376,126.7 L48.928,124.8 L54.9513333,108.8 L59.214,110.7 C59.77,111 60.2333333,111.5 60.5113333,112.1 C60.6966667,112.5 60.6966667,113.2 60.4186667,113.8 L60.4186667,113.8 Z M72.558,129.1 C72.1873333,129.5 71.6313333,129.8 70.7973333,129.8 L68.8513333,129.8 C68.0173333,129.8 67.4613333,129.5 66.998,129.1 C66.6273333,128.7 66.3493333,128.1 66.3493333,127.2 L66.2566667,115 C66.2566667,114.2 66.5346667,113.6 66.9053333,113.1 C67.276,112.6 67.9246667,112.3 68.7586667,112.3 L70.7046667,112.3 C71.5386667,112.3 72.0946667,112.6 72.558,113 C73.0213333,113.4 73.2066667,114 73.2066667,114.9 L73.2993333,127.1 C73.2066667,128.1 73.0213333,128.7 72.558,129.1 L72.558,129.1 Z M89.7013333,125.3 L87.3846667,119.4 C87.014,118.5 86.0873333,118.3 85.4386667,118.6 L83.8633333,119.3 L86.736,126.7 L84.9753333,127.5 L78.7666667,111.6 L82.9366667,109.7 C83.4926667,109.4 84.234,109.4 84.79,109.7 C85.346,109.9 85.8093333,110.4 85.9946667,111.1 L87.1066667,114.1 C87.57,115.4 87.1993333,116.5 86.3653333,117.1 L86.3653333,117.2 C86.8286667,117 87.292,117.1 87.848,117.3 C88.404,117.5 88.8673333,118 89.1453333,118.7 L91.462,124.6 L89.7013333,125.3 L89.7013333,125.3 Z M104.064667,113.7 L98.7826667,108.1 L96.6513333,110.4 L101.933333,116 L100.636,117.5 L90.8133333,107.2 C90.2573333,106.6 90.072,106 90.072,105.4 C90.072,104.8 90.2573333,104.1 90.8133333,103.4 L92.1106667,101.9 C92.6666667,101.3 93.3153333,101 93.964,101 C94.52,101 95.076,101.2 95.632,101.8 L105.362,112.2 L104.064667,113.7 L104.064667,113.7 Z M111.941333,101.2 L98.968,94.8 L97.9486667,97.1 L96.3733333,96.3 L99.1533333,89.7 L100.728667,90.5 L99.7093333,92.9 L112.682667,99.3 L111.941333,101.2 L111.941333,101.2 Z M115.555333,86.8 L99.7093333,84.1 L99.9873333,82.1 L115.833333,84.8 L115.555333,86.8 L115.555333,86.8 Z M116.574667,72.8 C116.574667,73.7 116.296667,74.3 115.833333,74.7 C115.37,75.1 114.906667,75.4 114.072667,75.4 L102.86,75.3 C102.118667,75.3 101.562667,75 101.192,74.6 C100.728667,74.2 100.450667,73.5 100.543333,72.6 L100.543333,70.5 C100.543333,69.6 100.821333,69 101.284667,68.6 C101.655333,68.1 102.211333,67.9 103.045333,67.9 L114.350667,68 C115.184667,68 115.648,68.3 116.111333,68.8 C116.482,69.2 116.76,69.8 116.76,70.8 L116.574667,72.8 L116.574667,72.8 Z M103.138,58.3 L116.574667,58.3 L116.574667,60.4 L100.543333,60.4 L100.543333,58.5 L101.47,58.5 C101.377333,58.4 101.192,58.3 101.006667,58.2 C100.728667,57.9 100.450667,57.4 100.450667,56.8 L100.450667,55.7 C100.450667,54.8 100.728667,54.2 101.099333,53.7 C101.47,53.3 102.026,53 102.86,53 L116.482,53 L116.482,55 L103.045333,55 C102.489333,55 102.118667,55.4 102.118667,56.1 L102.118667,57.2 C102.118667,57.9 102.582,58.3 103.138,58.3 L103.138,58.3 Z M116.667333,44.3 L93.964,44.3 L93.964,80.6 C93.3153333,94.5 82.6586667,105.5 69.6853333,105.5 C56.8046667,105.5 46.148,94.7 45.4066667,80.9 C45.4066667,80.8 45.314,80.7 45.314,80.6 L45.314,44.3 L22.796,44.3 C22.3326667,44.3 21.962,43.9 21.962,43.4 C21.962,42.9 22.3326667,42.5 22.796,42.5 L45.2213333,42.5 L45.2213333,19.1 C45.2213333,18.6 45.592,18.2 46.0553333,18.2 C46.5186667,18.2 46.8893333,18.6 46.8893333,19.1 L46.8893333,42.5 L51.0593333,42.5 L51.0593333,23.9 C51.0593333,23.4 51.43,23 51.8933333,23 C52.3566667,23 52.7273333,23.4 52.7273333,23.9 L52.7273333,42.4 L56.8973333,42.4 L56.8973333,28.9 C56.8973333,28.4 57.268,28 57.7313333,28 C58.1946667,28 58.5653333,28.4 58.5653333,28.9 L58.5653333,42.5 L62.7353333,42.5 L62.7353333,33.9 C62.7353333,33.4 63.106,33 63.5693333,33 C64.0326667,33 64.4033333,33.4 64.4033333,33.9 L64.4033333,42.5 L68.5733333,42.5 L68.5733333,38.9 C68.5733333,38.4 68.944,38 69.4073333,38 C69.8706667,38 70.2413333,38.4 70.2413333,38.9 L70.2413333,42.5 L74.4113333,42.5 L74.4113333,33.9 C74.4113333,33.4 74.782,33 75.2453333,33 C75.7086667,33 76.0793333,33.4 76.0793333,33.9 L76.0793333,42.5 L80.2493333,42.5 L80.2493333,28.9 C80.2493333,28.4 80.62,28 81.0833333,28 C81.5466667,28 81.9173333,28.4 81.9173333,28.9 L81.9173333,42.5 L86.0873333,42.5 L86.0873333,23.9 C86.0873333,23.4 86.458,23 86.9213333,23 C87.3846667,23 87.7553333,23.4 87.7553333,23.9 L87.7553333,42.4 L91.8326667,42.4 L91.8326667,19 C91.8326667,18.5 92.2033333,18.1 92.6666667,18.1 C93.13,18.1 93.5006667,18.5 93.5006667,19 L93.5006667,42.4 L116.204,42.4 C116.667333,42.4 117.038,42.8 117.038,43.3 C117.501333,43.9 117.130667,44.3 116.667333,44.3 L116.667333,44.3 Z" id="Shape" fill="#000000"></path>
            </g>
        </g>
    </g>
</svg>