<?xml version="1.0" encoding="UTF-8" standalone="no"?>
<svg width="128px" height="150px" viewBox="0 0 128 150" version="1.1" xmlns="http://www.w3.org/2000/svg" xmlns:xlink="http://www.w3.org/1999/xlink" xmlns:sketch="http://www.bohemiancoding.com/sketch/ns">
    <!-- Generator: Sketch 3.2.2 (9983) - http://www.bohemiancoding.com/sketch -->
    <title>collaboration-white</title>
    <desc>Created with Sketch.</desc>
    <defs></defs>
    <g id="Page-1" stroke="none" stroke-width="1" fill="none" fill-rule="evenodd" sketch:type="MSPage">
        <g id="collaboration-white" sketch:type="MSLayerGroup" transform="translate(-1.000000, 0.000000)">
            <g id="Page-1" sketch:type="MSShapeGroup">
                <g id="collaboration">
                    <g id="Group">
                        <path d="M126.559571,3.45238095 L4.1035474,3.45238095 L4.1035474,84.2857143 L4.21406727,84.2857143 C5.87186544,119.047619 32.6176759,146.785714 65.3315596,146.785714 C98.0454434,146.785714 124.791254,119.166667 126.449052,84.2857143 L126.449052,84.2857143 C126.559571,83.0952381 126.559571,3.45238095 126.559571,3.45238095 L126.559571,3.45238095 L126.559571,3.45238095 Z" id="Shape" fill="#000000"></path>
                        <path d="M47.7588991,127.142857 L45.8800612,126.309524 L43.3381039,133.095238 L45.990581,134.285714 C46.5431805,134.52381 47.2062997,134.285714 47.4273394,133.690476 L48.9746177,129.642857 C49.3061773,128.571429 48.6430581,127.5 47.7588991,127.142857 L47.7588991,127.142857 L47.7588991,127.142857 Z M37.8121101,109.642857 C37.2595107,109.047619 36.5963915,109.047619 36.1543119,109.52381 L32.507156,113.571429 L35.159633,116.309524 L38.806789,112.261905 C39.2488685,111.785714 39.2488685,111.071429 38.6962691,110.47619 L37.8121101,109.642857 L37.8121101,109.642857 Z M51.406055,119.166667 L48.9746177,118.095238 L46.6537003,124.285714 L48.8640979,125.238095 C49.4166972,125.47619 50.1903364,125.47619 50.5218961,124.642857 L52.0691743,120.595238 C52.1796942,120 51.9586544,119.404762 51.406055,119.166667 L51.406055,119.166667 L51.406055,119.166667 Z M19.5763303,20.7142857 L19.5763303,20.7142857 C19.5763303,20.3571429 19.3552906,20.1190476 18.913211,20.1190476 L18.1395718,20.1190476 L18.1395718,21.3095238 L18.913211,21.3095238 C19.3552906,21.1904762 19.5763303,20.952381 19.5763303,20.7142857 L19.5763303,20.7142857 L19.5763303,20.7142857 Z M111.860428,20.7142857 L111.860428,20.7142857 C111.860428,20.3571429 111.639388,20.1190476 111.197309,20.1190476 L110.42367,20.1190476 L110.42367,21.3095238 L111.197309,21.3095238 C111.639388,21.1904762 111.860428,20.952381 111.860428,20.7142857 L111.860428,20.7142857 L111.860428,20.7142857 Z M24.7707645,21.3095238 L24.7707645,21.3095238 C24.7707645,20.5952381 24.3286851,20.1190476 23.6655658,20.1190476 L23.0024465,20.1190476 L23.0024465,22.5 L23.6655658,22.5 C24.3286851,22.5 24.7707645,22.0238095 24.7707645,21.3095238 L24.7707645,21.3095238 L24.7707645,21.3095238 Z M12.1714984,73.9285714 L25.212844,73.8095238 C25.7654434,73.8095238 26.3180429,73.3333333 26.3180429,72.5 L26.3180429,71.1904762 C26.3180429,70.3571429 25.8759633,69.8809524 25.212844,69.8809524 L12.1714984,69.8809524 C11.5083792,69.8809524 11.0662997,70.3571429 11.0662997,71.1904762 L11.0662997,72.5 C11.1768196,73.452381 11.6188991,73.9285714 12.1714984,73.9285714 L12.1714984,73.9285714 L12.1714984,73.9285714 Z M38.1436697,38.452381 L38.1436697,81.3095238 L38.1436697,81.547619 C38.9173089,97.0238095 50.7429358,109.047619 65.1105199,109.047619 C79.4781039,109.047619 91.3037309,96.9047619 92.07737,81.547619 L92.07737,38.452381 L38.1436697,38.452381 L38.1436697,38.452381 Z M52.5112539,53.8095238 C52.9533333,53.3333333 53.6164526,53.3333333 53.9480122,53.8095238 L64.115841,64.7619048 L64.115841,44.5238095 C64.115841,43.9285714 64.5579204,43.452381 65.1105199,43.452381 C65.6631193,43.452381 66.1051988,43.9285714 66.1051988,44.5238095 L66.1051988,64.7619048 L76.2730275,53.8095238 C76.7151071,53.3333333 77.3782263,53.3333333 77.709786,53.8095238 C78.1518654,54.2857143 78.1518654,55 77.709786,55.3571429 L65.1105199,68.9285714 L52.5112539,55.3571429 C52.0691743,54.8809524 52.0691743,54.2857143 52.5112539,53.8095238 L52.5112539,53.8095238 L52.5112539,53.8095238 Z M48.4220183,86.547619 C48.2009786,86.547619 47.869419,86.4285714 47.6483792,86.1904762 C47.2062997,85.7142857 47.2062997,85 47.6483792,84.6428571 L57.816208,73.6904762 L42.2329052,73.6904762 C41.6803058,73.6904762 41.2382263,73.2142857 41.2382263,72.6190476 C41.2382263,72.0238095 41.6803058,71.547619 42.2329052,71.547619 L57.816208,71.547619 L47.6483792,60.5952381 C47.2062997,60.1190476 47.2062997,59.4047619 47.6483792,59.047619 C48.0904587,58.5714286 48.753578,58.5714286 49.0851376,59.047619 L61.7949236,72.6190476 L49.1956575,86.1904762 C48.9746177,86.4285714 48.6430581,86.547619 48.4220183,86.547619 L48.4220183,86.547619 L48.4220183,86.547619 Z M77.8203058,91.4285714 C77.3782263,91.9047619 76.7151071,91.9047619 76.3835474,91.4285714 L66.2157186,80.4761905 L66.2157186,100.357143 C66.2157186,100.952381 65.7736392,101.428571 65.2210397,101.428571 C64.6684404,101.428571 64.2263608,100.952381 64.2263608,100.357143 L64.2263608,80.4761905 L53.9480122,91.4285714 C53.7269725,91.6666667 53.5059328,91.7857143 53.1743731,91.7857143 C52.8428135,91.7857143 52.6217737,91.6666667 52.4007339,91.4285714 C51.9586544,90.952381 51.9586544,90.2380952 52.4007339,89.8809524 L65.2210397,76.1904762 L77.8203058,89.7619048 C78.1518654,90.2380952 78.1518654,90.952381 77.8203058,91.4285714 L77.8203058,91.4285714 L77.8203058,91.4285714 Z M87.9881346,73.6904762 L72.5153516,73.6904762 L82.6831805,84.6428571 C83.1252599,85.1190476 83.1252599,85.8333333 82.6831805,86.1904762 C82.4621406,86.4285714 82.2411009,86.547619 81.9095413,86.547619 C81.6885016,86.547619 81.3569419,86.4285714 81.1359021,86.1904762 L68.536636,72.6190476 L81.1359021,59.047619 C81.5779817,58.5714286 82.2411009,58.5714286 82.5726606,59.047619 C83.0147401,59.5238095 83.0147401,60.2380952 82.5726606,60.5952381 L72.5153516,71.4285714 L88.0986544,71.4285714 C88.6512539,71.4285714 89.0933333,71.9047619 89.0933333,72.5 C89.0933333,73.0952381 88.6512539,73.6904762 87.9881346,73.6904762 L87.9881346,73.6904762 L87.9881346,73.6904762 Z M93.1825688,109.047619 L92.2984098,110 C91.7458104,110.595238 91.7458104,111.309524 92.1878899,111.785714 L95.8350459,115.714286 L98.377003,112.97619 L94.7298471,109.047619 C94.3982874,108.452381 93.7351682,108.452381 93.1825688,109.047619 L93.1825688,109.047619 L93.1825688,109.047619 Z M82.6831805,119.047619 C82.4621406,118.452381 81.7990214,118.214286 81.246422,118.452381 L78.9255046,119.52381 L81.3569419,125.714286 L83.5673394,124.761905 C84.1199388,124.52381 84.6725383,123.928571 84.3409786,123.095238 L82.6831805,119.047619 L82.6831805,119.047619 Z M118.049541,69.047619 L105.008196,68.9285714 C104.455596,68.9285714 103.902997,69.4047619 103.902997,70.2380952 L103.902997,71.547619 C103.902997,72.3809524 104.345076,72.8571429 105.008196,72.8571429 L118.049541,72.9761905 C118.712661,72.9761905 119.15474,72.5 119.15474,71.6666667 L119.15474,70.3571429 C119.04422,69.5238095 118.712661,69.047619 118.049541,69.047619 L118.049541,69.047619 L118.049541,69.047619 Z M65.884159,121.785714 L64.6684404,121.785714 C63.8948012,121.785714 63.4527218,122.261905 63.4527218,122.97619 L63.5632416,137.02381 C63.5632416,137.738095 64.0053211,138.214286 64.7789603,138.214286 L65.9946789,138.214286 C66.7683181,138.214286 67.2103975,137.738095 67.2103975,137.02381 L67.0998777,122.97619 C67.0998777,122.380952 66.6577982,121.785714 65.884159,121.785714 L65.884159,121.785714 L65.884159,121.785714 Z M128.880489,0.119047619 L1.00899083,0.119047619 L1.00899083,84.5238095 L1.1195107,84.5238095 C2.88782874,120.833333 30.8493578,149.761905 65,149.761905 C99.1506422,149.761905 127.112172,120.833333 128.880489,84.5238095 L128.880489,84.5238095 C128.991009,83.3333333 128.880489,0.119047619 128.880489,0.119047619 L128.880489,0.119047619 L128.880489,0.119047619 Z M114.402385,19.2857143 L115.176025,19.2857143 L115.176025,21.0714286 L116.723303,19.2857143 L117.717982,19.2857143 L116.170703,20.952381 L117.717982,23.2142857 L116.723303,23.2142857 L115.618104,21.547619 L115.176025,22.0238095 L115.176025,23.2142857 L114.402385,23.2142857 L114.402385,19.2857143 L114.402385,19.2857143 Z M109.539511,19.2857143 L111.197309,19.2857143 C112.081468,19.2857143 112.634067,19.7619048 112.634067,20.5952381 L112.634067,20.5952381 C112.634067,21.1904762 112.302508,21.6666667 111.860428,21.7857143 L112.744587,23.2142857 L111.749908,23.2142857 L110.976269,21.9047619 L110.31315,21.9047619 L110.31315,23.2142857 L109.539511,23.2142857 L109.539511,19.2857143 L109.539511,19.2857143 Z M104.013517,19.2857143 L104.897676,19.2857143 L105.892355,20.952381 L106.887034,19.2857143 L107.771193,19.2857143 L107.771193,23.3333333 L106.997553,23.3333333 L106.997553,20.7142857 L106.002875,22.3809524 L105.008196,20.7142857 L105.008196,23.3333333 L104.234557,23.3333333 L104.234557,19.2857143 L104.013517,19.2857143 L104.013517,19.2857143 Z M60.4686851,14.8809524 L63.7842814,14.8809524 C64.0053211,14.8809524 64.3368807,14.6428571 64.4474007,14.4047619 L65.4420796,10.952381 C65.5525993,10.7142857 65.6631193,10.7142857 65.7736392,10.952381 L66.7683181,14.4047619 C66.8788379,14.6428571 67.0998777,14.8809524 67.4314373,14.8809524 L70.7470337,14.8809524 C70.9680734,14.8809524 71.0785933,15 70.8575535,15.2380952 L68.2050764,17.3809524 C67.9840367,17.5 67.8735168,17.8571429 67.9840367,18.2142857 L68.9787156,21.6666667 C69.0892355,21.9047619 68.9787156,22.0238095 68.7576759,21.9047619 L66.1051988,19.7619048 C65.884159,19.6428571 65.5525993,19.6428571 65.3315596,19.7619048 L62.6790826,21.9047619 C62.4580429,22.0238095 62.3475229,22.0238095 62.4580429,21.6666667 L63.4527218,18.2142857 C63.5632416,17.9761905 63.4527218,17.6190476 63.2316819,17.3809524 L60.5792049,15.2380952 C60.1371254,15 60.2476452,14.8809524 60.4686851,14.8809524 L60.4686851,14.8809524 L60.4686851,14.8809524 Z M22.1182874,19.2857143 L23.5550459,19.2857143 C24.7707645,19.2857143 25.5444037,20.1190476 25.5444037,21.3095238 L25.5444037,21.3095238 C25.5444037,22.3809524 24.7707645,23.3333333 23.5550459,23.3333333 L22.1182874,23.3333333 L22.1182874,19.2857143 L22.1182874,19.2857143 Z M17.2554128,19.2857143 L18.913211,19.2857143 C19.79737,19.2857143 20.3499695,19.7619048 20.3499695,20.5952381 L20.3499695,20.5952381 C20.3499695,21.1904762 20.0184098,21.6666667 19.5763303,21.7857143 L20.4604893,23.2142857 L19.4658104,23.2142857 L18.6921713,21.9047619 L18.029052,21.9047619 L18.029052,23.2142857 L17.2554128,23.2142857 L17.2554128,19.2857143 L17.2554128,19.2857143 Z M12.3925383,19.2857143 L15.4870948,19.2857143 L15.4870948,20.1190476 L14.3818961,20.1190476 L14.3818961,23.3333333 L13.6082569,23.3333333 L13.6082569,20.1190476 L12.5030581,20.1190476 L12.5030581,19.2857143 L12.3925383,19.2857143 L12.3925383,19.2857143 Z M9.0769419,70.7142857 C9.0769419,69.6428571 9.40850153,68.9285714 9.85058104,68.3333333 C10.2926606,67.8571429 10.9557798,67.5 11.9504587,67.5 L25.4338838,67.5 C26.3180429,67.5 26.9811621,67.8571429 27.5337615,68.3333333 C28.0863608,68.8095238 28.4179204,69.6428571 28.4179204,70.5952381 L28.4179204,73.0952381 C28.4179204,74.1666667 28.0863608,74.8809524 27.6442814,75.4761905 C27.2022018,76.0714286 26.5390826,76.3095238 25.5444037,76.3095238 L12.0609786,76.3095238 C11.0662997,76.3095238 10.5137003,75.952381 9.96110092,75.4761905 C9.5190214,75 9.18746177,74.2857143 9.18746177,73.0952381 L9.0769419,70.7142857 L9.0769419,70.7142857 Z M25.6549236,51.6666667 L12.613578,51.547619 C11.9504587,51.547619 11.5083792,52.0238095 11.5083792,52.8571429 L11.5083792,54.1666667 C11.5083792,55 11.9504587,55.4761905 12.613578,55.4761905 L14.9344954,55.4761905 L14.9344954,57.9761905 L12.5030581,57.9761905 C11.6188991,57.9761905 10.8452599,57.6190476 10.4031804,57.0238095 C9.96110092,56.547619 9.62954128,55.7142857 9.62954128,54.7619048 L9.62954128,52.2619048 C9.62954128,51.3095238 9.96110092,50.5952381 10.4031804,50 C10.8452599,49.4047619 11.6188991,49.047619 12.5030581,49.047619 L25.9864832,49.1666667 C26.8706422,49.1666667 27.5337615,49.5238095 27.975841,50 C28.5284404,50.4761905 28.86,51.3095238 28.86,52.3809524 L28.86,54.8809524 C28.86,55.952381 28.5284404,56.7857143 27.975841,57.2619048 C27.5337615,57.7380952 26.8706422,58.0952381 25.9864832,58.0952381 L23.444526,58.0952381 L23.444526,55.5952381 L25.7654434,55.5952381 C26.3180429,55.5952381 26.8706422,55.1190476 26.8706422,54.2857143 L26.8706422,52.9761905 C26.6496025,52.1428571 26.3180429,51.6666667 25.6549236,51.6666667 L25.6549236,51.6666667 L25.6549236,51.6666667 Z M10.8452599,94.7619048 L9.74006117,87.7380952 L28.6389603,84.2857143 L28.9705199,86.6666667 L12.0609786,89.7619048 L12.7240979,94.2857143 L10.8452599,94.7619048 L10.8452599,94.7619048 Z M17.2554128,111.428571 L14.2713761,105.119048 L31.2914373,95.7142857 L32.2861162,97.8571429 L17.0343731,106.190476 L19.0237309,110.357143 L17.2554128,111.428571 L17.2554128,111.428571 Z M27.7548012,124.761905 L33.8333945,117.97619 L31.1809174,115.238095 L25.1023241,122.02381 L23.444526,120.357143 L34.7175535,107.738095 C35.3806727,107.02381 36.043792,106.785714 36.7069113,106.785714 C37.3700305,106.785714 38.1436697,107.02381 38.9173089,107.738095 L40.5751071,109.404762 C41.2382263,110.119048 41.569786,110.952381 41.569786,111.785714 C41.569786,112.5 41.3487461,113.214286 40.6856269,113.928571 L29.4125993,126.547619 L27.7548012,124.761905 L27.7548012,124.761905 Z M54.169052,121.190476 L52.7322936,125 C52.1796942,126.309524 50.9639755,127.02381 49.8587768,126.785714 L49.8587768,126.904762 C50.9639755,127.5 51.6270948,129.047619 51.0744954,130.47619 L49.4166972,134.880952 C49.0851376,135.595238 48.5325383,136.190476 47.869419,136.547619 C47.2062997,136.785714 46.5431805,136.785714 45.7695413,136.547619 L40.4645872,134.285714 L47.6483792,115.238095 L52.7322936,117.5 C53.3954128,117.857143 53.9480122,118.452381 54.2795718,119.166667 C54.5006117,119.642857 54.5006117,120.47619 54.169052,121.190476 L54.169052,121.190476 L54.169052,121.190476 Z M68.647156,139.404762 C68.2050764,139.880952 67.5419571,140.238095 66.5472782,140.238095 L64.2263608,140.238095 C63.2316819,140.238095 62.5685627,139.880952 62.0159633,139.404762 C61.5738838,138.928571 61.2423241,138.214286 61.2423241,137.142857 L61.1318043,122.619048 C61.1318043,121.666667 61.463364,120.952381 61.9054434,120.357143 C62.3475229,119.761905 63.1211621,119.404762 64.115841,119.404762 L66.4367584,119.404762 C67.4314373,119.404762 68.0945566,119.761905 68.647156,120.238095 C69.1997553,120.714286 69.4207951,121.428571 69.4207951,122.5 L69.5313149,137.02381 C69.4207951,138.214286 69.1997553,138.928571 68.647156,139.404762 L68.647156,139.404762 L68.647156,139.404762 Z M89.0933333,134.880952 L86.3303364,127.857143 C85.8882569,126.785714 84.7830581,126.547619 84.009419,126.904762 L82.130581,127.738095 L85.5566972,136.547619 L83.4568195,137.5 L76.0519878,118.571429 L81.0253823,116.309524 C81.6885016,115.952381 82.5726606,115.952381 83.2357798,116.309524 C83.8988991,116.547619 84.4514984,117.142857 84.6725383,117.97619 L85.9987768,121.547619 C86.5513761,123.095238 86.1092966,124.404762 85.1146177,125.119048 L85.1146177,125.238095 C85.6672172,125 86.2198165,125.119048 86.8829358,125.357143 C87.546055,125.595238 88.0986544,126.190476 88.430214,127.02381 L91.193211,134.047619 L89.0933333,134.880952 L89.0933333,134.880952 Z M106.223914,121.071429 L99.9242814,114.404762 L97.3823241,117.142857 L103.681957,123.809524 L102.134679,125.595238 L90.4195718,113.333333 C89.7564526,112.619048 89.5354128,111.904762 89.5354128,111.190476 C89.5354128,110.47619 89.7564526,109.642857 90.4195718,108.809524 L91.9668502,107.02381 C92.6299695,106.309524 93.4036085,105.952381 94.1772477,105.952381 C94.840367,105.952381 95.5034862,106.190476 96.1666055,106.904762 L107.771193,119.285714 L106.223914,121.071429 L106.223914,121.071429 Z M115.618104,106.190476 L100.145321,98.5714286 L98.9296025,101.309524 L97.0507645,100.357143 L100.366361,92.5 L102.245199,93.452381 L101.02948,96.3095238 L116.502263,103.928571 L115.618104,106.190476 L115.618104,106.190476 Z M119.928379,89.047619 L101.02948,85.8333333 L101.36104,83.452381 L120.259938,86.6666667 L119.928379,89.047619 L119.928379,89.047619 Z M121.144098,72.3809524 C121.144098,73.452381 120.812539,74.1666667 120.259938,74.6428571 C119.707339,75.1190476 119.15474,75.4761905 118.160061,75.4761905 L104.787156,75.3571429 C103.902997,75.3571429 103.239878,75 102.797798,74.5238095 C102.245199,74.047619 101.913639,73.2142857 102.024159,72.1428571 L102.024159,69.6428571 C102.024159,68.5714286 102.355719,67.8571429 102.908318,67.3809524 C103.350398,66.7857143 104.013517,66.547619 105.008196,66.547619 L118.491621,66.6666667 C119.4863,66.6666667 120.038899,67.0238095 120.591498,67.6190476 C121.033578,68.0952381 121.365138,68.8095238 121.365138,70 L121.144098,72.3809524 L121.144098,72.3809524 Z M105.118716,55.1190476 L121.144098,55.1190476 L121.144098,57.6190476 L102.024159,57.6190476 L102.024159,55.3571429 L103.129358,55.3571429 C103.018838,55.2380952 102.797798,55.1190476 102.576758,55 C102.245199,54.6428571 101.913639,54.047619 101.913639,53.3333333 L101.913639,52.0238095 C101.913639,50.952381 102.245199,50.2380952 102.687278,49.6428571 C103.129358,49.1666667 103.792477,48.8095238 104.787156,48.8095238 L121.033578,48.8095238 L121.033578,51.1904762 L105.008196,51.1904762 C104.345076,51.1904762 103.902997,51.6666667 103.902997,52.5 L103.902997,53.8095238 C103.902997,54.6428571 104.455596,55.1190476 105.118716,55.1190476 L105.118716,55.1190476 L105.118716,55.1190476 Z M121.254617,38.452381 L94.1772477,38.452381 L94.1772477,81.6666667 C93.4036085,98.2142857 80.6938227,111.309524 65.2210397,111.309524 C49.8587768,111.309524 37.1489908,98.452381 36.2648318,82.0238095 C36.2648318,81.9047619 36.1543119,81.7857143 36.1543119,81.6666667 L36.1543119,38.452381 L9.29798165,38.452381 C8.74538227,38.452381 8.30330275,37.9761905 8.30330275,37.3809524 C8.30330275,36.7857143 8.74538227,36.3095238 9.29798165,36.3095238 L36.043792,36.3095238 L36.043792,8.45238095 C36.043792,7.85714286 36.4858716,7.38095238 37.0384709,7.38095238 C37.5910704,7.38095238 38.0331498,7.85714286 38.0331498,8.45238095 L38.0331498,36.3095238 L43.0065443,36.3095238 L43.0065443,14.1666667 C43.0065443,13.5714286 43.4486239,13.0952381 44.0012232,13.0952381 C44.5538227,13.0952381 44.9959021,13.5714286 44.9959021,14.1666667 L44.9959021,36.1904762 L49.9692966,36.1904762 L49.9692966,20.1190476 C49.9692966,19.5238095 50.4113761,19.047619 50.9639755,19.047619 C51.516575,19.047619 51.9586544,19.5238095 51.9586544,20.1190476 L51.9586544,36.3095238 L56.9320489,36.3095238 L56.9320489,26.0714286 C56.9320489,25.4761905 57.3741284,25 57.9267278,25 C58.4793273,25 58.9214067,25.4761905 58.9214067,26.0714286 L58.9214067,36.3095238 L63.8948012,36.3095238 L63.8948012,32.0238095 C63.8948012,31.4285714 64.3368807,30.952381 64.8894801,30.952381 C65.4420796,30.952381 65.884159,31.4285714 65.884159,32.0238095 L65.884159,36.3095238 L70.8575535,36.3095238 L70.8575535,26.0714286 C70.8575535,25.4761905 71.299633,25 71.8522324,25 C72.4048318,25 72.8469113,25.4761905 72.8469113,26.0714286 L72.8469113,36.3095238 L77.8203058,36.3095238 L77.8203058,20.1190476 C77.8203058,19.5238095 78.2623853,19.047619 78.8149847,19.047619 C79.3675841,19.047619 79.8096636,19.5238095 79.8096636,20.1190476 L79.8096636,36.3095238 L84.7830581,36.3095238 L84.7830581,14.1666667 C84.7830581,13.5714286 85.2251376,13.0952381 85.777737,13.0952381 C86.3303364,13.0952381 86.7724159,13.5714286 86.7724159,14.1666667 L86.7724159,36.1904762 L91.6352906,36.1904762 L91.6352906,8.33333333 C91.6352906,7.73809524 92.07737,7.26190476 92.6299695,7.26190476 C93.1825688,7.26190476 93.6246484,7.73809524 93.6246484,8.33333333 L93.6246484,36.1904762 L120.702018,36.1904762 C121.254617,36.1904762 121.696697,36.6666667 121.696697,37.2619048 C122.249296,37.9761905 121.807218,38.452381 121.254617,38.452381 L121.254617,38.452381 L121.254617,38.452381 Z" id="Shape" fill="#FFFFFF"></path>
                    </g>
                </g>
            </g>
        </g>
    </g>
</svg>