<?xml version="1.0" encoding="UTF-8" standalone="no"?>
<svg width="131px" height="148px" viewBox="0 0 131 148" version="1.1" xmlns="http://www.w3.org/2000/svg" xmlns:xlink="http://www.w3.org/1999/xlink" xmlns:sketch="http://www.bohemiancoding.com/sketch/ns">
    <!-- Generator: Sketch 3.2.2 (9983) - http://www.bohemiancoding.com/sketch -->
    <title>frontend-tooling</title>
    <desc>Created with Sketch.</desc>
    <defs></defs>
    <g id="Page-1" stroke="none" stroke-width="1" fill="none" fill-rule="evenodd" sketch:type="MSPage">
        <g id="frontend-tooling" sketch:type="MSLayerGroup" transform="translate(-1.000000, -1.000000)">
            <g id="Page-1" sketch:type="MSShapeGroup">
                <g id="frontend-tooling" transform="translate(0.032787, 0.354778)">
                    <g id="Group" transform="translate(1.000000, 0.000000)">
                        <ellipse id="Oval" fill="#000000" cx="65.7147541" cy="74.7161779" rx="60.0237705" ry="59.4962157"></ellipse>
                        <path d="M65.607377,59.9219489 L71.942623,62.9020814 C72.6942623,63.2213813 73.4459016,62.9020814 73.7680328,62.1570482 C74.0901639,61.4120151 73.7680328,60.666982 73.0163934,60.3476821 L66.6811475,57.3675497 C65.9295082,57.0482498 65.1778689,57.3675497 64.8557377,58.1125828 C64.5336066,58.7511826 64.8557377,59.602649 65.607377,59.9219489 L65.607377,59.9219489 L65.607377,59.9219489 Z M56.2655738,58.538316 C55.4065574,58.538316 54.7622951,59.0704825 54.654918,59.9219489 L54.654918,69.0752129 C54.654918,69.3945128 54.8696721,69.3945128 54.8696721,69.3945128 L57.3393443,69.3945128 C57.3393443,69.3945128 57.5540984,69.3945128 57.5540984,69.0752129 L57.5540984,60.1348155 C57.7688525,59.2833491 57.1245902,58.538316 56.2655738,58.538316 L56.2655738,58.538316 L56.2655738,58.538316 Z M56.1581967,55.9839167 C57.4467213,55.9839167 58.4131148,55.026017 58.4131148,53.7488174 C58.4131148,52.4716178 57.4467213,51.5137181 56.1581967,51.5137181 C54.8696721,51.5137181 53.9032787,52.4716178 53.9032787,53.7488174 C53.9032787,55.026017 54.8696721,55.9839167 56.1581967,55.9839167 L56.1581967,55.9839167 L56.1581967,55.9839167 Z M32.3204918,106.859035 L35.4344262,109.626301 L40.3737705,104.304636 L37.2598361,101.430937 L32.3204918,106.859035 L32.3204918,106.859035 Z M129.711475,37.2516556 L65.9295082,0.745033113 C65.7147541,0.638599811 65.2852459,0.638599811 65.0704918,0.745033113 L1.28852459,37.2516556 C1.07377049,37.3580889 0.859016393,37.7838221 0.859016393,37.9966887 L0.859016393,111.009934 C0.859016393,111.329234 1.07377049,111.648534 1.28852459,111.754967 L65.0704918,148.261589 C65.2852459,148.368023 65.7147541,148.368023 65.9295082,148.261589 L129.711475,111.754967 C129.92623,111.648534 130.140984,111.2228 130.140984,111.009934 L130.140984,37.9966887 C130.140984,37.7838221 129.92623,37.3580889 129.711475,37.2516556 L129.711475,37.2516556 L129.711475,37.2516556 Z M100.07541,40.3382214 L98.5721311,46.6177862 L102.545082,42.8926206 L104.370492,44.8084201 L96.102459,52.5780511 L94.4918033,50.8751183 L96.5319672,41.9347209 L90.9483607,47.256386 L89.1229508,45.3405866 L97.3909836,37.5709555 L100.07541,40.3382214 L100.07541,40.3382214 Z M97.3909836,75.8869442 L97.3909836,75.8869442 L96.4245902,74.396878 L96.4245902,76.525544 L95.4581967,76.525544 L95.4581967,72.8003784 L96.5319672,72.8003784 L97.3909836,74.2904447 L98.25,72.8003784 L99.3237705,72.8003784 L99.3237705,76.525544 L98.25,76.525544 L98.25,74.396878 L97.3909836,75.8869442 L97.3909836,75.8869442 Z M84.2909836,29.5884579 L91.9147541,33.5264901 L90.7336066,35.6551561 L85.4721311,32.9943236 L84.5057377,34.8036897 L87.404918,36.2937559 L86.3311475,38.4224219 L83.4319672,36.9323557 L82.4655738,38.7417219 L87.7270492,41.4025544 L86.6532787,43.5312204 L79.0295082,39.5931883 L84.2909836,29.5884579 L84.2909836,29.5884579 Z M79.9959016,70.3524125 C79.3516393,70.0331126 78.6,70.3524125 78.2778689,70.9910123 L75.2713115,78.1220435 C74.6270492,77.9091769 73.9827869,77.9091769 73.2311475,77.9091769 C72.6942623,77.9091769 72.2647541,77.9091769 71.7278689,78.0156102 L77.7409836,63.8599811 C78.492623,62.1570482 80.1032787,61.1991485 81.8213115,61.1991485 C82.4655738,61.1991485 83.002459,61.3055818 83.6467213,61.5184484 C85.9016393,62.4763482 86.9754098,65.1371807 86.0090164,67.37228 L79.9959016,81.4214759 C79.3516393,80.5700095 78.6,79.718543 77.6336066,79.1863765 L80.6401639,72.0553453 C80.9622951,71.4167455 80.6401639,70.6717124 79.9959016,70.3524125 L79.9959016,70.3524125 L79.9959016,70.3524125 Z M69.902459,26.0761589 L77.7409836,27.4597919 L77.3114754,29.8013245 L74.7344262,29.3755913 L73.2311475,38.2095553 L70.5467213,37.7838221 L72.05,28.9498581 L69.4729508,28.5241249 L69.902459,26.0761589 L69.902459,26.0761589 Z M79.0295082,60.0283822 C77.7409836,60.666982 76.5598361,61.8377483 76.0229508,63.2213813 L74.197541,67.5851466 L62.7081967,62.0506149 L62.7081967,54.3874172 C62.7081967,53.5359508 62.6008197,52.6844844 62.3860656,51.9394513 L79.0295082,60.0283822 L79.0295082,60.0283822 Z M57.1245902,26.7147588 L61.5270492,31.6106906 L60.6680328,26.2890255 L63.352459,25.8632923 L65.0704918,37.038789 L62.7081967,37.3580889 L56.4803279,30.5463576 L57.6614754,38.103122 L54.9770492,38.5288553 L53.2590164,27.3533586 L57.1245902,26.7147588 L57.1245902,26.7147588 Z M51.6483607,53.7488174 C51.7557377,51.4072848 53.7959016,49.5979186 56.1581967,49.5979186 L56.4803279,49.5979186 C58.95,49.7043519 60.8827869,51.833018 60.6680328,54.2809839 L60.6680328,71.8424787 C60.6680328,72.8003784 59.9163934,72.8003784 59.9163934,72.8003784 L52.507377,72.8003784 C52.507377,72.8003784 52.507377,72.8003784 52.4,72.8003784 C52.1852459,72.8003784 51.6483607,72.6939451 51.6483607,71.8424787 L51.6483607,53.7488174 L51.6483607,53.7488174 L51.6483607,53.7488174 Z M53.9032787,79.5056764 L53.9032787,74.2904447 L58.4131148,74.2904447 L58.4131148,79.5056764 L56.695082,79.5056764 L56.695082,84.0823084 L55.6213115,84.0823084 L55.6213115,79.5056764 L53.9032787,79.5056764 L53.9032787,79.5056764 Z M38.5483607,34.2715232 C38.6557377,33.9522233 38.8704918,33.7393567 39.192623,33.5264901 L44.8836066,30.4399243 C45.2057377,30.2270577 45.5278689,30.2270577 45.85,30.333491 C46.1721311,30.4399243 46.4942623,30.5463576 46.6016393,30.8656575 L50.8967213,38.7417219 C51.1114754,39.0610218 51.1114754,39.3803217 51.0040984,39.6996216 C50.8967213,40.0189215 50.6819672,40.2317881 50.3598361,40.4446547 L44.6688525,43.5312204 C44.3467213,43.744087 44.0245902,43.744087 43.702459,43.6376537 C43.3803279,43.5312204 43.1655738,43.4247871 42.9508197,43.1054872 L38.6557377,35.2294229 C38.4409836,34.910123 38.4409836,34.5908231 38.5483607,34.2715232 L38.5483607,34.2715232 L38.5483607,34.2715232 Z M30.9245902,40.0189215 C31.1393443,39.6996216 31.4614754,39.5931883 31.7836066,39.486755 C32.1057377,39.486755 32.4278689,39.486755 32.642623,39.8060549 L36.4008197,43.1054872 C36.6155738,43.3183538 36.8303279,43.6376537 36.8303279,43.9569536 C36.8303279,44.2762535 36.7229508,44.5955535 36.4008197,44.9148534 L41.0180328,45.5534532 L39.192623,47.8949858 L34.5754098,47.256386 L33.2868852,48.6400189 L36.1860656,51.1944182 L34.3606557,53.2166509 L25.7704918,45.7663198 L30.9245902,40.0189215 L30.9245902,40.0189215 Z M36.8303279,74.2904447 L36.8303279,75.1419111 L35.004918,75.1419111 L35.004918,75.7805109 L37.045082,75.7805109 L37.045082,76.6319773 L34.0385246,76.6319773 L34.0385246,72.9068117 L37.045082,72.9068117 L37.045082,73.7582781 L35.1122951,73.7582781 L35.1122951,74.2904447 L36.8303279,74.2904447 L36.8303279,74.2904447 Z M32.4278689,74.7161779 L32.4278689,74.7161779 C32.4278689,75.7805109 31.6762295,76.6319773 30.2803279,76.6319773 L28.8844262,76.6319773 L28.8844262,72.9068117 L30.2803279,72.9068117 C31.5688525,72.9068117 32.4278689,73.6518448 32.4278689,74.7161779 L32.4278689,74.7161779 L32.4278689,74.7161779 Z M17.395082,73.7582781 L16.3213115,73.7582781 L16.3213115,76.525544 L15.247541,76.525544 L15.247541,73.7582781 L14.1737705,73.7582781 L14.1737705,72.9068117 L17.502459,72.9068117 L17.502459,73.7582781 L17.395082,73.7582781 L17.395082,73.7582781 Z M22.3344262,51.0879849 L24.5893443,52.0458846 L22.2270492,57.473983 L24.1598361,58.3254494 L25.4483607,55.3453169 L27.7032787,56.3032167 L26.4147541,59.2833491 L30.495082,61.0927152 L29.4213115,63.5406812 L19.0057377,59.0704825 L22.3344262,51.0879849 L22.3344262,51.0879849 Z M27.7032787,76.525544 L26.6295082,76.525544 L26.307377,75.8869442 L24.9114754,75.8869442 L24.6967213,76.525544 L23.6229508,76.525544 L25.2336066,72.8003784 L26.2,72.8003784 L27.7032787,76.525544 L27.7032787,76.525544 Z M19.9721311,76.525544 L18.8983607,76.525544 L18.8983607,72.8003784 L20.6163934,72.8003784 C21.1532787,72.8003784 21.5827869,72.9068117 21.797541,73.2261116 C22.0122951,73.4389782 22.1196721,73.7582781 22.1196721,74.0775781 L22.1196721,74.0775781 C22.1196721,74.6097446 21.797541,75.0354778 21.3680328,75.2483444 L22.2270492,76.525544 L21.0459016,76.525544 L20.2942623,75.3547777 L19.8647541,75.3547777 L19.8647541,76.525544 L19.9721311,76.525544 L19.9721311,76.525544 Z M20.4016393,94.0870388 L29.4213115,89.8297067 L28.1327869,87.2753075 L30.495082,86.1045412 L34.2532787,93.9806055 L31.8909836,95.1513718 L30.602459,92.4905393 L21.5827869,96.7478713 L20.4016393,94.0870388 L20.4016393,94.0870388 Z M43.4877049,105.475402 L36.7229508,112.712867 C36.5081967,113.032167 36.1860656,113.1386 35.7565574,113.1386 C35.3270492,113.1386 35.004918,113.032167 34.7901639,112.712867 L29.5286885,107.816935 C29.2065574,107.497635 29.0991803,107.178335 28.9918033,106.859035 C28.9918033,106.433302 29.0991803,106.114002 29.3139344,105.901135 L36.0786885,98.6636708 C36.2934426,98.4508042 36.6155738,98.2379376 37.045082,98.2379376 C37.4745902,98.2379376 37.7967213,98.3443709 38.1188525,98.6636708 L43.3803279,103.559603 C43.702459,103.878903 43.8098361,104.198202 43.9172131,104.517502 C43.8098361,104.836802 43.702459,105.156102 43.4877049,105.475402 L43.4877049,105.475402 L43.4877049,105.475402 Z M57.8762295,111.5421 L54.547541,120.908231 C54.4401639,121.227531 54.2254098,121.546831 53.7959016,121.653264 C53.4737705,121.759697 53.0442623,121.759697 52.7221311,121.653264 L45.85,119.311731 C45.4204918,119.205298 45.2057377,118.992431 44.9909836,118.566698 C44.7762295,118.247398 44.7762295,117.928098 44.8836066,117.502365 L48.2122951,108.136235 C48.3196721,107.816935 48.5344262,107.497635 48.9639344,107.391202 C49.2860656,107.284768 49.7155738,107.284768 50.0377049,107.391202 L56.9098361,109.732734 C57.3393443,109.839167 57.5540984,110.052034 57.7688525,110.477767 C57.9836066,110.9035 57.9836066,111.2228 57.8762295,111.5421 L57.8762295,111.5421 L57.8762295,111.5421 Z M63.9967213,123.356197 L63.352459,110.797067 L66.3590164,110.584201 L66.8959016,120.482498 L72.4795082,120.163198 L72.5868852,122.82403 L63.9967213,123.356197 L63.9967213,123.356197 Z M69.1508197,94.512772 C67.647541,94.512772 66.1442623,94.6192053 64.6409836,94.6192053 L60.0237705,94.6192053 C58.5204918,94.6192053 57.0172131,94.512772 55.6213115,94.512772 C54.2254098,94.512772 52.8295082,94.4063387 51.5409836,94.2999054 C50.252459,94.1934721 48.9639344,94.1934721 47.8901639,94.0870388 C45.6352459,93.8741722 43.702459,93.7677389 42.4139344,93.5548723 C41.1254098,93.448439 40.3737705,93.3420057 40.3737705,93.3420057 L40.3737705,93.3420057 C40.0516393,93.3420057 39.9442623,93.0227058 39.9442623,92.8098392 C39.9442623,92.5969726 40.1590164,92.384106 40.4811475,92.384106 L42.6286885,92.384106 C43.9172131,92.384106 45.85,92.2776727 48.104918,92.2776727 L51.7557377,92.2776727 L52.7221311,92.2776727 L43.702459,87.4881741 C43.0581967,87.1688742 43.1655738,87.0624409 43.8098361,87.2753075 L53.7959016,90.7876064 C54.4401639,91.000473 54.654918,90.6811731 54.3327869,90.1490066 L51.2188525,84.6144749 C50.8967213,84.0823084 51.0040984,83.9758751 51.4336066,84.5080416 L55.8360656,89.6168401 C56.2655738,90.1490066 56.9098361,90.0425733 57.2319672,89.5104068 L61.8491803,81.2086093 C62.1713115,80.6764428 62.2786885,80.6764428 62.0639344,81.3150426 L58.95,90.1490066 C58.7352459,90.7876064 59.057377,91.1069063 59.7016393,90.7876064 L62.9229508,89.2975402 C63.5672131,88.9782403 63.6745902,89.1911069 63.1377049,89.6168401 L60.2385246,92.1712394 C60.2385246,92.1712394 60.2385246,92.1712394 60.1311475,92.2776727 L60.3459016,92.2776727 L64.8557377,92.2776727 L67.3254098,92.2776727 L67.3254098,86.2109745 C67.3254098,83.230842 69.4729508,80.6764428 72.2647541,80.1442763 L72.2647541,80.1442763 C72.4795082,80.1442763 72.5868852,80.037843 72.8016393,80.037843 L72.9090164,80.037843 L73.5532787,80.037843 L74.197541,80.037843 C75.2713115,80.1442763 76.2377049,80.5700095 77.0967213,81.102176 L77.0967213,81.102176 C77.3114754,81.3150426 77.5262295,81.4214759 77.7409836,81.6343425 L77.7409836,81.6343425 L78.3852459,82.2729423 C78.6,82.4858089 78.707377,82.6986755 78.8147541,83.0179754 C78.8147541,83.0179754 78.8147541,83.0179754 78.8147541,83.1244087 C79.3516393,84.0823084 79.6737705,85.1466414 79.6737705,86.2109745 L79.6737705,92.2776727 L81.3918033,92.2776727 C83.6467213,92.2776727 85.5795082,92.2776727 86.8680328,92.384106 L89.0155738,92.384106 C89.2303279,92.384106 89.3377049,92.5969726 89.3377049,92.7034059 C89.3377049,92.9162725 89.2303279,93.0227058 89.0155738,93.0227058 C89.0155738,93.0227058 88.2639344,93.1291391 86.9754098,93.2355724 C85.6868852,93.3420057 83.7540984,93.5548723 81.4991803,93.7677389 C80.3180328,93.8741722 79.1368852,93.9806055 77.8483607,93.9806055 C76.5598361,94.0870388 75.1639344,94.1934721 73.7680328,94.1934721 C72.05,94.4063387 70.5467213,94.512772 69.1508197,94.512772 L69.1508197,94.512772 L69.1508197,94.512772 Z M80.3180328,120.908231 L76.2377049,109.094134 L79.0295082,108.136235 L83.2172131,119.950331 L80.3180328,120.908231 L80.3180328,120.908231 Z M99.0016393,110.158467 L89.2303279,107.178335 L94.7065574,113.7772 L92.4516393,115.586566 L84.3983607,105.901135 L87.7270492,103.240303 L94.7065574,105.368969 L90.8409836,100.685904 L93.0959016,98.7701041 L101.14918,108.455535 L99.0016393,110.158467 L99.0016393,110.158467 Z M111.135246,92.8098392 L107.913934,99.1958373 C107.69918,99.5151372 107.484426,99.8344371 107.054918,99.9408704 C106.732787,100.047304 106.303279,100.047304 105.981148,99.9408704 L97.0688525,95.577105 C96.7467213,95.3642384 96.5319672,95.1513718 96.4245902,94.7256386 C96.3172131,94.4063387 96.3172131,93.9806055 96.5319672,93.6613056 L99.7532787,87.2753075 C99.9680328,86.9560076 100.182787,86.6367077 100.612295,86.5302744 C100.934426,86.4238411 101.363934,86.4238411 101.686066,86.5302744 L104.370492,87.807474 L103.081967,90.4683065 L101.578689,89.7232734 L99.6459016,93.448439 L106.195902,96.641438 L108.128689,92.9162725 L106.732787,92.1712394 L105.87377,93.7677389 L103.511475,92.5969726 L105.659016,88.3396405 L108.021311,89.5104068 L110.598361,90.7876064 C110.920492,91.000473 111.135246,91.2133396 111.242623,91.6390728 C111.35,92.0648061 111.242623,92.4905393 111.135246,92.8098392 L111.135246,92.8098392 L111.135246,92.8098392 Z M101.041803,76.525544 L102.652459,72.8003784 L103.618852,72.8003784 L105.229508,76.525544 L104.155738,76.525544 L103.833607,75.8869442 L102.437705,75.8869442 L102.222951,76.525544 L101.041803,76.525544 L101.041803,76.525544 Z M110.383607,76.525544 L109.202459,76.525544 L108.45082,75.3547777 L108.021311,75.3547777 L108.021311,76.525544 L106.947541,76.525544 L106.947541,72.8003784 L108.665574,72.8003784 C109.202459,72.8003784 109.631967,72.9068117 109.846721,73.2261116 C110.061475,73.4389782 110.168852,73.7582781 110.168852,74.0775781 L110.168852,74.0775781 C110.168852,74.6097446 109.846721,75.0354778 109.417213,75.2483444 L110.383607,76.525544 L110.383607,76.525544 Z M111.564754,58.8576159 C111.457377,59.1769158 111.242623,59.3897824 110.920492,59.602649 L102.759836,63.2213813 C102.437705,63.3278146 102.115574,63.3278146 101.793443,63.2213813 C101.471311,63.114948 101.256557,62.7956481 101.14918,62.4763482 L98.0352459,55.4517502 L108.45082,50.8751183 L111.564754,57.8997162 C111.564754,58.2190161 111.672131,58.538316 111.564754,58.8576159 L111.564754,58.8576159 L111.564754,58.8576159 Z M114.571311,76.525544 L113.604918,75.1419111 L113.17541,75.5676443 L113.17541,76.525544 L112.101639,76.525544 L112.101639,72.8003784 L113.17541,72.8003784 L113.17541,74.2904447 L114.463934,72.8003784 L115.645082,72.8003784 L114.24918,74.396878 L115.752459,76.525544 L114.571311,76.525544 L114.571311,76.525544 Z M48.2122951,117.289499 L52.1852459,118.673132 L54.547541,111.8614 L50.5745902,110.477767 L48.2122951,117.289499 L48.2122951,117.289499 Z M101.14918,56.9418165 L102.652459,60.2412488 L108.665574,57.5804163 L107.162295,54.2809839 L101.14918,56.9418165 L101.14918,56.9418165 Z M84.0762295,65.8822138 C84.0762295,64.6050142 83.1098361,63.6471145 81.8213115,63.6471145 C80.5327869,63.6471145 79.5663934,64.6050142 79.5663934,65.8822138 C79.5663934,67.1594134 80.5327869,68.1173132 81.8213115,68.1173132 C83.1098361,68.1173132 84.0762295,67.1594134 84.0762295,65.8822138 L84.0762295,65.8822138 L84.0762295,65.8822138 Z M29.8508197,75.6740776 L30.2803279,75.6740776 C30.9245902,75.6740776 31.3540984,75.3547777 31.3540984,74.7161779 L31.3540984,74.7161779 C31.3540984,74.0775781 30.9245902,73.7582781 30.2803279,73.7582781 L29.8508197,73.7582781 L29.8508197,75.6740776 L29.8508197,75.6740776 Z M31.8909836,42.5733207 L29.4213115,45.3405866 L31.3540984,47.0435194 L33.8237705,44.2762535 L31.8909836,42.5733207 L31.8909836,42.5733207 Z M21.2606557,74.1840114 L21.2606557,74.1840114 C21.2606557,73.8647114 21.0459016,73.7582781 20.7237705,73.7582781 L20.0795082,73.7582781 L20.0795082,74.6097446 L20.7237705,74.6097446 C21.0459016,74.6097446 21.2606557,74.5033113 21.2606557,74.1840114 L21.2606557,74.1840114 L21.2606557,74.1840114 Z M103.189344,74.0775781 L102.759836,75.1419111 L103.618852,75.1419111 L103.189344,74.0775781 L103.189344,74.0775781 Z M47.997541,38.8481552 L44.8836066,33.2071902 L41.554918,35.0165563 L44.6688525,40.6575213 L47.997541,38.8481552 L47.997541,38.8481552 Z M25.6631148,74.0775781 L25.2336066,75.1419111 L26.092623,75.1419111 L25.6631148,74.0775781 L25.6631148,74.0775781 Z M73.3385246,83.9758751 C72.05,83.9758751 71.0836066,84.9337748 71.0836066,86.2109745 C71.0836066,87.4881741 72.05,88.4460738 73.3385246,88.4460738 C74.6270492,88.4460738 75.5934426,87.4881741 75.5934426,86.2109745 C75.5934426,84.9337748 74.5196721,83.9758751 73.3385246,83.9758751 L73.3385246,83.9758751 L73.3385246,83.9758751 Z M108.665574,73.7582781 L108.021311,73.7582781 L108.021311,74.6097446 L108.665574,74.6097446 C108.987705,74.6097446 109.202459,74.396878 109.202459,74.1840114 L109.202459,74.1840114 C109.309836,73.8647114 109.095082,73.7582781 108.665574,73.7582781 L108.665574,73.7582781 L108.665574,73.7582781 Z" id="Shape" fill="#FFFFFF"></path>
                    </g>
                </g>
            </g>
        </g>
    </g>
</svg>