<?xml version="1.0" encoding="UTF-8" standalone="no"?>
<svg width="131px" height="149px" viewBox="0 0 131 149" version="1.1" xmlns="http://www.w3.org/2000/svg" xmlns:xlink="http://www.w3.org/1999/xlink" xmlns:sketch="http://www.bohemiancoding.com/sketch/ns">
    <!-- Generator: Sketch 3.2.2 (9983) - http://www.bohemiancoding.com/sketch -->
    <title>frontend-tooling</title>
    <desc>Created with Sketch.</desc>
    <defs></defs>
    <g id="Page-1" stroke="none" stroke-width="1" fill="none" fill-rule="evenodd" sketch:type="MSPage">
        <g id="frontend-tooling" sketch:type="MSLayerGroup" transform="translate(-15.000000, -6.000000)">
            <g id="Page-1" sketch:type="MSShapeGroup">
                <g id="frontend-tooling" transform="translate(15.032787, 5.357143)">
                    <g id="Group">
                        <ellipse id="Oval" fill="#FFFFFF" cx="65.7147541" cy="75.2142857" rx="60.0237705" ry="59.8928571"></ellipse>
                        <path d="M65.607377,60.3214286 L71.942623,63.3214286 C72.6942623,63.6428571 73.4459016,63.3214286 73.7680328,62.5714286 C74.0901639,61.8214286 73.7680328,61.0714286 73.0163934,60.75 L66.6811475,57.75 C65.9295082,57.4285714 65.1778689,57.75 64.8557377,58.5 C64.5336066,59.1428571 64.8557377,60 65.607377,60.3214286 L65.607377,60.3214286 L65.607377,60.3214286 Z M56.2655738,58.9285714 C55.4065574,58.9285714 54.7622951,59.4642857 54.654918,60.3214286 L54.654918,69.5357143 C54.654918,69.8571429 54.8696721,69.8571429 54.8696721,69.8571429 L57.3393443,69.8571429 C57.3393443,69.8571429 57.5540984,69.8571429 57.5540984,69.5357143 L57.5540984,60.5357143 C57.7688525,59.6785714 57.1245902,58.9285714 56.2655738,58.9285714 L56.2655738,58.9285714 L56.2655738,58.9285714 Z M56.1581967,56.3571429 C57.4467213,56.3571429 58.4131148,55.3928571 58.4131148,54.1071429 C58.4131148,52.8214286 57.4467213,51.8571429 56.1581967,51.8571429 C54.8696721,51.8571429 53.9032787,52.8214286 53.9032787,54.1071429 C53.9032787,55.3928571 54.8696721,56.3571429 56.1581967,56.3571429 L56.1581967,56.3571429 L56.1581967,56.3571429 Z M32.3204918,107.571429 L35.4344262,110.357143 L40.3737705,105 L37.2598361,102.107143 L32.3204918,107.571429 L32.3204918,107.571429 Z M129.711475,37.5 L65.9295082,0.75 C65.7147541,0.642857143 65.2852459,0.642857143 65.0704918,0.75 L1.28852459,37.5 C1.07377049,37.6071429 0.859016393,38.0357143 0.859016393,38.25 L0.859016393,111.75 C0.859016393,112.071429 1.07377049,112.392857 1.28852459,112.5 L65.0704918,149.25 C65.2852459,149.357143 65.7147541,149.357143 65.9295082,149.25 L129.711475,112.5 C129.92623,112.392857 130.140984,111.964286 130.140984,111.75 L130.140984,38.25 C130.140984,38.0357143 129.92623,37.6071429 129.711475,37.5 L129.711475,37.5 L129.711475,37.5 Z M100.07541,40.6071429 L98.5721311,46.9285714 L102.545082,43.1785714 L104.370492,45.1071429 L96.102459,52.9285714 L94.4918033,51.2142857 L96.5319672,42.2142857 L90.9483607,47.5714286 L89.1229508,45.6428571 L97.3909836,37.8214286 L100.07541,40.6071429 L100.07541,40.6071429 Z M97.3909836,76.3928571 L97.3909836,76.3928571 L96.4245902,74.8928571 L96.4245902,77.0357143 L95.4581967,77.0357143 L95.4581967,73.2857143 L96.5319672,73.2857143 L97.3909836,74.7857143 L98.25,73.2857143 L99.3237705,73.2857143 L99.3237705,77.0357143 L98.25,77.0357143 L98.25,74.8928571 L97.3909836,76.3928571 L97.3909836,76.3928571 Z M84.2909836,29.7857143 L91.9147541,33.75 L90.7336066,35.8928571 L85.4721311,33.2142857 L84.5057377,35.0357143 L87.404918,36.5357143 L86.3311475,38.6785714 L83.4319672,37.1785714 L82.4655738,39 L87.7270492,41.6785714 L86.6532787,43.8214286 L79.0295082,39.8571429 L84.2909836,29.7857143 L84.2909836,29.7857143 Z M79.9959016,70.8214286 C79.3516393,70.5 78.6,70.8214286 78.2778689,71.4642857 L75.2713115,78.6428571 C74.6270492,78.4285714 73.9827869,78.4285714 73.2311475,78.4285714 C72.6942623,78.4285714 72.2647541,78.4285714 71.7278689,78.5357143 L77.7409836,64.2857143 C78.492623,62.5714286 80.1032787,61.6071429 81.8213115,61.6071429 C82.4655738,61.6071429 83.002459,61.7142857 83.6467213,61.9285714 C85.9016393,62.8928571 86.9754098,65.5714286 86.0090164,67.8214286 L79.9959016,81.9642857 C79.3516393,81.1071429 78.6,80.25 77.6336066,79.7142857 L80.6401639,72.5357143 C80.9622951,71.8928571 80.6401639,71.1428571 79.9959016,70.8214286 L79.9959016,70.8214286 L79.9959016,70.8214286 Z M69.902459,26.25 L77.7409836,27.6428571 L77.3114754,30 L74.7344262,29.5714286 L73.2311475,38.4642857 L70.5467213,38.0357143 L72.05,29.1428571 L69.4729508,28.7142857 L69.902459,26.25 L69.902459,26.25 Z M79.0295082,60.4285714 C77.7409836,61.0714286 76.5598361,62.25 76.0229508,63.6428571 L74.197541,68.0357143 L62.7081967,62.4642857 L62.7081967,54.75 C62.7081967,53.8928571 62.6008197,53.0357143 62.3860656,52.2857143 L79.0295082,60.4285714 L79.0295082,60.4285714 Z M57.1245902,26.8928571 L61.5270492,31.8214286 L60.6680328,26.4642857 L63.352459,26.0357143 L65.0704918,37.2857143 L62.7081967,37.6071429 L56.4803279,30.75 L57.6614754,38.3571429 L54.9770492,38.7857143 L53.2590164,27.5357143 L57.1245902,26.8928571 L57.1245902,26.8928571 Z M51.6483607,54.1071429 C51.7557377,51.75 53.7959016,49.9285714 56.1581967,49.9285714 L56.4803279,49.9285714 C58.95,50.0357143 60.8827869,52.1785714 60.6680328,54.6428571 L60.6680328,72.3214286 C60.6680328,73.2857143 59.9163934,73.2857143 59.9163934,73.2857143 L52.507377,73.2857143 C52.507377,73.2857143 52.507377,73.2857143 52.4,73.2857143 C52.1852459,73.2857143 51.6483607,73.1785714 51.6483607,72.3214286 L51.6483607,54.1071429 L51.6483607,54.1071429 L51.6483607,54.1071429 Z M53.9032787,80.0357143 L53.9032787,74.7857143 L58.4131148,74.7857143 L58.4131148,80.0357143 L56.695082,80.0357143 L56.695082,84.6428571 L55.6213115,84.6428571 L55.6213115,80.0357143 L53.9032787,80.0357143 L53.9032787,80.0357143 Z M38.5483607,34.5 C38.6557377,34.1785714 38.8704918,33.9642857 39.192623,33.75 L44.8836066,30.6428571 C45.2057377,30.4285714 45.5278689,30.4285714 45.85,30.5357143 C46.1721311,30.6428571 46.4942623,30.75 46.6016393,31.0714286 L50.8967213,39 C51.1114754,39.3214286 51.1114754,39.6428571 51.0040984,39.9642857 C50.8967213,40.2857143 50.6819672,40.5 50.3598361,40.7142857 L44.6688525,43.8214286 C44.3467213,44.0357143 44.0245902,44.0357143 43.702459,43.9285714 C43.3803279,43.8214286 43.1655738,43.7142857 42.9508197,43.3928571 L38.6557377,35.4642857 C38.4409836,35.1428571 38.4409836,34.8214286 38.5483607,34.5 L38.5483607,34.5 L38.5483607,34.5 Z M30.9245902,40.2857143 C31.1393443,39.9642857 31.4614754,39.8571429 31.7836066,39.75 C32.1057377,39.75 32.4278689,39.75 32.642623,40.0714286 L36.4008197,43.3928571 C36.6155738,43.6071429 36.8303279,43.9285714 36.8303279,44.25 C36.8303279,44.5714286 36.7229508,44.8928571 36.4008197,45.2142857 L41.0180328,45.8571429 L39.192623,48.2142857 L34.5754098,47.5714286 L33.2868852,48.9642857 L36.1860656,51.5357143 L34.3606557,53.5714286 L25.7704918,46.0714286 L30.9245902,40.2857143 L30.9245902,40.2857143 Z M36.8303279,74.7857143 L36.8303279,75.6428571 L35.004918,75.6428571 L35.004918,76.2857143 L37.045082,76.2857143 L37.045082,77.1428571 L34.0385246,77.1428571 L34.0385246,73.3928571 L37.045082,73.3928571 L37.045082,74.25 L35.1122951,74.25 L35.1122951,74.7857143 L36.8303279,74.7857143 L36.8303279,74.7857143 Z M32.4278689,75.2142857 L32.4278689,75.2142857 C32.4278689,76.2857143 31.6762295,77.1428571 30.2803279,77.1428571 L28.8844262,77.1428571 L28.8844262,73.3928571 L30.2803279,73.3928571 C31.5688525,73.3928571 32.4278689,74.1428571 32.4278689,75.2142857 L32.4278689,75.2142857 L32.4278689,75.2142857 Z M17.395082,74.25 L16.3213115,74.25 L16.3213115,77.0357143 L15.247541,77.0357143 L15.247541,74.25 L14.1737705,74.25 L14.1737705,73.3928571 L17.502459,73.3928571 L17.502459,74.25 L17.395082,74.25 L17.395082,74.25 Z M22.3344262,51.4285714 L24.5893443,52.3928571 L22.2270492,57.8571429 L24.1598361,58.7142857 L25.4483607,55.7142857 L27.7032787,56.6785714 L26.4147541,59.6785714 L30.495082,61.5 L29.4213115,63.9642857 L19.0057377,59.4642857 L22.3344262,51.4285714 L22.3344262,51.4285714 Z M27.7032787,77.0357143 L26.6295082,77.0357143 L26.307377,76.3928571 L24.9114754,76.3928571 L24.6967213,77.0357143 L23.6229508,77.0357143 L25.2336066,73.2857143 L26.2,73.2857143 L27.7032787,77.0357143 L27.7032787,77.0357143 Z M19.9721311,77.0357143 L18.8983607,77.0357143 L18.8983607,73.2857143 L20.6163934,73.2857143 C21.1532787,73.2857143 21.5827869,73.3928571 21.797541,73.7142857 C22.0122951,73.9285714 22.1196721,74.25 22.1196721,74.5714286 L22.1196721,74.5714286 C22.1196721,75.1071429 21.797541,75.5357143 21.3680328,75.75 L22.2270492,77.0357143 L21.0459016,77.0357143 L20.2942623,75.8571429 L19.8647541,75.8571429 L19.8647541,77.0357143 L19.9721311,77.0357143 L19.9721311,77.0357143 Z M20.4016393,94.7142857 L29.4213115,90.4285714 L28.1327869,87.8571429 L30.495082,86.6785714 L34.2532787,94.6071429 L31.8909836,95.7857143 L30.602459,93.1071429 L21.5827869,97.3928571 L20.4016393,94.7142857 L20.4016393,94.7142857 Z M43.4877049,106.178571 L36.7229508,113.464286 C36.5081967,113.785714 36.1860656,113.892857 35.7565574,113.892857 C35.3270492,113.892857 35.004918,113.785714 34.7901639,113.464286 L29.5286885,108.535714 C29.2065574,108.214286 29.0991803,107.892857 28.9918033,107.571429 C28.9918033,107.142857 29.0991803,106.821429 29.3139344,106.607143 L36.0786885,99.3214286 C36.2934426,99.1071429 36.6155738,98.8928571 37.045082,98.8928571 C37.4745902,98.8928571 37.7967213,99 38.1188525,99.3214286 L43.3803279,104.25 C43.702459,104.571429 43.8098361,104.892857 43.9172131,105.214286 C43.8098361,105.535714 43.702459,105.857143 43.4877049,106.178571 L43.4877049,106.178571 L43.4877049,106.178571 Z M57.8762295,112.285714 L54.547541,121.714286 C54.4401639,122.035714 54.2254098,122.357143 53.7959016,122.464286 C53.4737705,122.571429 53.0442623,122.571429 52.7221311,122.464286 L45.85,120.107143 C45.4204918,120 45.2057377,119.785714 44.9909836,119.357143 C44.7762295,119.035714 44.7762295,118.714286 44.8836066,118.285714 L48.2122951,108.857143 C48.3196721,108.535714 48.5344262,108.214286 48.9639344,108.107143 C49.2860656,108 49.7155738,108 50.0377049,108.107143 L56.9098361,110.464286 C57.3393443,110.571429 57.5540984,110.785714 57.7688525,111.214286 C57.9836066,111.642857 57.9836066,111.964286 57.8762295,112.285714 L57.8762295,112.285714 L57.8762295,112.285714 Z M63.9967213,124.178571 L63.352459,111.535714 L66.3590164,111.321429 L66.8959016,121.285714 L72.4795082,120.964286 L72.5868852,123.642857 L63.9967213,124.178571 L63.9967213,124.178571 Z M69.1508197,95.1428571 C67.647541,95.1428571 66.1442623,95.25 64.6409836,95.25 L60.0237705,95.25 C58.5204918,95.25 57.0172131,95.1428571 55.6213115,95.1428571 C54.2254098,95.1428571 52.8295082,95.0357143 51.5409836,94.9285714 C50.252459,94.8214286 48.9639344,94.8214286 47.8901639,94.7142857 C45.6352459,94.5 43.702459,94.3928571 42.4139344,94.1785714 C41.1254098,94.0714286 40.3737705,93.9642857 40.3737705,93.9642857 L40.3737705,93.9642857 C40.0516393,93.9642857 39.9442623,93.6428571 39.9442623,93.4285714 C39.9442623,93.2142857 40.1590164,93 40.4811475,93 L42.6286885,93 C43.9172131,93 45.85,92.8928571 48.104918,92.8928571 L51.7557377,92.8928571 L52.7221311,92.8928571 L43.702459,88.0714286 C43.0581967,87.75 43.1655738,87.6428571 43.8098361,87.8571429 L53.7959016,91.3928571 C54.4401639,91.6071429 54.654918,91.2857143 54.3327869,90.75 L51.2188525,85.1785714 C50.8967213,84.6428571 51.0040984,84.5357143 51.4336066,85.0714286 L55.8360656,90.2142857 C56.2655738,90.75 56.9098361,90.6428571 57.2319672,90.1071429 L61.8491803,81.75 C62.1713115,81.2142857 62.2786885,81.2142857 62.0639344,81.8571429 L58.95,90.75 C58.7352459,91.3928571 59.057377,91.7142857 59.7016393,91.3928571 L62.9229508,89.8928571 C63.5672131,89.5714286 63.6745902,89.7857143 63.1377049,90.2142857 L60.2385246,92.7857143 C60.2385246,92.7857143 60.2385246,92.7857143 60.1311475,92.8928571 L60.3459016,92.8928571 L64.8557377,92.8928571 L67.3254098,92.8928571 L67.3254098,86.7857143 C67.3254098,83.7857143 69.4729508,81.2142857 72.2647541,80.6785714 L72.2647541,80.6785714 C72.4795082,80.6785714 72.5868852,80.5714286 72.8016393,80.5714286 L72.9090164,80.5714286 L73.5532787,80.5714286 L74.197541,80.5714286 C75.2713115,80.6785714 76.2377049,81.1071429 77.0967213,81.6428571 L77.0967213,81.6428571 C77.3114754,81.8571429 77.5262295,81.9642857 77.7409836,82.1785714 L77.7409836,82.1785714 L78.3852459,82.8214286 C78.6,83.0357143 78.707377,83.25 78.8147541,83.5714286 C78.8147541,83.5714286 78.8147541,83.5714286 78.8147541,83.6785714 C79.3516393,84.6428571 79.6737705,85.7142857 79.6737705,86.7857143 L79.6737705,92.8928571 L81.3918033,92.8928571 C83.6467213,92.8928571 85.5795082,92.8928571 86.8680328,93 L89.0155738,93 C89.2303279,93 89.3377049,93.2142857 89.3377049,93.3214286 C89.3377049,93.5357143 89.2303279,93.6428571 89.0155738,93.6428571 C89.0155738,93.6428571 88.2639344,93.75 86.9754098,93.8571429 C85.6868852,93.9642857 83.7540984,94.1785714 81.4991803,94.3928571 C80.3180328,94.5 79.1368852,94.6071429 77.8483607,94.6071429 C76.5598361,94.7142857 75.1639344,94.8214286 73.7680328,94.8214286 C72.05,95.0357143 70.5467213,95.1428571 69.1508197,95.1428571 L69.1508197,95.1428571 L69.1508197,95.1428571 Z M80.3180328,121.714286 L76.2377049,109.821429 L79.0295082,108.857143 L83.2172131,120.75 L80.3180328,121.714286 L80.3180328,121.714286 Z M99.0016393,110.892857 L89.2303279,107.892857 L94.7065574,114.535714 L92.4516393,116.357143 L84.3983607,106.607143 L87.7270492,103.928571 L94.7065574,106.071429 L90.8409836,101.357143 L93.0959016,99.4285714 L101.14918,109.178571 L99.0016393,110.892857 L99.0016393,110.892857 Z M111.135246,93.4285714 L107.913934,99.8571429 C107.69918,100.178571 107.484426,100.5 107.054918,100.607143 C106.732787,100.714286 106.303279,100.714286 105.981148,100.607143 L97.0688525,96.2142857 C96.7467213,96 96.5319672,95.7857143 96.4245902,95.3571429 C96.3172131,95.0357143 96.3172131,94.6071429 96.5319672,94.2857143 L99.7532787,87.8571429 C99.9680328,87.5357143 100.182787,87.2142857 100.612295,87.1071429 C100.934426,87 101.363934,87 101.686066,87.1071429 L104.370492,88.3928571 L103.081967,91.0714286 L101.578689,90.3214286 L99.6459016,94.0714286 L106.195902,97.2857143 L108.128689,93.5357143 L106.732787,92.7857143 L105.87377,94.3928571 L103.511475,93.2142857 L105.659016,88.9285714 L108.021311,90.1071429 L110.598361,91.3928571 C110.920492,91.6071429 111.135246,91.8214286 111.242623,92.25 C111.35,92.6785714 111.242623,93.1071429 111.135246,93.4285714 L111.135246,93.4285714 L111.135246,93.4285714 Z M101.041803,77.0357143 L102.652459,73.2857143 L103.618852,73.2857143 L105.229508,77.0357143 L104.155738,77.0357143 L103.833607,76.3928571 L102.437705,76.3928571 L102.222951,77.0357143 L101.041803,77.0357143 L101.041803,77.0357143 Z M110.383607,77.0357143 L109.202459,77.0357143 L108.45082,75.8571429 L108.021311,75.8571429 L108.021311,77.0357143 L106.947541,77.0357143 L106.947541,73.2857143 L108.665574,73.2857143 C109.202459,73.2857143 109.631967,73.3928571 109.846721,73.7142857 C110.061475,73.9285714 110.168852,74.25 110.168852,74.5714286 L110.168852,74.5714286 C110.168852,75.1071429 109.846721,75.5357143 109.417213,75.75 L110.383607,77.0357143 L110.383607,77.0357143 Z M111.564754,59.25 C111.457377,59.5714286 111.242623,59.7857143 110.920492,60 L102.759836,63.6428571 C102.437705,63.75 102.115574,63.75 101.793443,63.6428571 C101.471311,63.5357143 101.256557,63.2142857 101.14918,62.8928571 L98.0352459,55.8214286 L108.45082,51.2142857 L111.564754,58.2857143 C111.564754,58.6071429 111.672131,58.9285714 111.564754,59.25 L111.564754,59.25 L111.564754,59.25 Z M114.571311,77.0357143 L113.604918,75.6428571 L113.17541,76.0714286 L113.17541,77.0357143 L112.101639,77.0357143 L112.101639,73.2857143 L113.17541,73.2857143 L113.17541,74.7857143 L114.463934,73.2857143 L115.645082,73.2857143 L114.24918,74.8928571 L115.752459,77.0357143 L114.571311,77.0357143 L114.571311,77.0357143 Z M48.2122951,118.071429 L52.1852459,119.464286 L54.547541,112.607143 L50.5745902,111.214286 L48.2122951,118.071429 L48.2122951,118.071429 Z M101.14918,57.3214286 L102.652459,60.6428571 L108.665574,57.9642857 L107.162295,54.6428571 L101.14918,57.3214286 L101.14918,57.3214286 Z M84.0762295,66.3214286 C84.0762295,65.0357143 83.1098361,64.0714286 81.8213115,64.0714286 C80.5327869,64.0714286 79.5663934,65.0357143 79.5663934,66.3214286 C79.5663934,67.6071429 80.5327869,68.5714286 81.8213115,68.5714286 C83.1098361,68.5714286 84.0762295,67.6071429 84.0762295,66.3214286 L84.0762295,66.3214286 L84.0762295,66.3214286 Z M29.8508197,76.1785714 L30.2803279,76.1785714 C30.9245902,76.1785714 31.3540984,75.8571429 31.3540984,75.2142857 L31.3540984,75.2142857 C31.3540984,74.5714286 30.9245902,74.25 30.2803279,74.25 L29.8508197,74.25 L29.8508197,76.1785714 L29.8508197,76.1785714 Z M31.8909836,42.8571429 L29.4213115,45.6428571 L31.3540984,47.3571429 L33.8237705,44.5714286 L31.8909836,42.8571429 L31.8909836,42.8571429 Z M21.2606557,74.6785714 L21.2606557,74.6785714 C21.2606557,74.3571429 21.0459016,74.25 20.7237705,74.25 L20.0795082,74.25 L20.0795082,75.1071429 L20.7237705,75.1071429 C21.0459016,75.1071429 21.2606557,75 21.2606557,74.6785714 L21.2606557,74.6785714 L21.2606557,74.6785714 Z M103.189344,74.5714286 L102.759836,75.6428571 L103.618852,75.6428571 L103.189344,74.5714286 L103.189344,74.5714286 Z M47.997541,39.1071429 L44.8836066,33.4285714 L41.554918,35.25 L44.6688525,40.9285714 L47.997541,39.1071429 L47.997541,39.1071429 Z M25.6631148,74.5714286 L25.2336066,75.6428571 L26.092623,75.6428571 L25.6631148,74.5714286 L25.6631148,74.5714286 Z M73.3385246,84.5357143 C72.05,84.5357143 71.0836066,85.5 71.0836066,86.7857143 C71.0836066,88.0714286 72.05,89.0357143 73.3385246,89.0357143 C74.6270492,89.0357143 75.5934426,88.0714286 75.5934426,86.7857143 C75.5934426,85.5 74.5196721,84.5357143 73.3385246,84.5357143 L73.3385246,84.5357143 L73.3385246,84.5357143 Z M108.665574,74.25 L108.021311,74.25 L108.021311,75.1071429 L108.665574,75.1071429 C108.987705,75.1071429 109.202459,74.8928571 109.202459,74.6785714 L109.202459,74.6785714 C109.309836,74.3571429 109.095082,74.25 108.665574,74.25 L108.665574,74.25 L108.665574,74.25 Z" id="Shape" fill="#000000"></path>
                    </g>
                </g>
            </g>
        </g>
    </g>
</svg>