<?xml version="1.0" encoding="utf-8"?>
<!-- Generator: Adobe Illustrator 18.0.0, SVG Export Plug-In . SVG Version: 6.00 Build 0)  -->
<!DOCTYPE svg PUBLIC "-//W3C//DTD SVG 1.1//EN" "http://www.w3.org/Graphics/SVG/1.1/DTD/svg11.dtd">
<svg version="1.1" id="Layer_1" xmlns="http://www.w3.org/2000/svg" xmlns:xlink="http://www.w3.org/1999/xlink" x="0px" y="0px"
	 width="150px" height="150px" viewBox="0 0 150 150" style="enable-background:new 0 0 150 150;" xml:space="preserve">
<style type="text/css">
	.st0{fill:#FFFFFF;}
	.st1{fill:none;stroke:#000000;stroke-width:0.6287;stroke-miterlimit:10;}
	.st2{fill:none;stroke:#000000;stroke-width:0.9828;stroke-linejoin:round;stroke-miterlimit:10;}
	.st3{fill:none;stroke:#000000;stroke-width:0.787;stroke-linejoin:round;stroke-miterlimit:10;}
	.st4{fill:none;stroke:#000000;stroke-width:0.7704;stroke-linejoin:round;stroke-miterlimit:10;}
	.st5{stroke:#000000;stroke-width:0.7704;stroke-linecap:round;stroke-linejoin:round;stroke-miterlimit:10;}
	.st6{fill:none;stroke:#000000;stroke-width:0.7704;stroke-linecap:round;stroke-linejoin:round;stroke-miterlimit:10;}
	.st7{fill:#FFFFFF;stroke:#FFFFFF;stroke-width:0.4867;stroke-miterlimit:10;}
</style>
<g>
	<path class="st0" d="M75.9,147.8c-0.5,0.5-1.2,0.5-1.7,0L2.2,75.9c-0.5-0.5-0.5-1.2,0-1.7L74.1,2.2c0.5-0.5,1.2-0.5,1.7,0
		l71.9,71.9c0.5,0.5,0.5,1.2,0,1.7L75.9,147.8z"/>
	<path d="M65.9,107.8H44.6c-0.2,0-0.4,0.2-0.4,0.4c0,0.2,0.2,0.4,0.4,0.4h21.3c0.2,0,0.4-0.2,0.4-0.4
		C66.4,108,66.2,107.8,65.9,107.8z M105,42.7c0.6-0.6,0.6-1.7,0-2.3c-0.6-0.6-1.7-0.6-2.3,0c-0.6,0.6-0.6,1.7,0,2.3
		C103.3,43.3,104.3,43.3,105,42.7z M65.9,105.1H44.6c-0.2,0-0.4,0.2-0.4,0.4c0,0.2,0.2,0.4,0.4,0.4h21.3c0.2,0,0.4-0.2,0.4-0.4
		C66.4,105.3,66.2,105.1,65.9,105.1z M102.5,66.1c0.5-0.8,0.6-1.3,0.4-1.7c-0.2-0.4-0.6-0.5-1.1-0.4c-0.5,0.2-1.2,0.6-1.9,1.4
		c-0.7,0.8-1.4,2-2,3.6l-0.3,0.9c0.8-0.3,1.7-0.7,2.6-1.3C101,68,101.8,67.2,102.5,66.1z M91.1,87.8h-0.8v2h0.8
		c0.1,0,0.2-0.1,0.2-0.2V88C91.4,87.9,91.3,87.8,91.1,87.8z M56.9,42.1h36.6c0.3,0,0.6-0.3,0.6-0.6c0-0.3-0.3-0.6-0.6-0.6H56.9
		c-0.3,0-0.6,0.3-0.6,0.6C56.3,41.9,56.6,42.1,56.9,42.1z M75.3,132.2h-0.7v0.9h0.7c0.3,0,0.5-0.2,0.5-0.5v0
		C75.9,132.3,75.7,132.2,75.3,132.2z M75.3,14.8L75.3,14.8c0-0.3-0.2-0.5-0.6-0.5h-0.7v0.9h0.7C75.1,15.3,75.3,15.1,75.3,14.8z
		 M149.1,74.1L75.9,0.9c-0.5-0.5-1.3-0.5-1.7,0L0.9,74.1c-0.5,0.5-0.5,1.3,0,1.7l73.2,73.2c0.5,0.5,1.3,0.5,1.7,0l73.2-73.2
		C149.5,75.4,149.5,74.6,149.1,74.1z M77.6,13.7h1.2c1,0,1.7,0.7,1.7,1.6v0c0,0.9-0.7,1.6-1.7,1.6h-1.2V13.7z M73.4,13.7h1.5
		c0.4,0,0.7,0.1,0.9,0.3c0.2,0.2,0.3,0.4,0.3,0.7v0c0,0.5-0.3,0.8-0.7,1l0.8,1.1h-0.8l-0.7-1h-0.6v1h-0.7V13.7z M69.3,13.7h2.6v0.6
		h-1v2.5h-0.7v-2.5h-1V13.7z M53.6,26.3h42.7v5h-1.2v-3.8h-2.2v2.3h-1.2v-2.3h-2.2v3.8h-1.2v-3.8h-2.2v2.3h-1.2v-2.3h-2.2v3.8h-1.2
		v-3.8H79v2.3h-1.2v-2.3h-2.2v3.8h-1.2v-3.8h-2.2v2.3h-1.2v-2.3h-2.2v3.8h-1.2v-3.8h-2.2v2.3h-1.2v-2.3h-2.2v3.8h-1.2v-3.8h-2.2v2.3
		H57v-2.3h-2.2v3.8h-1.2V26.3z M46.6,39.7h-3.6c-0.2,0-0.2-0.1-0.1-0.2c0,0,1.3-2.5,4.6-2.5c2,0,3.3,1.2,3.8,2.9h50.1
		c0.1-0.2,0.3-0.3,0.4-0.5c1.2-1.2,3.2-1.2,4.4,0c1.2,1.2,1.2,3.2,0,4.4c-1.2,1.2-3.2,1.2-4.4,0c-0.2-0.2-0.3-0.3-0.4-0.5H51.2
		c-0.5,1.7-1.8,2.9-3.8,2.9c-3.2,0-4.6-2.7-4.6-2.7c-0.1-0.1-0.1-0.2,0.1-0.2h3.7c0.2,0,0.3-0.2,0.3-0.3V40
		C46.9,39.8,46.7,39.7,46.6,39.7z M12,72.3c1.2,0,2.2,0.9,2.4,2.1l-4.8,0C9.8,73.3,10.8,72.4,12,72.3z M12.1,77.2
		c-1.2,0-2.2-0.9-2.4-2.1l4.8,0C14.3,76.2,13.3,77.2,12.1,77.2z M41.7,91.7c-0.3,0-0.6,0-0.9-0.3c-0.3-0.2-0.6-0.5-0.8-1
		c-0.5-0.8-0.8-1.9-1.1-3.4c-0.2-1.5-0.3-3.1-0.3-5c0-1.9,0.2-3.9,0.6-6c0.3-2.1,0.8-4.3,1.5-6.4c-0.6,1.3-2.9,7.8-4.1,11
		c-1.1,3-2.9,7.4-6.8,8.8c-3.3,1.3-6-2.5-5.5-3.2s3.1-0.1,6.5-4.7c3.4-4.6,5.6-9.2,6.4-10.9c1.1-2.4,1.8-4.3,2.6-6.7
		c0.8-2.3,0.1-3.5-1.6-4.5c-1.7-1-4.5,0.1-5.4,0.8c-0.5,0.3-0.9,0.7-1.3,1.1c-0.4,0.4-0.8,0.8-1.2,1.3c-1.5,1.9-2.8,4.1-3.1,6.2
		c-0.2,1,0,1.9,0.4,2.5c0.6,0.7,0.9,0.8,1.5,0.6c0.6-0.2,1.3-0.8,1.8-1.3c0.5-0.5,1-1,1.3-1.5c0.3-0.4,0.6-0.8,0.8-1
		c0.2-0.2,0.2-0.4,0.2-0.4l0,0c0.2-0.3,0.7-0.4,1-0.2c0.3,0.2,0.4,0.6,0.3,0.9c0,0-0.1,0.2-0.2,0.5c-0.1,0.3-0.4,0.7-0.7,1.2
		c-0.3,0.5-0.7,1.1-1.3,1.8c-0.6,0.7-1.2,1.4-2.5,2c-0.6,0.3-1.4,0.4-2.3,0.2c-0.2,0-0.4-0.2-0.6-0.3l-0.2-0.1l-0.1-0.1l-0.1-0.1
		l-0.1,0c-0.3-0.2-0.6-0.5-0.8-0.7c-1.1-1.2-1.4-2.9-1.3-4.3c0.1-1.5,0.5-2.8,1.1-4.2c0.6-1.3,1.3-2.6,2.1-3.7
		c0.4-0.6,0.9-1.2,1.4-1.7c0.5-0.5,1-1,1.6-1.5c1.2-0.9,2.5-1.7,4.1-2.1c1.6-0.4,3.3-0.3,4.7,0.4c1.4,0.7,2.5,1.8,3.2,2.9
		c0.7,1.1,1.7,3.5,1.1,6.3c-0.6,2.7-1.4,6.1-1.9,8.3c-0.5,2.2-0.7,4.2-0.6,6.1c0.1-0.7,0.4-1.7,0.9-2.9c0.6-1.2,1.3-2.5,2.3-3.9
		c0.9-1.4,2-2.9,3.3-4.5c1.3-1.5,2.6-3,4.1-4.5c1.5-1.4,3-2.8,4.6-4c1.6-1.2,3.2-2.2,4.9-3c0.8-0.4,1.5-0.6,2-0.7
		c0.5-0.1,0.9,0,1,0.2c0.2,0.2,0.1,0.5-0.1,0.9c-0.2,0.4-0.6,0.9-1.2,1.5c-0.5,0.5-1.1,1.1-1.7,1.8c-0.6,0.7-1.2,1.5-1.8,2.4
		c-0.6,0.9-1.2,1.8-1.7,2.9c-0.6,1.1-1.1,2.2-1.6,3.5c-0.6,1.4-1,2.9-1.4,4.4c-0.4,1.5-0.6,3-0.8,4.4c-0.2,1.4-0.2,2.8-0.2,4
		c0,1.3,0.2,2.4,0.4,3.4c0.8,3.2,4.6,6,5,6.3c0.5,0.3,1,0.5,0.9,0.8c-0.1,0.3-0.3,0.7-0.7,1c-0.4,0.4-1,0.7-1.6,0.9
		c-0.7,0.3-1.4,0.4-2.1,0.4c-0.7,0-1.4-0.2-2.1-0.6c-0.7-0.4-4.6-3.9-4.9-8.9c-0.1-1.5,0.1-3.2,0.3-4.9c0.3-1.7,0.7-3.6,1.3-5.4
		c0.6-1.9,1.3-3.7,2.1-5.5c0.8-1.8,1.8-3.5,2.8-5.1c1-1.6,2.1-3.1,3.3-4.4c-1.2,0.9-2.5,2.1-3.8,3.4c-1.3,1.3-2.5,2.8-3.8,4.4
		c-1.2,1.6-2.4,3.3-3.4,5.1c-1.1,1.8-2,3.7-2.8,5.6c-0.8,1.9-1.4,3.8-1.9,5.7c-0.5,1.9-0.7,3.7-0.7,5.5c0,0.6-0.1,1-0.3,1.3
		C42.2,91.5,42,91.6,41.7,91.7z M72.3,134.7h-0.7v-2.1l-0.9,1.4h0l-0.9-1.3v2.1h-0.7v-3.2h0.8l0.8,1.3l0.8-1.3h0.8V134.7z
		 M75.9,134.7l-0.7-1h-0.6v1h-0.7v-3.2h1.5c0.4,0,0.7,0.1,0.9,0.3c0.2,0.2,0.3,0.4,0.3,0.7v0c0,0.5-0.3,0.8-0.7,1l0.8,1.1H75.9z
		 M80.2,134.7l-1-1.4l-0.4,0.4v1h-0.7v-3.2h0.7v1.4l1.3-1.4H81l-1.3,1.4l1.4,1.8H80.2z M96.3,123.3H53.6v-5h1.2v3.8H57v-2.3h1.2v2.3
		h2.2v-3.8h1.2v3.8h2.2v-2.3h1.2v2.3h2.2v-3.8h1.2v3.8h2.2v-2.3h1.2v2.3h2.2v-3.8h1.2v3.8h2.2v-2.3H79v2.3h2.2v-3.8h1.2v3.8h2.2
		v-2.3h1.2v2.3h2.2v-3.8h1.2v3.8h2.2v-2.3h1.2v2.3h2.2v-3.8h1.2V123.3z M107.5,107.7c0,0.2-0.2,0.4-0.3,0.4l-3.4,0.7
		c-0.2,0-0.5,0-0.6-0.1l-1-0.7c-0.1,0-0.1-0.1-0.2-0.2H69.7v1.3c0,0.2-0.1,0.3-0.3,0.3h-1.2c-0.1,0-0.1,0-0.2-0.1v0.5
		c0,0.2-0.1,0.3-0.3,0.3H43.8c-0.2,0-0.4-0.1-0.5-0.2c0,0-0.9-1.2-0.9-2.9c0-1.8,0.9-3,0.9-3c0.1-0.1,0.3-0.2,0.5-0.2h23.8
		c0.2,0,0.3,0.1,0.3,0.3v0.5c0.1,0,0.1-0.1,0.2-0.1h1.2c0.2,0,0.3,0.1,0.3,0.3v1.3h32.3c0-0.1,0.1-0.2,0.2-0.2l1-0.7
		c0.2-0.1,0.4-0.2,0.6-0.1l3.4,0.7c0.2,0,0.3,0.2,0.3,0.4V107.7z M75.4,92.8H76c0.1,0,0.2-0.1,0.2-0.2v-1.1c0-0.2-0.1-0.4-0.2-0.5
		l-0.8-0.5c-0.5-0.3-1-0.7-1-1.3v-1.2c0-0.3,0.1-0.5,0.3-0.7c0.2-0.2,0.4-0.3,0.7-0.3h1.1c0.3,0,0.5,0.1,0.7,0.3
		c0.2,0.2,0.3,0.4,0.3,0.7v1h-1V88c0-0.1-0.1-0.2-0.2-0.2h-0.6c-0.1,0-0.2,0.1-0.2,0.2V89c0,0.2,0.1,0.4,0.2,0.5l0.8,0.5
		c0.5,0.3,1,0.7,1,1.4v1.4c0,0.3-0.1,0.5-0.3,0.7c-0.2,0.2-0.4,0.3-0.7,0.3h-1.1c-0.3,0-0.5-0.1-0.7-0.3c-0.2-0.2-0.3-0.4-0.3-0.7
		v-1h1v0.8C75.2,92.7,75.3,92.8,75.4,92.8z M83.9,87.8L83.9,87.8l-0.8,0v2h1.2v0.9h-1.2v2.2h1.1v-0.5h0.8v1.4h-0.8v0h-0.3v0h-2.4
		v-0.9h0.7v-5h-0.7V87h0.7v0h2.1v0h0.8v1.4h-0.8v-0.5H83.9z M92.1,90.5c0.2,0.2,0.3,0.4,0.3,0.7v1.7h0.4v0.9h-1.6v-0.9h0.2v-1.7
		c0-0.2-0.2-0.5-0.5-0.5h-0.7v2.2h0.2v0.9h-1.8v-0.9h0.6v-5h-0.6V87h0.6v0h2c0.3,0,0.5,0.1,0.7,0.3c0.2,0.2,0.3,0.4,0.3,0.7v1.3
		c0,0.5-0.3,0.8-0.7,0.9v0C91.8,90.2,92,90.3,92.1,90.5z M96.7,87.8v-0.8h0.7v0h1v0h0.8v0.8h-0.8v5.2h0.8v0.8h-2.4v-0.8h0.7v-5.2
		H96.7z M105.2,87.8L105.2,87.8l-0.8,0v2h1.2v0.9h-1.2v2.2h1.2v-0.5h0.8v1.4h-0.8v0h-0.4v0h-2.4v-0.9h0.7v-5h-0.7V87h0.7v0h2.1v0
		h0.8v1.4h-0.8v-0.5H105.2z M113.5,88.9h-1V88c0-0.1-0.1-0.2-0.2-0.2h-0.6c-0.1,0-0.2,0.1-0.2,0.2V89c0,0.2,0.1,0.4,0.2,0.5l0.8,0.5
		c0.5,0.3,1,0.7,1,1.4v1.4c0,0.3-0.1,0.5-0.3,0.7c-0.2,0.2-0.4,0.3-0.7,0.3h-1.1c-0.3,0-0.5-0.1-0.7-0.3c-0.2-0.2-0.3-0.4-0.3-0.7
		v-1h1v0.8c0,0.1,0.1,0.2,0.2,0.2h0.6c0.1,0,0.2-0.1,0.2-0.2v-1.1c0-0.2-0.1-0.4-0.2-0.5l-0.8-0.5c-0.5-0.3-1-0.7-1-1.3v-1.2
		c0-0.3,0.1-0.5,0.3-0.7c0.2-0.2,0.4-0.3,0.7-0.3h1.1c0.3,0,0.5,0.1,0.7,0.3c0.2,0.2,0.3,0.4,0.3,0.7V88.9z M122.9,66.4
		c-0.4,1-1,2-1.8,3.1c-0.8,1.1-1.6,2.1-2.5,3c-0.9,0.9-1.8,1.7-2.7,2.4c-0.9,0.7-1.7,1-2.5,1.1c-1.2,0.2-1.9-0.3-2.1-1.5
		c-0.2-1.2,0.2-2.9,1.2-5.1c0.4-0.9,0.9-1.8,1.3-2.6c0.4-0.8,0.9-1.6,1.3-2.4c-0.7,0.6-1.4,1-2.1,1.3c-0.7,0.3-1.4,0.4-2,0.3
		c-0.4,0.8-0.8,1.6-1.2,2.3c-0.8,1.4-1.6,2.6-2.5,3.8c-0.9,1.2-1.9,2.2-2.9,3c-1,0.9-2,1.6-3.1,2.1c-1.1,0.5-2.1,0.9-3.1,1
		c-1.2,0.2-2.2,0-3-0.4c-0.8-0.4-1.4-1.1-1.8-1.9c-0.3-0.6-0.4-1.3-0.4-2.1c-0.7,1-1.5,1.9-2.3,2.7c-0.9,0.9-1.8,1.7-2.7,2.4
		c-0.9,0.7-1.6,1-2.2,1.1c-1,0.1-1.8,0-2.4-0.4c-0.6-0.4-1.2-0.9-1.6-1.5c-0.4-0.6-0.7-1.3-0.9-2.1c-0.2-0.7-0.3-1.4-0.4-2
		c-0.1,0.2-0.2,0.3-0.2,0.5c-0.1,0.2-0.1,0.3-0.2,0.5L78.7,78c-0.3,0.8-0.5,1.4-0.7,1.8c-0.2,0.4-0.4,0.7-0.6,0.9
		c-0.2,0.2-0.5,0.3-0.8,0.4c-0.3,0.1-0.8,0.2-1.4,0.2c-0.4,0.1-0.8,0.1-1.1,0.1c-0.3,0-0.5-0.1-0.6-0.4c-0.1-0.2-0.1-0.6,0-1.1
		c0.1-0.5,0.4-1.1,0.7-2c-0.8,0.9-1.6,1.8-2.4,2.6c-0.8,0.8-2,1.5-2.6,1.6c-0.8,0.1-1.5,0-2.1-0.3c-0.6-0.3-0.9-0.9-1-1.8
		c-0.6,0.8-1.2,1.4-2,2.1c-0.8,0.6-1.6,1-2.6,1.1c-1,0.1-1.8-0.1-2.5-0.6c-0.7-0.5-1.1-1.3-1.3-2.3c-0.2-1-0.2-2.2,0-3.5
		c0.3-1.3,0.8-2.7,1.6-4.1c0.8-1.3,1.7-2.5,2.7-3.4c1-0.9,2-1.7,3-2.1c1-0.5,1.9-0.7,2.9-0.6c0.9,0.1,1.7,0.5,2.2,1.6
		c0.2-0.4,0.6-1.2,0.8-1.4c0.2-0.3,0.2-0.3,0.5-0.5c0,0,2.5-0.4,2.9-0.4c0.4,0.1,0.7,0.3,0.6,0.5c0,0.4-0.4,1.5-0.8,2.2
		c-0.3,0.7-0.6,1.3-1,2c-0.3,0.7-0.6,1.3-0.9,2c-0.3,0.6-0.6,1.2-0.8,1.7c-0.2,0.5-0.4,1-0.6,1.5c-0.2,0.5-0.4,0.9-0.5,1.3
		c-0.1,0.4-0.1,0.7-0.1,0.9c0,0.2,0.2,0.3,0.6,0.3c0.5-0.1,1-0.3,1.6-0.7c0.6-0.4,1.2-0.9,1.8-1.4c0.6-0.6,1.1-1.2,1.7-1.9
		c0.2-0.3,0.4-0.6,0.6-0.9c0.4-0.8,0.8-1.7,1.3-2.6c0.7-1.5,1.5-3,2.4-4.6c0.9-1.6,1.7-3.2,2.6-4.7c0.9-1.5,1.7-3,2.6-4.4
		c0.9-1.4,1.7-2.6,2.5-3.7c0.7-0.9,1.3-1.6,1.9-1.9c0.6-0.4,1.1-0.5,1.6-0.4c0.4,0.1,0.8,0.3,1,0.8c0.2,0.4,0.3,1,0.2,1.7
		c-0.1,0.8-0.4,1.7-0.9,2.6c-0.5,0.9-1.2,1.9-2,2.9c-0.8,1-1.6,2-2.4,3c-0.9,1-1.7,2.1-2.4,3.1c1.1-0.9,2.1-1.4,3-1.5
		c0.9-0.1,1.6,0,2.1,0.5c0.5,0.4,0.9,1.1,1,2c0.1,0.9,0,1.9-0.4,3c-0.5,1.2-1,2.2-1.6,3c-0.6,0.8-1.2,1.4-1.8,1.8
		c-0.7,0.5-1.3,0.9-2,1.2c0,0.3,0.1,0.6,0.2,0.9c0.1,0.2,0.3,0.4,0.5,0.5c0.2,0.1,0.6,0.2,1,0.1c0.5-0.1,1-0.3,1.6-0.7
		c0.6-0.4,1.2-0.9,1.8-1.6c0.6-0.6,1.2-1.3,1.8-2.1c0.5-0.7,1-1.5,1.3-2.2c0.1-0.4,0.3-0.8,0.5-1.2c0.4-1.1,1-2.1,1.7-3.1
		c0.7-1,1.4-1.9,2.2-2.6c0.8-0.7,1.7-1.3,2.6-1.6c0.9-0.3,1.8-0.3,2.7,0c0.7,0.3,1.2,0.6,1.6,1.1c0.4,0.5,0.5,1.1,0.6,1.8
		c0,0.7-0.1,1.4-0.4,2.1c-0.3,0.8-0.7,1.5-1.4,2.2c-0.8,1-1.8,1.8-3,2.5c-1.2,0.7-2.3,1.3-3.5,1.7c0.1,0.6,0.4,1.1,0.8,1.4
		c0.4,0.3,0.8,0.4,1.3,0.5c0.7,0.1,1.4-0.1,2.2-0.5c0.8-0.4,1.6-0.9,2.4-1.5c0.8-0.6,1.6-1.4,2.3-2.2c0.7-0.8,1.4-1.7,2-2.7
		c0.2-0.4,0.4-0.7,0.6-1.1c0.2-0.4,0.4-0.8,0.6-1.2c-0.4-0.4-0.6-0.9-0.7-1.6c-0.1-0.6,0-1.3,0.1-2c0.2-0.7,0.4-1.4,0.7-2.1
		c0.3-0.7,0.7-1.3,1.2-1.8c0.4-0.5,0.9-0.9,1.4-1.2c0.5-0.3,0.9-0.3,1.3-0.2c0.3,0.1,0.5,0.3,0.5,0.6c0.1,0.3,0,0.6,0,1
		c-0.1,0.4-0.2,0.8-0.3,1.2c-0.2,0.4-0.3,0.9-0.4,1.3c0.5,0.1,1,0.1,1.4,0c0.4-0.1,0.7-0.3,1-0.5c0.3-0.2,0.6-0.5,0.8-0.9
		c0.2-0.3,0.4-0.7,0.6-1.1c0.2-0.4,0.5-0.6,0.8-0.6c0.3,0,0.6,0.2,0.8,0.4c0.2,0.3,0.4,0.6,0.5,1.1c0.1,0.5,0,0.9-0.2,1.4
		c0,0,0,0.1,0,0.1c-0.2,0.3-0.4,0.8-0.7,1.5c-0.3,0.7-0.7,1.5-1,2.3c-0.4,0.8-0.7,1.5-1,2.2c-0.3,0.7-0.5,1.2-0.6,1.5
		c-0.2,0.5-0.4,1-0.6,1.5c-0.2,0.5-0.4,0.9-0.5,1.3c-0.1,0.4-0.1,0.7-0.1,0.9c0.1,0.2,0.2,0.3,0.6,0.2c0.5-0.1,1-0.3,1.6-0.7
		c0.6-0.4,1.1-0.9,1.7-1.4c0.6-0.6,1.1-1.2,1.7-1.9c0.5-0.7,1-1.5,1.4-2.3c0.3-0.5,0.5-0.9,0.8-1.1c0.3-0.2,0.5-0.3,0.7-0.2
		c0.2,0.1,0.3,0.3,0.3,0.6C123.2,65.4,123.1,65.8,122.9,66.4z M137.4,72.3c1.2,0,2.2,0.9,2.4,2.1l-4.8,0
		C135.2,73.3,136.2,72.4,137.4,72.3z M137.4,77.2c-1.2,0-2.2-0.9-2.4-2.1l4.8,0C139.7,76.2,138.7,77.2,137.4,77.2z M79.8,15.3
		L79.8,15.3c0-0.6-0.4-1-1-1h-0.5v1.9h0.5C79.4,16.3,79.8,15.9,79.8,15.3z M87.2,68.8c0.2-0.7,0.2-1.2-0.2-1.5
		c-0.6-0.5-1.4-0.3-2.4,0.4c-1,0.8-2.2,2.4-3.5,5c0.9,0.2,1.7,0.1,2.6-0.3c0.9-0.4,1.6-1,2.2-1.6C86.5,70.2,87,69.5,87.2,68.8z
		 M68.2,70.2c-0.4-0.1-0.9-0.1-1.5,0.1c-0.6,0.2-1.1,0.5-1.7,0.9c-0.6,0.4-1.1,1-1.7,1.6c-0.5,0.6-1,1.4-1.4,2.2
		c-0.3,0.5-0.4,1.1-0.5,1.6c-0.1,0.5-0.1,1,0,1.3c0.1,0.4,0.3,0.7,0.5,0.8c0.3,0.2,0.6,0.3,1.1,0.2c1.1-0.2,2.1-0.9,3.2-2.4
		c1-1.4,2-3.3,2.9-5.6C68.9,70.5,68.6,70.3,68.2,70.2z"/>
</g>
</svg>
