<?xml version="1.0" encoding="UTF-8" standalone="no"?>
<svg width="150px" height="150px" viewBox="0 0 150 150" version="1.1" xmlns="http://www.w3.org/2000/svg" xmlns:xlink="http://www.w3.org/1999/xlink" xmlns:sketch="http://www.bohemiancoding.com/sketch/ns">
    <!-- Generator: Sketch 3.2.2 (9983) - http://www.bohemiancoding.com/sketch -->
    <title>Slice 1</title>
    <desc>Created with Sketch.</desc>
    <defs></defs>
    <g id="Page-1" stroke="none" stroke-width="1" fill="none" fill-rule="evenodd" sketch:type="MSPage">
        <g id="maker-series" sketch:type="MSLayerGroup">
            <g id="Group" sketch:type="MSShapeGroup">
                <path d="M75.9,147.8 C75.4,148.3 74.7,148.3 74.2,147.8 L2.2,75.9 C1.7,75.4 1.7,74.7 2.2,74.2 L74.1,2.2 C74.6,1.7 75.3,1.7 75.8,2.2 L147.7,74.1 C148.2,74.6 148.2,75.3 147.7,75.8 L75.9,147.8 L75.9,147.8 Z" id="Shape" fill="#000000"></path>
                <path d="M65.9,107.8 L44.6,107.8 C44.4,107.8 44.2,108 44.2,108.2 C44.2,108.4 44.4,108.6 44.6,108.6 L65.9,108.6 C66.1,108.6 66.3,108.4 66.3,108.2 C66.4,108 66.2,107.8 65.9,107.8 L65.9,107.8 Z M105,42.7 C105.6,42.1 105.6,41 105,40.4 C104.4,39.8 103.3,39.8 102.7,40.4 C102.1,41 102.1,42.1 102.7,42.7 C103.3,43.3 104.3,43.3 105,42.7 L105,42.7 Z M65.9,105.1 L44.6,105.1 C44.4,105.1 44.2,105.3 44.2,105.5 C44.2,105.7 44.4,105.9 44.6,105.9 L65.9,105.9 C66.1,105.9 66.3,105.7 66.3,105.5 C66.4,105.3 66.2,105.1 65.9,105.1 L65.9,105.1 Z M102.5,66.1 C103,65.3 103.1,64.8 102.9,64.4 C102.7,64 102.3,63.9 101.8,64 C101.3,64.2 100.6,64.6 99.9,65.4 C99.2,66.2 98.5,67.4 97.9,69 L97.6,69.9 C98.4,69.6 99.3,69.2 100.2,68.6 C101,68 101.8,67.2 102.5,66.1 L102.5,66.1 Z M91.1,87.8 L90.3,87.8 L90.3,89.8 L91.1,89.8 C91.2,89.8 91.3,89.7 91.3,89.6 L91.3,88 C91.4,87.9 91.3,87.8 91.1,87.8 L91.1,87.8 Z M56.9,42.1 L93.5,42.1 C93.8,42.1 94.1,41.8 94.1,41.5 C94.1,41.2 93.8,40.9 93.5,40.9 L56.9,40.9 C56.6,40.9 56.3,41.2 56.3,41.5 C56.3,41.9 56.6,42.1 56.9,42.1 L56.9,42.1 Z M75.3,132.2 L74.6,132.2 L74.6,133.1 L75.3,133.1 C75.6,133.1 75.8,132.9 75.8,132.6 L75.8,132.6 C75.9,132.3 75.7,132.2 75.3,132.2 L75.3,132.2 Z M75.3,14.8 L75.3,14.8 C75.3,14.5 75.1,14.3 74.7,14.3 L74,14.3 L74,15.2 L74.7,15.2 C75.1,15.3 75.3,15.1 75.3,14.8 L75.3,14.8 Z M149.1,74.1 L75.9,0.9 C75.4,0.4 74.6,0.4 74.2,0.9 L0.9,74.1 C0.4,74.6 0.4,75.4 0.9,75.8 L74.1,149 C74.6,149.5 75.4,149.5 75.8,149 L149,75.8 C149.5,75.4 149.5,74.6 149.1,74.1 L149.1,74.1 Z M77.6,13.7 L78.8,13.7 C79.8,13.7 80.5,14.4 80.5,15.3 L80.5,15.3 C80.5,16.2 79.8,16.9 78.8,16.9 L77.6,16.9 L77.6,13.7 L77.6,13.7 Z M73.4,13.7 L74.9,13.7 C75.3,13.7 75.6,13.8 75.8,14 C76,14.2 76.1,14.4 76.1,14.7 L76.1,14.7 C76.1,15.2 75.8,15.5 75.4,15.7 L76.2,16.8 L75.4,16.8 L74.7,15.8 L74.1,15.8 L74.1,16.8 L73.4,16.8 L73.4,13.7 L73.4,13.7 Z M69.3,13.7 L71.9,13.7 L71.9,14.3 L70.9,14.3 L70.9,16.8 L70.2,16.8 L70.2,14.3 L69.2,14.3 L69.2,13.7 L69.3,13.7 Z M53.6,26.3 L96.3,26.3 L96.3,31.3 L95.1,31.3 L95.1,27.5 L92.9,27.5 L92.9,29.8 L91.7,29.8 L91.7,27.5 L89.5,27.5 L89.5,31.3 L88.3,31.3 L88.3,27.5 L86.1,27.5 L86.1,29.8 L84.9,29.8 L84.9,27.5 L82.7,27.5 L82.7,31.3 L81.5,31.3 L81.5,27.5 L79,27.5 L79,29.8 L77.8,29.8 L77.8,27.5 L75.6,27.5 L75.6,31.3 L74.4,31.3 L74.4,27.5 L72.2,27.5 L72.2,29.8 L71,29.8 L71,27.5 L68.8,27.5 L68.8,31.3 L67.6,31.3 L67.6,27.5 L65.4,27.5 L65.4,29.8 L64.2,29.8 L64.2,27.5 L62,27.5 L62,31.3 L60.8,31.3 L60.8,27.5 L58.6,27.5 L58.6,29.8 L57,29.8 L57,27.5 L54.8,27.5 L54.8,31.3 L53.6,31.3 L53.6,26.3 L53.6,26.3 Z M46.6,39.7 L43,39.7 C42.8,39.7 42.8,39.6 42.9,39.5 C42.9,39.5 44.2,37 47.5,37 C49.5,37 50.8,38.2 51.3,39.9 L101.4,39.9 C101.5,39.7 101.7,39.6 101.8,39.4 C103,38.2 105,38.2 106.2,39.4 C107.4,40.6 107.4,42.6 106.2,43.8 C105,45 103,45 101.8,43.8 C101.6,43.6 101.5,43.5 101.4,43.3 L51.2,43.3 C50.7,45 49.4,46.2 47.4,46.2 C44.2,46.2 42.8,43.5 42.8,43.5 C42.7,43.4 42.7,43.3 42.9,43.3 L46.6,43.3 C46.8,43.3 46.9,43.1 46.9,43 L46.9,40 C46.9,39.8 46.7,39.7 46.6,39.7 L46.6,39.7 Z M12,72.3 C13.2,72.3 14.2,73.2 14.4,74.4 L9.6,74.4 C9.8,73.3 10.8,72.4 12,72.3 L12,72.3 Z M12.1,77.2 C10.9,77.2 9.9,76.3 9.7,75.1 L14.5,75.1 C14.3,76.2 13.3,77.2 12.1,77.2 L12.1,77.2 Z M41.7,91.7 C41.4,91.7 41.1,91.7 40.8,91.4 C40.5,91.2 40.2,90.9 40,90.4 C39.5,89.6 39.2,88.5 38.9,87 C38.7,85.5 38.6,83.9 38.6,82 C38.6,80.1 38.8,78.1 39.2,76 C39.5,73.9 40,71.7 40.7,69.6 C40.1,70.9 37.8,77.4 36.6,80.6 C35.5,83.6 33.7,88 29.8,89.4 C26.5,90.7 23.8,86.9 24.3,86.2 C24.8,85.5 27.4,86.1 30.8,81.5 C34.2,76.9 36.4,72.3 37.2,70.6 C38.3,68.2 39,66.3 39.8,63.9 C40.6,61.6 39.9,60.4 38.2,59.4 C36.5,58.4 33.7,59.5 32.8,60.2 C32.3,60.5 31.9,60.9 31.5,61.3 C31.1,61.7 30.7,62.1 30.3,62.6 C28.8,64.5 27.5,66.7 27.2,68.8 C27,69.8 27.2,70.7 27.6,71.3 C28.2,72 28.5,72.1 29.1,71.9 C29.7,71.7 30.4,71.1 30.9,70.6 C31.4,70.1 31.9,69.6 32.2,69.1 C32.5,68.7 32.8,68.3 33,68.1 C33.2,67.9 33.2,67.7 33.2,67.7 L33.2,67.7 C33.4,67.4 33.9,67.3 34.2,67.5 C34.5,67.7 34.6,68.1 34.5,68.4 C34.5,68.4 34.4,68.6 34.3,68.9 C34.2,69.2 33.9,69.6 33.6,70.1 C33.3,70.6 32.9,71.2 32.3,71.9 C31.7,72.6 31.1,73.3 29.8,73.9 C29.2,74.2 28.4,74.3 27.5,74.1 C27.3,74.1 27.1,73.9 26.9,73.8 L26.7,73.7 L26.6,73.6 L26.5,73.5 L26.4,73.5 C26.1,73.3 25.8,73 25.6,72.8 C24.5,71.6 24.2,69.9 24.3,68.5 C24.4,67 24.8,65.7 25.4,64.3 C26,63 26.7,61.7 27.5,60.6 C27.9,60 28.4,59.4 28.9,58.9 C29.4,58.4 29.9,57.9 30.5,57.4 C31.7,56.5 33,55.7 34.6,55.3 C36.2,54.9 37.9,55 39.3,55.7 C40.7,56.4 41.8,57.5 42.5,58.6 C43.2,59.7 44.2,62.1 43.6,64.9 C43,67.6 42.2,71 41.7,73.2 C41.2,75.4 41,77.4 41.1,79.3 C41.2,78.6 41.5,77.6 42,76.4 C42.6,75.2 43.3,73.9 44.3,72.5 C45.2,71.1 46.3,69.6 47.6,68 C48.9,66.5 50.2,65 51.7,63.5 C53.2,62.1 54.7,60.7 56.3,59.5 C57.9,58.3 59.5,57.3 61.2,56.5 C62,56.1 62.7,55.9 63.2,55.8 C63.7,55.7 64.1,55.8 64.2,56 C64.4,56.2 64.3,56.5 64.1,56.9 C63.9,57.3 63.5,57.8 62.9,58.4 C62.4,58.9 61.8,59.5 61.2,60.2 C60.6,60.9 60,61.7 59.4,62.6 C58.8,63.5 58.2,64.4 57.7,65.5 C57.1,66.6 56.6,67.7 56.1,69 C55.5,70.4 55.1,71.9 54.7,73.4 C54.3,74.9 54.1,76.4 53.9,77.8 C53.7,79.2 53.7,80.6 53.7,81.8 C53.7,83.1 53.9,84.2 54.1,85.2 C54.9,88.4 58.7,91.2 59.1,91.5 C59.6,91.8 60.1,92 60,92.3 C59.9,92.6 59.7,93 59.3,93.3 C58.9,93.7 58.3,94 57.7,94.2 C57,94.5 56.3,94.6 55.6,94.6 C54.9,94.6 54.2,94.4 53.5,94 C52.8,93.6 48.9,90.1 48.6,85.1 C48.5,83.6 48.7,81.9 48.9,80.2 C49.2,78.5 49.6,76.6 50.2,74.8 C50.8,72.9 51.5,71.1 52.3,69.3 C53.1,67.5 54.1,65.8 55.1,64.2 C56.1,62.6 57.2,61.1 58.4,59.8 C57.2,60.7 55.9,61.9 54.6,63.2 C53.3,64.5 52.1,66 50.8,67.6 C49.6,69.2 48.4,70.9 47.4,72.7 C46.3,74.5 45.4,76.4 44.6,78.3 C43.8,80.2 43.2,82.1 42.7,84 C42.2,85.9 42,87.7 42,89.5 C42,90.1 41.9,90.5 41.7,90.8 C42.2,91.5 42,91.6 41.7,91.7 L41.7,91.7 Z M72.3,134.7 L71.6,134.7 L71.6,132.6 L70.7,134 L69.8,132.7 L69.8,134.8 L69.1,134.8 L69.1,131.6 L69.9,131.6 L70.7,132.9 L71.5,131.6 L72.3,131.6 L72.3,134.7 L72.3,134.7 Z M75.9,134.7 L75.2,133.7 L74.6,133.7 L74.6,134.7 L73.9,134.7 L73.9,131.5 L75.4,131.5 C75.8,131.5 76.1,131.6 76.3,131.8 C76.5,132 76.6,132.2 76.6,132.5 L76.6,132.5 C76.6,133 76.3,133.3 75.9,133.5 L76.7,134.6 L75.9,134.6 L75.9,134.7 Z M80.2,134.7 L79.2,133.3 L78.8,133.7 L78.8,134.7 L78.1,134.7 L78.1,131.5 L78.8,131.5 L78.8,132.9 L80.1,131.5 L81,131.5 L79.7,132.9 L81.1,134.7 L80.2,134.7 L80.2,134.7 Z M96.3,123.3 L53.6,123.3 L53.6,118.3 L54.8,118.3 L54.8,122.1 L57,122.1 L57,119.8 L58.2,119.8 L58.2,122.1 L60.4,122.1 L60.4,118.3 L61.6,118.3 L61.6,122.1 L63.8,122.1 L63.8,119.8 L65,119.8 L65,122.1 L67.2,122.1 L67.2,118.3 L68.4,118.3 L68.4,122.1 L70.6,122.1 L70.6,119.8 L71.8,119.8 L71.8,122.1 L74,122.1 L74,118.3 L75.2,118.3 L75.2,122.1 L77.4,122.1 L77.4,119.8 L79,119.8 L79,122.1 L81.2,122.1 L81.2,118.3 L82.4,118.3 L82.4,122.1 L84.6,122.1 L84.6,119.8 L85.8,119.8 L85.8,122.1 L88,122.1 L88,118.3 L89.2,118.3 L89.2,122.1 L91.4,122.1 L91.4,119.8 L92.6,119.8 L92.6,122.1 L94.8,122.1 L94.8,118.3 L96,118.3 L96,123.3 L96.3,123.3 Z M107.5,107.7 C107.5,107.9 107.3,108.1 107.2,108.1 L103.8,108.8 C103.6,108.8 103.3,108.8 103.2,108.7 L102.2,108 C102.1,108 102.1,107.9 102,107.8 L69.7,107.8 L69.7,109.1 C69.7,109.3 69.6,109.4 69.4,109.4 L68.2,109.4 C68.1,109.4 68.1,109.4 68,109.3 L68,109.8 C68,110 67.9,110.1 67.7,110.1 L43.8,110.1 C43.6,110.1 43.4,110 43.3,109.9 C43.3,109.9 42.4,108.7 42.4,107 C42.4,105.2 43.3,104 43.3,104 C43.4,103.9 43.6,103.8 43.8,103.8 L67.6,103.8 C67.8,103.8 67.9,103.9 67.9,104.1 L67.9,104.6 C68,104.6 68,104.5 68.1,104.5 L69.3,104.5 C69.5,104.5 69.6,104.6 69.6,104.8 L69.6,106.1 L101.9,106.1 C101.9,106 102,105.9 102.1,105.9 L103.1,105.2 C103.3,105.1 103.5,105 103.7,105.1 L107.1,105.8 C107.3,105.8 107.4,106 107.4,106.2 L107.4,107.7 L107.5,107.7 Z M75.4,92.8 L76,92.8 C76.1,92.8 76.2,92.7 76.2,92.6 L76.2,91.5 C76.2,91.3 76.1,91.1 76,91 L75.2,90.5 C74.7,90.2 74.2,89.8 74.2,89.2 L74.2,88 C74.2,87.7 74.3,87.5 74.5,87.3 C74.7,87.1 74.9,87 75.2,87 L76.3,87 C76.6,87 76.8,87.1 77,87.3 C77.2,87.5 77.3,87.7 77.3,88 L77.3,89 L76.3,89 L76.3,88 C76.3,87.9 76.2,87.8 76.1,87.8 L75.5,87.8 C75.4,87.8 75.3,87.9 75.3,88 L75.3,89 C75.3,89.2 75.4,89.4 75.5,89.5 L76.3,90 C76.8,90.3 77.3,90.7 77.3,91.4 L77.3,92.8 C77.3,93.1 77.2,93.3 77,93.5 C76.8,93.7 76.6,93.8 76.3,93.8 L75.2,93.8 C74.9,93.8 74.7,93.7 74.5,93.5 C74.3,93.3 74.2,93.1 74.2,92.8 L74.2,91.8 L75.2,91.8 L75.2,92.6 C75.2,92.7 75.3,92.8 75.4,92.8 L75.4,92.8 Z M83.9,87.8 L83.9,87.8 L83.1,87.8 L83.1,89.8 L84.3,89.8 L84.3,90.7 L83.1,90.7 L83.1,92.9 L84.2,92.9 L84.2,92.4 L85,92.4 L85,93.8 L84.2,93.8 L83.9,93.8 L81.5,93.8 L81.5,92.9 L82.2,92.9 L82.2,87.9 L81.5,87.9 L81.5,87 L82.2,87 L84.3,87 L85.1,87 L85.1,88.4 L84.3,88.4 L84.3,87.9 L83.9,87.9 L83.9,87.8 Z M92.1,90.5 C92.3,90.7 92.4,90.9 92.4,91.2 L92.4,92.9 L92.8,92.9 L92.8,93.8 L91.2,93.8 L91.2,92.9 L91.4,92.9 L91.4,91.2 C91.4,91 91.2,90.7 90.9,90.7 L90.2,90.7 L90.2,92.9 L90.4,92.9 L90.4,93.8 L88.6,93.8 L88.6,92.9 L89.2,92.9 L89.2,87.9 L88.6,87.9 L88.6,87 L89.2,87 L91.2,87 C91.5,87 91.7,87.1 91.9,87.3 C92.1,87.5 92.2,87.7 92.2,88 L92.2,89.3 C92.2,89.8 91.9,90.1 91.5,90.2 L91.5,90.2 C91.8,90.2 92,90.3 92.1,90.5 L92.1,90.5 Z M96.7,87.8 L96.7,87 L97.4,87 L98.4,87 L99.2,87 L99.2,87.8 L98.4,87.8 L98.4,93 L99.2,93 L99.2,93.8 L96.8,93.8 L96.8,93 L97.5,93 L97.5,87.8 L96.7,87.8 L96.7,87.8 Z M105.2,87.8 L105.2,87.8 L104.4,87.8 L104.4,89.8 L105.6,89.8 L105.6,90.7 L104.4,90.7 L104.4,92.9 L105.6,92.9 L105.6,92.4 L106.4,92.4 L106.4,93.8 L105.6,93.8 L105.2,93.8 L102.8,93.8 L102.8,92.9 L103.5,92.9 L103.5,87.9 L102.8,87.9 L102.8,87 L103.5,87 L105.6,87 L106.4,87 L106.4,88.4 L105.6,88.4 L105.6,87.9 L105.2,87.9 L105.2,87.8 Z M113.5,88.9 L112.5,88.9 L112.5,88 C112.5,87.9 112.4,87.8 112.3,87.8 L111.7,87.8 C111.6,87.8 111.5,87.9 111.5,88 L111.5,89 C111.5,89.2 111.6,89.4 111.7,89.5 L112.5,90 C113,90.3 113.5,90.7 113.5,91.4 L113.5,92.8 C113.5,93.1 113.4,93.3 113.2,93.5 C113,93.7 112.8,93.8 112.5,93.8 L111.4,93.8 C111.1,93.8 110.9,93.7 110.7,93.5 C110.5,93.3 110.4,93.1 110.4,92.8 L110.4,91.8 L111.4,91.8 L111.4,92.6 C111.4,92.7 111.5,92.8 111.6,92.8 L112.2,92.8 C112.3,92.8 112.4,92.7 112.4,92.6 L112.4,91.5 C112.4,91.3 112.3,91.1 112.2,91 L111.4,90.5 C110.9,90.2 110.4,89.8 110.4,89.2 L110.4,88 C110.4,87.7 110.5,87.5 110.7,87.3 C110.9,87.1 111.1,87 111.4,87 L112.5,87 C112.8,87 113,87.1 113.2,87.3 C113.4,87.5 113.5,87.7 113.5,88 L113.5,88.9 L113.5,88.9 Z M122.9,66.4 C122.5,67.4 121.9,68.4 121.1,69.5 C120.3,70.6 119.5,71.6 118.6,72.5 C117.7,73.4 116.8,74.2 115.9,74.9 C115,75.6 114.2,75.9 113.4,76 C112.2,76.2 111.5,75.7 111.3,74.5 C111.1,73.3 111.5,71.6 112.5,69.4 C112.9,68.5 113.4,67.6 113.8,66.8 C114.2,66 114.7,65.2 115.1,64.4 C114.4,65 113.7,65.4 113,65.7 C112.3,66 111.6,66.1 111,66 C110.6,66.8 110.2,67.6 109.8,68.3 C109,69.7 108.2,70.9 107.3,72.1 C106.4,73.3 105.4,74.3 104.4,75.1 C103.4,76 102.4,76.7 101.3,77.2 C100.2,77.7 99.2,78.1 98.2,78.2 C97,78.4 96,78.2 95.2,77.8 C94.4,77.4 93.8,76.7 93.4,75.9 C93.1,75.3 93,74.6 93,73.8 C92.3,74.8 91.5,75.7 90.7,76.5 C89.8,77.4 88.9,78.2 88,78.9 C87.1,79.6 86.4,79.9 85.8,80 C84.8,80.1 84,80 83.4,79.6 C82.8,79.2 82.2,78.7 81.8,78.1 C81.4,77.5 81.1,76.8 80.9,76 C80.7,75.3 80.6,74.6 80.5,74 C80.4,74.2 80.3,74.3 80.3,74.5 C80.2,74.7 80.2,74.8 80.1,75 L78.7,78 C78.4,78.8 78.2,79.4 78,79.8 C77.8,80.2 77.6,80.5 77.4,80.7 C77.2,80.9 76.9,81 76.6,81.1 C76.3,81.2 75.8,81.3 75.2,81.3 C74.8,81.4 74.4,81.4 74.1,81.4 C73.8,81.4 73.6,81.3 73.5,81 C73.4,80.8 73.4,80.4 73.5,79.9 C73.6,79.4 73.9,78.8 74.2,77.9 C73.4,78.8 72.6,79.7 71.8,80.5 C71,81.3 69.8,82 69.2,82.1 C68.4,82.2 67.7,82.1 67.1,81.8 C66.5,81.5 66.2,80.9 66.1,80 C65.5,80.8 64.9,81.4 64.1,82.1 C63.3,82.7 62.5,83.1 61.5,83.2 C60.5,83.3 59.7,83.1 59,82.6 C58.3,82.1 57.9,81.3 57.7,80.3 C57.5,79.3 57.5,78.1 57.7,76.8 C58,75.5 58.5,74.1 59.3,72.7 C60.1,71.4 61,70.2 62,69.3 C63,68.4 64,67.6 65,67.2 C66,66.7 66.9,66.5 67.9,66.6 C68.8,66.7 69.6,67.1 70.1,68.2 C70.3,67.8 70.7,67 70.9,66.8 C71.1,66.5 71.1,66.5 71.4,66.3 C71.4,66.3 73.9,65.9 74.3,65.9 C74.7,66 75,66.2 74.9,66.4 C74.9,66.8 74.5,67.9 74.1,68.6 C73.8,69.3 73.5,69.9 73.1,70.6 C72.8,71.3 72.5,71.9 72.2,72.6 C71.9,73.2 71.6,73.8 71.4,74.3 C71.2,74.8 71,75.3 70.8,75.8 C70.6,76.3 70.4,76.7 70.3,77.1 C70.2,77.5 70.2,77.8 70.2,78 C70.2,78.2 70.4,78.3 70.8,78.3 C71.3,78.2 71.8,78 72.4,77.6 C73,77.2 73.6,76.7 74.2,76.2 C74.8,75.6 75.3,75 75.9,74.3 C76.1,74 76.3,73.7 76.5,73.4 C76.9,72.6 77.3,71.7 77.8,70.8 C78.5,69.3 79.3,67.8 80.2,66.2 C81.1,64.6 81.9,63 82.8,61.5 C83.7,60 84.5,58.5 85.4,57.1 C86.3,55.7 87.1,54.5 87.9,53.4 C88.6,52.5 89.2,51.8 89.8,51.5 C90.4,51.1 90.9,51 91.4,51.1 C91.8,51.2 92.2,51.4 92.4,51.9 C92.6,52.3 92.7,52.9 92.6,53.6 C92.5,54.4 92.2,55.3 91.7,56.2 C91.2,57.1 90.5,58.1 89.7,59.1 C88.9,60.1 88.1,61.1 87.3,62.1 C86.4,63.1 85.6,64.2 84.9,65.2 C86,64.3 87,63.8 87.9,63.7 C88.8,63.6 89.5,63.7 90,64.2 C90.5,64.6 90.9,65.3 91,66.2 C91.1,67.1 91,68.1 90.6,69.2 C90.1,70.4 89.6,71.4 89,72.2 C88.4,73 87.8,73.6 87.2,74 C86.5,74.5 85.9,74.9 85.2,75.2 C85.2,75.5 85.3,75.8 85.4,76.1 C85.5,76.3 85.7,76.5 85.9,76.6 C86.1,76.7 86.5,76.8 86.9,76.7 C87.4,76.6 87.9,76.4 88.5,76 C89.1,75.6 89.7,75.1 90.3,74.4 C90.9,73.8 91.5,73.1 92.1,72.3 C92.6,71.6 93.1,70.8 93.4,70.1 C93.5,69.7 93.7,69.3 93.9,68.9 C94.3,67.8 94.9,66.8 95.6,65.8 C96.3,64.8 97,63.9 97.8,63.2 C98.6,62.5 99.5,61.9 100.4,61.6 C101.3,61.3 102.2,61.3 103.1,61.6 C103.8,61.9 104.3,62.2 104.7,62.7 C105.1,63.2 105.2,63.8 105.3,64.5 C105.3,65.2 105.2,65.9 104.9,66.6 C104.6,67.4 104.2,68.1 103.5,68.8 C102.7,69.8 101.7,70.6 100.5,71.3 C99.3,72 98.2,72.6 97,73 C97.1,73.6 97.4,74.1 97.8,74.4 C98.2,74.7 98.6,74.8 99.1,74.9 C99.8,75 100.5,74.8 101.3,74.4 C102.1,74 102.9,73.5 103.7,72.9 C104.5,72.3 105.3,71.5 106,70.7 C106.7,69.9 107.4,69 108,68 C108.2,67.6 108.4,67.3 108.6,66.9 C108.8,66.5 109,66.1 109.2,65.7 C108.8,65.3 108.6,64.8 108.5,64.1 C108.4,63.5 108.5,62.8 108.6,62.1 C108.8,61.4 109,60.7 109.3,60 C109.6,59.3 110,58.7 110.5,58.2 C110.9,57.7 111.4,57.3 111.9,57 C112.4,56.7 112.8,56.7 113.2,56.8 C113.5,56.9 113.7,57.1 113.7,57.4 C113.8,57.7 113.7,58 113.7,58.4 C113.6,58.8 113.5,59.2 113.4,59.6 C113.2,60 113.1,60.5 113,60.9 C113.5,61 114,61 114.4,60.9 C114.8,60.8 115.1,60.6 115.4,60.4 C115.7,60.2 116,59.9 116.2,59.5 C116.4,59.2 116.6,58.8 116.8,58.4 C117,58 117.3,57.8 117.6,57.8 C117.9,57.8 118.2,58 118.4,58.2 C118.6,58.5 118.8,58.8 118.9,59.3 C119,59.8 118.9,60.2 118.7,60.7 L118.7,60.8 C118.5,61.1 118.3,61.6 118,62.3 C117.7,63 117.3,63.8 117,64.6 C116.6,65.4 116.3,66.1 116,66.8 C115.7,67.5 115.5,68 115.4,68.3 C115.2,68.8 115,69.3 114.8,69.8 C114.6,70.3 114.4,70.7 114.3,71.1 C114.2,71.5 114.2,71.8 114.2,72 C114.3,72.2 114.4,72.3 114.8,72.2 C115.3,72.1 115.8,71.9 116.4,71.5 C117,71.1 117.5,70.6 118.1,70.1 C118.7,69.5 119.2,68.9 119.8,68.2 C120.3,67.5 120.8,66.7 121.2,65.9 C121.5,65.4 121.7,65 122,64.8 C122.3,64.6 122.5,64.5 122.7,64.6 C122.9,64.7 123,64.9 123,65.2 C123.2,65.4 123.1,65.8 122.9,66.4 L122.9,66.4 Z M137.4,72.3 C138.6,72.3 139.6,73.2 139.8,74.4 L135,74.4 C135.2,73.3 136.2,72.4 137.4,72.3 L137.4,72.3 Z M137.4,77.2 C136.2,77.2 135.2,76.3 135,75.1 L139.8,75.1 C139.7,76.2 138.7,77.2 137.4,77.2 L137.4,77.2 Z M79.8,15.3 L79.8,15.3 C79.8,14.7 79.4,14.3 78.8,14.3 L78.3,14.3 L78.3,16.2 L78.8,16.2 C79.4,16.3 79.8,15.9 79.8,15.3 L79.8,15.3 Z M87.2,68.8 C87.4,68.1 87.4,67.6 87,67.3 C86.4,66.8 85.6,67 84.6,67.7 C83.6,68.5 82.4,70.1 81.1,72.7 C82,72.9 82.8,72.8 83.7,72.4 C84.6,72 85.3,71.4 85.9,70.8 C86.5,70.2 87,69.5 87.2,68.8 L87.2,68.8 Z M68.2,70.2 C67.8,70.1 67.3,70.1 66.7,70.3 C66.1,70.5 65.6,70.8 65,71.2 C64.4,71.6 63.9,72.2 63.3,72.8 C62.8,73.4 62.3,74.2 61.9,75 C61.6,75.5 61.5,76.1 61.4,76.6 C61.3,77.1 61.3,77.6 61.4,77.9 C61.5,78.3 61.7,78.6 61.9,78.7 C62.2,78.9 62.5,79 63,78.9 C64.1,78.7 65.1,78 66.2,76.5 C67.2,75.1 68.2,73.2 69.1,70.9 C68.9,70.5 68.6,70.3 68.2,70.2 L68.2,70.2 Z" id="Shape" fill="#FFFFFF"></path>
            </g>
        </g>
    </g>
</svg>